<svg width="24" height="27" viewBox="0 0 24 27" fill="none" xmlns="http://www.w3.org/2000/svg">
<path d="M2.66667 26.6667C1.93333 26.6667 1.30556 26.4056 0.783333 25.8833C0.261111 25.3611 0 24.7333 0 24V5.33333C0 4.6 0.261111 3.97222 0.783333 3.45C1.30556 2.92778 1.93333 2.66667 2.66667 2.66667H8.26667C8.57778 1.86667 9.06667 1.22222 9.73333 0.733333C10.4 0.244444 11.1556 0 12 0C12.8444 0 13.6 0.244444 14.2667 0.733333C14.9333 1.22222 15.4222 1.86667 15.7333 2.66667H21.3333C22.0667 2.66667 22.6944 2.92778 23.2167 3.45C23.7389 3.97222 24 4.6 24 5.33333V24C24 24.7333 23.7389 25.3611 23.2167 25.8833C22.6944 26.4056 22.0667 26.6667 21.3333 26.6667H2.66667ZM12 4.33333C12.2889 4.33333 12.5278 4.23889 12.7167 4.05C12.9056 3.86111 13 3.62222 13 3.33333C13 3.04444 12.9056 2.80556 12.7167 2.61667C12.5278 2.42778 12.2889 2.33333 12 2.33333C11.7111 2.33333 11.4722 2.42778 11.2833 2.61667C11.0944 2.80556 11 3.04444 11 3.33333C11 3.62222 11.0944 3.86111 11.2833 4.05C11.4722 4.23889 11.7111 4.33333 12 4.33333ZM2.66667 22.4667C3.86667 21.2889 5.26111 20.3611 6.85 19.6833C8.43889 19.0056 10.1556 18.6667 12 18.6667C13.8444 18.6667 15.5611 19.0056 17.15 19.6833C18.7389 20.3611 20.1333 21.2889 21.3333 22.4667V5.33333H2.66667V22.4667ZM12 16C13.2889 16 14.3889 15.5444 15.3 14.6333C16.2111 13.7222 16.6667 12.6222 16.6667 11.3333C16.6667 10.0444 16.2111 8.94444 15.3 8.03333C14.3889 7.12222 13.2889 6.66667 12 6.66667C10.7111 6.66667 9.61111 7.12222 8.7 8.03333C7.78889 8.94444 7.33333 10.0444 7.33333 11.3333C7.33333 12.6222 7.78889 13.7222 8.7 14.6333C9.61111 15.5444 10.7111 16 12 16ZM5.33333 24H18.6667V23.6667C17.7333 22.8889 16.7 22.3056 15.5667 21.9167C14.4333 21.5278 13.2444 21.3333 12 21.3333C10.7556 21.3333 9.56667 21.5278 8.43333 21.9167C7.3 22.3056 6.26667 22.8889 5.33333 23.6667V24ZM12 13.3333C11.4444 13.3333 10.9722 13.1389 10.5833 12.75C10.1944 12.3611 10 11.8889 10 11.3333C10 10.7778 10.1944 10.3056 10.5833 9.91667C10.9722 9.52778 11.4444 9.33333 12 9.33333C12.5556 9.33333 13.0278 9.52778 13.4167 9.91667C13.8056 10.3056 14 10.7778 14 11.3333C14 11.8889 13.8056 12.3611 13.4167 12.75C13.0278 13.1389 12.5556 13.3333 12 13.3333Z" fill="#006FFD"/>
</svg>
