<svg width="16" height="17" viewBox="0 0 16 17" fill="none" xmlns="http://www.w3.org/2000/svg">
<path d="M14.9208 7.75165L8.18146 14.491C7.35584 15.3166 6.23606 15.7804 5.06846 15.7804C3.90086 15.7804 2.78108 15.3166 1.95546 14.491C1.12984 13.6654 0.666016 12.5456 0.666016 11.378C0.666016 10.2104 1.12984 9.0906 1.95546 8.26498L8.6948 1.52565C9.24521 0.975234 9.99173 0.666016 10.7701 0.666016C11.5485 0.666016 12.2951 0.975234 12.8455 1.52565C13.3959 2.07606 13.7051 2.82258 13.7051 3.60098C13.7051 4.37938 13.3959 5.1259 12.8455 5.67631L6.0988 12.4156C5.82359 12.6909 5.45033 12.8455 5.06113 12.8455C4.67193 12.8455 4.29867 12.6909 4.02346 12.4156C3.74826 12.1404 3.59365 11.7672 3.59365 11.378C3.59365 10.9888 3.74826 10.6155 4.02346 10.3403L10.2495 4.12165" stroke="#015DFF" stroke-width="1.33333" stroke-linecap="round" stroke-linejoin="round"/>
</svg>
