<svg width="19" height="21" viewBox="0 0 19 21" fill="none" xmlns="http://www.w3.org/2000/svg">
<path d="M10.8358 18.4167C10.6747 18.6945 10.4434 18.9251 10.165 19.0854C9.88673 19.2457 9.57118 19.3301 9.25 19.3301C8.92882 19.3301 8.61327 19.2457 8.33496 19.0854C8.05664 18.9251 7.82533 18.6945 7.66417 18.4167M14.75 6.5C14.75 5.04131 14.1705 3.64236 13.1391 2.61091C12.1076 1.57946 10.7087 1 9.25 1C7.79131 1 6.39236 1.57946 5.36091 2.61091C4.32946 3.64236 3.75 5.04131 3.75 6.5C3.75 12.9167 1 14.75 1 14.75H17.5C17.5 14.75 14.75 12.9167 14.75 6.5Z" stroke="white" stroke-width="2" stroke-linecap="round" stroke-linejoin="round"/>
</svg>
