<svg width="24" height="24" viewBox="0 0 24 24" fill="none" xmlns="http://www.w3.org/2000/svg">
<path d="M13.5704 21.4982C13.0652 21.4982 12.5877 21.3918 12.1377 21.179C11.6877 20.9661 11.3113 20.6604 11.0087 20.2617L5.91466 13.6635L6.28391 13.2695C6.53374 13.0028 6.83274 12.8426 7.18091 12.7887C7.52891 12.7347 7.85482 12.8007 8.15866 12.9867L10.5954 14.2945V4.24822C10.5954 4.03572 10.6673 3.85764 10.8112 3.71397C10.9548 3.57014 11.133 3.49822 11.3457 3.49822C11.5582 3.49822 11.7388 3.57014 11.8877 3.71397C12.0363 3.85764 12.1107 4.03572 12.1107 4.24822V16.9425L9.10866 15.3077L12.2279 19.3732C12.3921 19.5899 12.5921 19.7482 12.8279 19.8482C13.0639 19.9482 13.3114 19.9982 13.5704 19.9982H18.4894C19.1164 19.9982 19.6497 19.78 20.0894 19.3435C20.5292 18.9068 20.7492 18.3751 20.7492 17.7482V10.5942C20.7492 10.3819 20.8211 10.2038 20.9649 10.06C21.1087 9.9163 21.2869 9.84447 21.4994 9.84447C21.7121 9.84447 21.8902 9.9163 22.0337 10.06C22.1773 10.2038 22.2492 10.3819 22.2492 10.5942V17.7482C22.2492 18.7841 21.881 19.6681 21.1447 20.4002C20.4085 21.1322 19.5234 21.4982 18.4894 21.4982H13.5704ZM13.9799 13.0945V7.76747C13.9799 7.55497 14.0518 7.3768 14.1957 7.23297C14.3395 7.0893 14.5177 7.01747 14.7302 7.01747C14.9428 7.01747 15.1209 7.0893 15.2644 7.23297C15.4081 7.3768 15.4799 7.55497 15.4799 7.76747V13.0945H13.9799ZM17.3644 13.0945V8.92122C17.3644 8.70872 17.4363 8.53064 17.5802 8.38697C17.724 8.24314 17.9022 8.17122 18.1149 8.17122C18.3274 8.17122 18.5055 8.24314 18.6492 8.38697C18.7927 8.53064 18.8644 8.70872 18.8644 8.92122V13.0945H17.3644ZM2.38966 8.84947C1.75749 8.23114 1.44141 7.47364 1.44141 6.57697C1.44141 5.91164 1.64332 5.31355 2.04716 4.78272C2.45116 4.25205 2.86849 3.73289 3.29916 3.22522L4.69141 1.63672L6.07416 3.24047C6.50499 3.74814 6.92391 4.2643 7.33091 4.78897C7.73791 5.31347 7.94141 5.90947 7.94141 6.57697C7.94141 7.47364 7.62541 8.23114 6.99341 8.84947C6.36141 9.4678 5.59407 9.77697 4.69141 9.77697C3.78891 9.77697 3.02166 9.4678 2.38966 8.84947ZM5.92716 7.77872C6.26999 7.44655 6.44141 7.04597 6.44141 6.57697C6.44141 6.09497 6.27924 5.67389 5.95491 5.31372C5.63057 4.95339 5.30557 4.59697 4.97991 4.24447L4.68191 3.92697L4.40291 4.24447C4.08407 4.60814 3.76082 4.9673 3.43316 5.32197C3.10532 5.67664 2.94141 6.09497 2.94141 6.57697C2.94141 7.04597 3.11291 7.44655 3.45591 7.77872C3.79891 8.11089 4.21074 8.27697 4.69141 8.27697C5.17224 8.27697 5.58416 8.11089 5.92716 7.77872Z" fill="#7F7F7F"/>
</svg>
