<svg width="20" height="20" viewBox="0 0 20 20" fill="none" xmlns="http://www.w3.org/2000/svg">
<path d="M15.8337 8.33398V10.0007C15.8337 11.5477 15.2191 13.0315 14.1251 14.1254C13.0312 15.2194 11.5474 15.834 10.0003 15.834M10.0003 15.834C8.45323 15.834 6.9695 15.2194 5.87554 14.1254C4.78157 13.0315 4.16699 11.5477 4.16699 10.0007V8.33398M10.0003 15.834V19.1673M6.66699 19.1673H13.3337M10.0003 0.833984C9.33728 0.833984 8.7014 1.09738 8.23256 1.56622C7.76372 2.03506 7.50033 2.67094 7.50033 3.33398V10.0007C7.50033 10.6637 7.76372 11.2996 8.23256 11.7684C8.7014 12.2373 9.33728 12.5006 10.0003 12.5006C10.6634 12.5006 11.2993 12.2373 11.7681 11.7684C12.2369 11.2996 12.5003 10.6637 12.5003 10.0007V3.33398C12.5003 2.67094 12.2369 2.03506 11.7681 1.56622C11.2993 1.09738 10.6634 0.833984 10.0003 0.833984Z" stroke="#0088FF" stroke-width="1.66667" stroke-linecap="round" stroke-linejoin="round"/>
</svg>
