<svg width="16" height="16" viewBox="0 0 16 16" fill="none" xmlns="http://www.w3.org/2000/svg">
<mask id="mask0_2895_23752" style="mask-type:alpha" maskUnits="userSpaceOnUse" x="0" y="0" width="16" height="16">
<path fill-rule="evenodd" clip-rule="evenodd" d="M6.42668 0.333984C3.06384 0.333984 0.333008 3.03838 0.333008 6.38021C0.333008 9.72204 3.06384 12.4264 6.42668 12.4264C7.68042 12.4264 8.84667 12.0504 9.81595 11.4056L13.7914 15.3483C14.2203 15.7737 14.9146 15.7737 15.3435 15.3483C15.774 14.9214 15.774 14.228 15.3435 13.8011L11.3936 9.88377C12.1028 8.89552 12.5203 7.68596 12.5203 6.38021C12.5203 3.03838 9.78951 0.333984 6.42668 0.333984ZM2.53084 6.38021C2.53084 4.25043 4.27246 2.51921 6.42668 2.51921C8.58089 2.51921 10.3225 4.25043 10.3225 6.38021C10.3225 8.50999 8.58089 10.2412 6.42668 10.2412C4.27246 10.2412 2.53084 8.50999 2.53084 6.38021Z" fill="#006FFD"/>
</mask>
<g mask="url(#mask0_2895_23752)">
<rect width="16" height="16" fill="#006FFD"/>
</g>
</svg>
