<svg width="12" height="14" viewBox="0 0 12 14" fill="none" xmlns="http://www.w3.org/2000/svg">
<path d="M1.33333 13.3333C0.966667 13.3333 0.652778 13.2028 0.391667 12.9417C0.130556 12.6806 0 12.3667 0 12V2.66667C0 2.3 0.130556 1.98611 0.391667 1.725C0.652778 1.46389 0.966667 1.33333 1.33333 1.33333H2V0H3.33333V1.33333H8.66667V0H10V1.33333H10.6667C11.0333 1.33333 11.3472 1.46389 11.6083 1.725C11.8694 1.98611 12 2.3 12 2.66667V12C12 12.3667 11.8694 12.6806 11.6083 12.9417C11.3472 13.2028 11.0333 13.3333 10.6667 13.3333H1.33333ZM1.33333 12H10.6667V5.33333H1.33333V12ZM1.33333 4H10.6667V2.66667H1.33333V4ZM6 8C5.81111 8 5.65278 7.93611 5.525 7.80833C5.39722 7.68055 5.33333 7.52222 5.33333 7.33333C5.33333 7.14444 5.39722 6.98611 5.525 6.85833C5.65278 6.73056 5.81111 6.66667 6 6.66667C6.18889 6.66667 6.34722 6.73056 6.475 6.85833C6.60278 6.98611 6.66667 7.14444 6.66667 7.33333C6.66667 7.52222 6.60278 7.68055 6.475 7.80833C6.34722 7.93611 6.18889 8 6 8ZM3.33333 8C3.14444 8 2.98611 7.93611 2.85833 7.80833C2.73056 7.68055 2.66667 7.52222 2.66667 7.33333C2.66667 7.14444 2.73056 6.98611 2.85833 6.85833C2.98611 6.73056 3.14444 6.66667 3.33333 6.66667C3.52222 6.66667 3.68056 6.73056 3.80833 6.85833C3.93611 6.98611 4 7.14444 4 7.33333C4 7.52222 3.93611 7.68055 3.80833 7.80833C3.68056 7.93611 3.52222 8 3.33333 8ZM8.66667 8C8.47778 8 8.31944 7.93611 8.19167 7.80833C8.06389 7.68055 8 7.52222 8 7.33333C8 7.14444 8.06389 6.98611 8.19167 6.85833C8.31944 6.73056 8.47778 6.66667 8.66667 6.66667C8.85556 6.66667 9.01389 6.73056 9.14167 6.85833C9.26944 6.98611 9.33333 7.14444 9.33333 7.33333C9.33333 7.52222 9.26944 7.68055 9.14167 7.80833C9.01389 7.93611 8.85556 8 8.66667 8ZM6 10.6667C5.81111 10.6667 5.65278 10.6028 5.525 10.475C5.39722 10.3472 5.33333 10.1889 5.33333 10C5.33333 9.81111 5.39722 9.65278 5.525 9.525C5.65278 9.39722 5.81111 9.33333 6 9.33333C6.18889 9.33333 6.34722 9.39722 6.475 9.525C6.60278 9.65278 6.66667 9.81111 6.66667 10C6.66667 10.1889 6.60278 10.3472 6.475 10.475C6.34722 10.6028 6.18889 10.6667 6 10.6667ZM3.33333 10.6667C3.14444 10.6667 2.98611 10.6028 2.85833 10.475C2.73056 10.3472 2.66667 10.1889 2.66667 10C2.66667 9.81111 2.73056 9.65278 2.85833 9.525C2.98611 9.39722 3.14444 9.33333 3.33333 9.33333C3.52222 9.33333 3.68056 9.39722 3.80833 9.525C3.93611 9.65278 4 9.81111 4 10C4 10.1889 3.93611 10.3472 3.80833 10.475C3.68056 10.6028 3.52222 10.6667 3.33333 10.6667ZM8.66667 10.6667C8.47778 10.6667 8.31944 10.6028 8.19167 10.475C8.06389 10.3472 8 10.1889 8 10C8 9.81111 8.06389 9.65278 8.19167 9.525C8.31944 9.39722 8.47778 9.33333 8.66667 9.33333C8.85556 9.33333 9.01389 9.39722 9.14167 9.525C9.26944 9.65278 9.33333 9.81111 9.33333 10C9.33333 10.1889 9.26944 10.3472 9.14167 10.475C9.01389 10.6028 8.85556 10.6667 8.66667 10.6667Z" fill="#8E8E93"/>
</svg>
