<svg width="18" height="18" viewBox="0 0 18 18" fill="none" xmlns="http://www.w3.org/2000/svg">
<g clip-path="url(#clip0_7613_35516)">
<path d="M15.7235 8.10321L8.9842 14.8425C8.15858 15.6682 7.0388 16.132 5.8712 16.132C4.7036 16.132 3.58382 15.6682 2.7582 14.8425C1.93258 14.0169 1.46875 12.8971 1.46875 11.7295C1.46875 10.5619 1.93258 9.44216 2.7582 8.61654L9.49753 1.87721C10.0479 1.3268 10.7945 1.01758 11.5729 1.01758C12.3513 1.01758 13.0978 1.3268 13.6482 1.87721C14.1986 2.42762 14.5078 3.17414 14.5078 3.95254C14.5078 4.73094 14.1986 5.47746 13.6482 6.02788L6.90153 12.7672C6.62632 13.0424 6.25306 13.197 5.86386 13.197C5.47466 13.197 5.1014 13.0424 4.8262 12.7672C4.55099 12.492 4.39638 12.1187 4.39638 11.7295C4.39638 11.3403 4.55099 10.9671 4.8262 10.6919L11.0522 4.47321" stroke="currentColor" stroke-width="1.33333" stroke-linecap="round" stroke-linejoin="round"/>
</g>
<defs>
<clipPath id="clip0_7613_35516">
<rect width="17.6" height="17.6" fill="currentColor"/>
</clipPath>
</defs>
</svg>
