<svg width="16" height="16" viewBox="0 0 16 16" fill="none" xmlns="http://www.w3.org/2000/svg">
<path d="M3.33333 14.6673C2.96667 14.6673 2.65278 14.5368 2.39167 14.2757C2.13056 14.0145 2 13.7007 2 13.334V4.00065C2 3.63398 2.13056 3.3201 2.39167 3.05898C2.65278 2.79787 2.96667 2.66732 3.33333 2.66732H4V1.33398H5.33333V2.66732H10.6667V1.33398H12V2.66732H12.6667C13.0333 2.66732 13.3472 2.79787 13.6083 3.05898C13.8694 3.3201 14 3.63398 14 4.00065V13.334C14 13.7007 13.8694 14.0145 13.6083 14.2757C13.3472 14.5368 13.0333 14.6673 12.6667 14.6673H3.33333ZM3.33333 13.334H12.6667V6.66732H3.33333V13.334ZM3.33333 5.33398H12.6667V4.00065H3.33333V5.33398ZM8 9.33398C7.81111 9.33398 7.65278 9.27009 7.525 9.14232C7.39722 9.01454 7.33333 8.85621 7.33333 8.66732C7.33333 8.47843 7.39722 8.3201 7.525 8.19232C7.65278 8.06454 7.81111 8.00065 8 8.00065C8.18889 8.00065 8.34722 8.06454 8.475 8.19232C8.60278 8.3201 8.66667 8.47843 8.66667 8.66732C8.66667 8.85621 8.60278 9.01454 8.475 9.14232C8.34722 9.27009 8.18889 9.33398 8 9.33398ZM5.33333 9.33398C5.14444 9.33398 4.98611 9.27009 4.85833 9.14232C4.73056 9.01454 4.66667 8.85621 4.66667 8.66732C4.66667 8.47843 4.73056 8.3201 4.85833 8.19232C4.98611 8.06454 5.14444 8.00065 5.33333 8.00065C5.52222 8.00065 5.68056 8.06454 5.80833 8.19232C5.93611 8.3201 6 8.47843 6 8.66732C6 8.85621 5.93611 9.01454 5.80833 9.14232C5.68056 9.27009 5.52222 9.33398 5.33333 9.33398ZM10.6667 9.33398C10.4778 9.33398 10.3194 9.27009 10.1917 9.14232C10.0639 9.01454 10 8.85621 10 8.66732C10 8.47843 10.0639 8.3201 10.1917 8.19232C10.3194 8.06454 10.4778 8.00065 10.6667 8.00065C10.8556 8.00065 11.0139 8.06454 11.1417 8.19232C11.2694 8.3201 11.3333 8.47843 11.3333 8.66732C11.3333 8.85621 11.2694 9.01454 11.1417 9.14232C11.0139 9.27009 10.8556 9.33398 10.6667 9.33398ZM8 12.0007C7.81111 12.0007 7.65278 11.9368 7.525 11.809C7.39722 11.6812 7.33333 11.5229 7.33333 11.334C7.33333 11.1451 7.39722 10.9868 7.525 10.859C7.65278 10.7312 7.81111 10.6673 8 10.6673C8.18889 10.6673 8.34722 10.7312 8.475 10.859C8.60278 10.9868 8.66667 11.1451 8.66667 11.334C8.66667 11.5229 8.60278 11.6812 8.475 11.809C8.34722 11.9368 8.18889 12.0007 8 12.0007ZM5.33333 12.0007C5.14444 12.0007 4.98611 11.9368 4.85833 11.809C4.73056 11.6812 4.66667 11.5229 4.66667 11.334C4.66667 11.1451 4.73056 10.9868 4.85833 10.859C4.98611 10.7312 5.14444 10.6673 5.33333 10.6673C5.52222 10.6673 5.68056 10.7312 5.80833 10.859C5.93611 10.9868 6 11.1451 6 11.334C6 11.5229 5.93611 11.6812 5.80833 11.809C5.68056 11.9368 5.52222 12.0007 5.33333 12.0007ZM10.6667 12.0007C10.4778 12.0007 10.3194 11.9368 10.1917 11.809C10.0639 11.6812 10 11.5229 10 11.334C10 11.1451 10.0639 10.9868 10.1917 10.859C10.3194 10.7312 10.4778 10.6673 10.6667 10.6673C10.8556 10.6673 11.0139 10.7312 11.1417 10.859C11.2694 10.9868 11.3333 11.1451 11.3333 11.334C11.3333 11.5229 11.2694 11.6812 11.1417 11.809C11.0139 11.9368 10.8556 12.0007 10.6667 12.0007Z" fill="#8E8E93"/>
</svg>
