<svg width="82" height="50" viewBox="0 0 82 50" fill="none" xmlns="http://www.w3.org/2000/svg">
<path d="M-0.75 37.7408L0.946929 42.8895C1.07121 43.2665 1.5501 43.379 1.82925 43.0967L3.03151 41.8808C3.13131 41.7798 3.26734 41.7231 3.40928 41.7231H4.18993C4.3815 41.7231 4.55823 41.6199 4.65246 41.4531L7.12493 37.0771L9.59245 33.3338C9.69075 33.1847 9.8574 33.0949 10.036 33.0949H11.3887C11.5907 33.0949 11.7753 32.9803 11.8649 32.7991L13.418 29.6575C13.5606 29.3692 13.9246 29.2727 14.1913 29.4525L15.5967 30.4001C15.6361 30.4267 15.6789 30.4478 15.724 30.463L17.2586 30.9804C17.4769 31.054 17.7178 30.9784 17.8551 30.7934L19.517 28.5523C19.5673 28.4844 19.6007 28.4055 19.6145 28.3222L20.2431 24.5075C20.2476 24.4804 20.2541 24.4537 20.2627 24.4276L21.1032 21.8776C21.2587 21.4058 21.919 21.3865 22.1018 21.8485L22.8376 23.709C22.8622 23.7712 22.8748 23.8375 22.8748 23.9043V33.0949L23.3379 41.0569C23.3668 41.5536 24.0799 41.6025 24.1764 41.1145C24.1836 41.0779 24.1957 41.0424 24.2122 41.0089L26.101 37.1884C26.1372 37.1152 26.156 37.0347 26.156 36.953V33.1802C26.156 33.1237 26.165 33.0676 26.1827 33.0139L27.3719 29.4059C27.4316 29.2246 27.584 29.0894 27.7711 29.0515L30.3982 28.5201C30.6106 28.4772 30.8278 28.5675 30.9471 28.7484L32.0333 30.3963C32.0525 30.4254 32.0746 30.4526 32.0991 30.4774L33.9593 32.3588C34.0066 32.4066 34.0444 32.4631 34.0707 32.525L35.9997 37.0771L37.9684 41.0593L39.4647 44.086C39.641 44.4426 40.1596 44.4115 40.292 44.0364C40.4158 43.6859 40.8871 43.6282 41.0917 43.9386L41.3496 44.3299C41.5851 44.6872 42.1248 44.6336 42.2855 44.237L45.1639 37.1344C45.1793 37.0964 45.1903 37.0566 45.1965 37.016L46.4996 28.5812L47.1558 23.9353L48.2975 18.1621C48.3751 17.7698 48.8419 17.6006 49.1528 17.8521L51.6281 19.8548C51.7074 19.919 51.7665 20.0046 51.7985 20.1015L52.7531 22.998C52.8856 23.3999 53.4118 23.4932 53.6743 23.1613L55.5978 20.7296C55.6562 20.6558 55.694 20.5677 55.7071 20.4744L56.2331 16.7505C56.2858 16.3777 56.6989 16.1765 57.025 16.3649L60.5818 18.4205C60.791 18.5414 61.0555 18.5058 61.2254 18.334L62.7522 16.7898C62.8506 16.6904 62.9057 16.5562 62.9057 16.4163V12.0322C62.9057 12.0032 62.9081 11.9743 62.9128 11.9458L63.5619 8.00648L64.499 4.68955C64.6312 4.22142 65.2709 4.16247 65.4865 4.59854L66.458 6.56361C66.634 6.9197 67.1243 6.96368 67.3609 6.64461L68.5817 4.99841C68.7189 4.81335 68.9598 4.73784 69.1781 4.81144L70.6981 5.32384C70.7528 5.34227 70.8101 5.35168 70.8678 5.35168H72.2879C72.5526 5.35168 72.7769 5.54653 72.8139 5.80862L73.1652 8.29547C73.2383 8.81282 73.9359 8.92498 74.1674 8.45661L74.6631 7.45407C74.6993 7.38086 74.7181 7.3003 74.7181 7.21863V5.02319C74.7181 4.59762 75.1935 4.3448 75.5463 4.58271L76.2417 5.05157C76.4868 5.21681 76.8196 5.15025 76.9823 4.90347L77.9993 3.36057L80.6243 0.0420612L81.7793 -1.71017C81.8776 -1.8593 82.0443 -1.94904 82.2229 -1.94904H82.8974C83.1107 -1.94904 83.3033 -1.82147 83.3866 -1.62507L85.1957 2.6443C85.2105 2.67925 85.2291 2.7125 85.2509 2.7435L88.4753 7.30891C88.4912 7.33146 88.5054 7.35521 88.5176 7.37995L89.7361 9.84459C89.9649 10.3073 90.6526 10.2049 90.7365 9.69553L91.1242 7.34278L91.7734 3.40347C91.7781 3.37492 91.7805 3.34603 91.7805 3.31709V0.0855411C91.7805 0.0566029 91.7828 0.0277131 91.7875 -0.000840094L92.4367 -3.94015L93.0859 -7.87946C93.0906 -7.90801 93.0929 -7.9369 93.0929 -7.96584V-13.1885C93.0929 -13.2174 93.0953 -13.2463 93.1 -13.2749L93.7492 -17.2142L94.3987 -21.1557C94.4032 -21.1828 94.4098 -21.2095 94.4184 -21.2356L94.4841 -21.4352C94.651 -21.9416 95.3765 -21.914 95.5044 -21.3964L96.3586 -17.9407C96.369 -17.899 96.3742 -17.8562 96.3742 -17.8132V-13.232V-9.24976L97.0304 -4.60385V-0.665121C97.0304 -0.636182 97.0328 -0.607292 97.0375 -0.578739L97.4181 1.73111C97.5021 2.24046 98.1898 2.34292 98.4185 1.88017L99.6554 -0.62164L100.592 -2.99057C100.75 -3.39038 101.293 -3.44654 101.53 -3.08756L102.18 -2.10168C102.245 -2.00277 102.341 -1.92849 102.454 -1.89064L106.007 -0.692728C106.142 -0.64725 106.289 -0.657817 106.416 -0.722059L107.108 -1.07162C107.349 -1.19342 107.642 -1.11526 107.791 -0.88992L110.155 2.69687L113.974 7.20211C114.051 7.29323 114.156 7.35588 114.273 7.3777C115.436 7.59381 117.691 7.84628 118.686 7.34278C119.563 6.89932 121.112 6.42499 122.108 6.15181C122.392 6.07393 122.681 6.24796 122.752 6.53385L123.867 11.0421C123.91 11.2183 124.041 11.3601 124.213 11.4181L125.544 11.8668C125.76 11.9396 125.905 12.1422 125.905 12.3702V15.9274C125.905 15.9564 125.908 15.9853 125.912 16.0138L126.549 19.875C126.557 19.9268 126.573 19.977 126.596 20.0241L128.53 23.9353L130.564 27.5352C130.791 27.9368 131.387 27.8783 131.531 27.4402L132.456 24.6353C132.464 24.6113 132.468 24.5861 132.468 24.5608C132.468 24.2801 132.869 24.2312 132.936 24.5038L133.78 27.9175L135.079 32.5163C135.088 32.5477 135.1 32.5781 135.114 32.6073L135.273 32.9276C135.468 33.322 136.03 33.322 136.225 32.9276L137.679 29.9856C137.705 29.9346 137.738 29.888 137.778 29.8476L138.941 28.6709C139 28.6119 139.071 28.5674 139.149 28.541L142.757 27.3249C142.892 27.2794 143.039 27.29 143.166 27.3543L143.935 27.7429C144.14 27.847 144.39 27.8063 144.552 27.6423L144.982 27.2076C145.261 26.9253 145.74 27.0377 145.864 27.4148L146.249 28.5812L146.561 29.5299C146.671 29.8612 147.139 29.8612 147.249 29.5299C147.354 29.2085 147.804 29.1954 147.929 29.51L148.813 31.7467C148.853 31.8464 148.921 31.9318 149.01 31.9918L150.842 33.2272L152.734 34.5027C152.785 34.537 152.842 34.5622 152.901 34.5773L155.372 35.202C155.415 35.2128 155.458 35.2183 155.502 35.2183H157.339C157.383 35.2183 157.426 35.2128 157.469 35.202L159.966 34.5708C160.008 34.56 160.052 34.5546 160.096 34.5546H162.528C162.611 34.5546 162.694 34.5741 162.768 34.6117L163.967 35.2183L165.081 35.7815C165.208 35.8458 165.356 35.8563 165.491 35.8109L167.129 35.2585C167.208 35.232 167.279 35.1876 167.337 35.1286L168.449 34.0045C168.522 33.9304 168.572 33.8363 168.592 33.7341L169.204 30.6415C169.213 30.5956 169.228 30.5511 169.249 30.5091L169.819 29.3562C169.855 29.283 169.874 29.2025 169.874 29.1208V27.3185C169.874 27.2756 169.879 27.2327 169.889 27.191L170.014 26.6854C170.147 26.147 170.912 26.147 171.046 26.6854L171.186 27.2538L171.835 31.1931C171.84 31.2217 171.842 31.2506 171.842 31.2795V34.5546V37.8731V42.519V45.7728C171.842 45.8158 171.847 45.8586 171.858 45.9003L172.491 48.4631C172.496 48.4825 172.499 48.5024 172.499 48.5224C172.499 48.7951 172.875 48.867 172.976 48.6133L173.811 46.5012L174.454 44.5493C174.463 44.5232 174.469 44.4965 174.474 44.4694L175.116 40.5708C175.121 40.5422 175.123 40.5133 175.123 40.4844V37.4277C175.123 37.2878 175.179 37.1536 175.277 37.0541L176.375 35.9435C176.415 35.9027 176.462 35.8688 176.513 35.8429L178.984 34.5936C179.035 34.5677 179.082 34.5338 179.122 34.493L180.313 33.2887C180.353 33.2479 180.4 33.214 180.451 33.1881L182.84 31.9797C182.943 31.9278 183.026 31.8441 183.077 31.741L183.557 30.7699C183.62 30.6434 183.73 30.547 183.864 30.5019L185.587 29.9208C185.611 29.9127 185.635 29.9029 185.657 29.8915L188.248 28.5812L190.142 27.3047C190.192 27.271 190.235 27.2291 190.271 27.1807L192.163 24.6293C192.178 24.6091 192.195 24.5901 192.212 24.5722L194.774 21.9815C194.798 21.9567 194.82 21.9295 194.84 21.9004L196.094 19.9969C196.114 19.9678 196.136 19.9406 196.16 19.9158L197.058 19.0078C197.266 18.7975 197.606 18.7975 197.814 19.0078L198.722 19.9263C198.739 19.9442 198.756 19.9632 198.771 19.9834L200.717 22.6079L202.663 25.2325C202.678 25.2526 202.695 25.2717 202.712 25.2895L205.155 27.7598C205.255 27.8607 205.391 27.9175 205.533 27.9175H208.526C208.57 27.9175 208.613 27.9121 208.656 27.9013L211.217 27.2538L214.342 26.6218C214.444 26.6011 214.55 26.611 214.646 26.65L217.706 27.8878C217.755 27.9075 217.8 27.9343 217.841 27.9673L221.017 30.5368C221.046 30.5604 221.078 30.5809 221.111 30.5979L223.686 31.8997L226.819 33.1673C226.915 33.2063 227.021 33.2161 227.123 33.1955L230.178 32.5777C230.224 32.5682 230.27 32.5526 230.312 32.5311L234.143 30.5941C234.171 30.5796 234.198 30.5626 234.224 30.5432L236.81 28.5812L239.211 26.7602C239.351 26.6538 239.535 26.624 239.702 26.6781C240.425 26.9111 241.598 27.2538 242.06 27.2538C242.52 27.2538 243.686 26.9141 244.409 26.6812C244.581 26.6255 244.712 26.4835 244.755 26.3073L245.342 23.9353L245.982 21.3433C245.993 21.3016 245.998 21.2588 245.998 21.2158V18.844C245.998 18.7041 246.053 18.5699 246.151 18.4705L247.058 17.554C247.391 17.2164 247.967 17.4527 247.967 17.9275C247.967 18.7494 247.967 19.6204 247.967 19.9531C247.967 20.4785 248.395 23.2137 248.616 24.557C248.621 24.5856 248.623 24.6136 248.623 24.6425V27.9175L249.279 32.5634V36.4936C249.279 36.5282 249.282 36.5628 249.289 36.5967L249.632 38.3286C249.73 38.8266 250.404 38.916 250.629 38.461L251.213 37.2803C251.236 37.2333 251.252 37.183 251.261 37.1313L251.895 33.2833C251.901 33.246 251.911 33.2094 251.925 33.1743L253.217 29.9086L254.467 27.3801C254.508 27.2974 254.569 27.2267 254.646 27.1751L256.363 26.0172C256.451 25.958 256.554 25.9264 256.66 25.9264H258.304C258.41 25.9264 258.513 25.8948 258.601 25.8357L260.435 24.599L263.026 23.2888C263.049 23.2774 263.072 23.2676 263.096 23.2595L264.91 22.6482C264.988 22.6217 265.059 22.5772 265.118 22.5183L266.961 20.6541C266.985 20.6293 267.007 20.6021 267.027 20.573L268.31 18.6257L269.594 16.6784C269.613 16.6493 269.635 16.6221 269.66 16.5973L271.591 14.6435L273.499 12.7139C273.54 12.6732 273.586 12.6389 273.638 12.615C274.108 12.3994 275.033 12.1508 275.529 12.6524C276.036 13.1656 276.993 14.1335 277.452 14.5972C277.482 14.628 277.509 14.6623 277.531 14.6996L279.445 17.9256C279.459 17.9499 279.472 17.9752 279.482 18.0013L280.718 21.1274C280.758 21.2272 280.826 21.3126 280.915 21.3725L282.748 22.6079L284.716 23.9353L287.896 26.5082C287.963 26.562 288.041 26.599 288.125 26.6159L291.196 27.237C291.251 27.2482 291.307 27.2505 291.363 27.244L296.934 26.5901H301.561H305.077C305.132 26.5901 305.187 26.5815 305.24 26.5645L309.273 25.2627L313.307 23.961C313.36 23.944 313.415 23.9353 313.47 23.9353H315.287C315.389 23.9353 315.489 23.9648 315.575 24.0202L317.5 25.2627L318.674 26.2738C318.883 26.453 319.193 26.4438 319.39 26.2528L321.015 24.6801C321.07 24.6267 321.113 24.5619 321.141 24.4903L322.091 22.0368C322.115 21.9756 322.127 21.9106 322.127 21.8449V18.9755C322.127 18.7632 322.253 18.5714 322.448 18.4875L322.928 18.281C323.279 18.1301 323.669 18.3872 323.669 18.769V21.8933C323.669 21.9272 323.673 21.961 323.679 21.9943L324.688 27.2038C324.694 27.2371 324.698 27.2709 324.698 27.3048V35.2985C324.698 35.381 324.717 35.4623 324.754 35.5361L325.634 37.2976C325.85 37.7296 326.484 37.6726 326.62 37.209L327.768 33.2751C327.778 33.2432 327.784 33.2105 327.787 33.1774L328.289 27.9902C328.294 27.942 328.305 27.8946 328.323 27.8495L329.707 24.2747C329.787 24.0701 329.983 23.9353 330.203 23.9353H332.856C332.901 23.9353 332.946 23.9297 332.989 23.9185L335.264 23.331C335.411 23.2932 335.534 23.1948 335.603 23.0604L336.374 21.568C336.465 21.3914 336.647 21.2805 336.846 21.2805H338.45C338.535 21.2805 338.619 21.2602 338.694 21.2213L341.052 20.0038C341.116 19.9704 341.174 19.9239 341.22 19.8674L343.206 17.4292L345.218 14.7043C345.248 14.664 345.283 14.6281 345.323 14.5976L348.171 12.4228C348.284 12.3365 348.427 12.2991 348.568 12.3191L350.652 12.6147C350.82 12.6384 350.966 12.7402 351.046 12.8889L353.489 17.4292L355.497 21.8379C355.529 21.908 355.576 21.9702 355.634 22.0204L360.023 25.7978C360.12 25.8808 360.243 25.9264 360.37 25.9264H367.371L373.484 25.2688C373.521 25.2648 373.559 25.2648 373.597 25.2688L379.71 25.9264L386.841 26.584C386.885 26.5881 386.93 26.5865 386.974 26.5794L390.82 25.9589C390.949 25.938 391.082 25.9658 391.192 26.037L393.651 27.6241C393.901 27.7853 394.234 27.7102 394.391 27.4576L396.101 24.6975C396.141 24.6326 396.167 24.5598 396.177 24.484L396.513 21.8155C396.572 21.3419 397.178 21.1811 397.464 21.5628L399.141 23.7935C399.21 23.8856 399.247 23.9976 399.247 24.1127V30.2826L399.761 38.5087V38.996C399.761 39.5464 400.495 39.7336 400.759 39.2504L402.781 35.5428C402.824 35.4648 402.846 35.3773 402.846 35.2884V30.4776C402.846 30.3517 402.891 30.2299 402.972 30.1338L405.284 27.4106C405.369 27.3097 405.489 27.2444 405.621 27.2275L410.458 26.6031C410.524 26.5945 410.588 26.5735 410.647 26.5411L414.092 24.6348C414.135 24.6111 414.175 24.5815 414.21 24.5469L418.27 20.514L421.825 16.4516C421.854 16.4179 421.888 16.3881 421.925 16.3629L424.01 14.9375C424.249 14.7742 424.574 14.8321 424.742 15.0677L427.525 18.9716L430.559 24.5069C430.592 24.5677 430.637 24.6214 430.691 24.665L434.576 27.7997C434.671 27.876 434.789 27.9175 434.91 27.9175H439.255C439.318 27.9175 439.38 27.9064 439.439 27.8847L442.86 26.623C442.918 26.6012 442.981 26.5901 443.043 26.5901H446.51C446.535 26.5901 446.56 26.5919 446.585 26.5955L451.103 27.2436C451.151 27.2504 451.199 27.2507 451.247 27.2446L456.316 26.5901H460.882C460.923 26.5901 460.963 26.5854 461.003 26.5761L466.415 25.3058C466.534 25.2779 466.659 25.2917 466.768 25.3448L470.324 27.0662C470.55 27.1756 470.822 27.1118 470.976 26.9133L473.731 23.357C473.774 23.3006 473.806 23.2361 473.824 23.1672L474.693 19.8761C474.84 19.32 475.642 19.3611 475.732 19.9293L476.882 27.2538L477.396 34.3956L477.633 36.7732C477.692 37.356 478.512 37.4295 478.673 36.8663L479.954 32.3807C479.962 32.353 479.968 32.3247 479.971 32.2961L480.471 28.0025C480.477 27.9462 480.493 27.8913 480.517 27.84L481.836 25C481.944 24.7677 482.203 24.6455 482.451 24.7096L484.397 25.212C484.524 25.2447 484.658 25.2296 484.774 25.1697L487.125 23.9554C487.151 23.942 487.178 23.9308 487.206 23.9219L491.2 22.6329C491.251 22.6163 491.3 22.5921 491.344 22.561L496.357 19.0149C496.398 18.9862 496.434 18.9519 496.466 18.913L498.369 16.5333C498.438 16.4472 498.532 16.3846 498.638 16.3543L501.75 15.4652C501.948 15.4087 502.161 15.4714 502.296 15.6262L505.673 19.4857L510.193 24.4809C510.263 24.558 510.354 24.6129 510.455 24.6388L515.346 25.9016C515.409 25.918 515.475 25.9225 515.54 25.9149L521.05 25.2683C521.081 25.2646 521.113 25.2637 521.145 25.2656L531.854 25.924C531.881 25.9256 531.907 25.9292 531.933 25.9349L540.993 27.8841C541.094 27.9059 541.2 27.8976 541.297 27.8601L546.239 25.946C546.273 25.933 546.305 25.9166 546.335 25.897L550.115 23.4576C550.29 23.3444 550.516 23.3444 550.691 23.4576L553.043 24.9755C553.289 25.1343 553.617 25.0641 553.776 24.8185L556.541 20.5626C556.562 20.5303 556.579 20.4958 556.593 20.4597L557.48 18.0943C557.666 17.5979 558.385 17.6505 558.497 18.1688L560.159 25.871C560.167 25.9079 560.171 25.9454 560.171 25.9831V37.4536C560.171 38.004 560.906 38.1912 561.169 37.708L563.217 33.9539C563.243 33.9059 563.262 33.8542 563.272 33.8006L564.728 26.2907C564.77 26.0719 564.945 25.9028 565.165 25.8673L568.764 25.2866C568.86 25.271 568.951 25.2288 569.025 25.1648L571.804 22.7738C571.926 22.6689 572.088 22.6249 572.247 22.654L575.353 23.227C575.507 23.2553 575.665 23.2146 575.786 23.1157L580.223 19.4857L583.981 16.1972C584.183 16.0201 584.486 16.0222 584.686 16.2022L589.418 20.4609C589.457 20.4961 589.491 20.5369 589.518 20.5821L591.485 23.8547C591.517 23.908 591.558 23.9553 591.607 23.9944L595.445 27.0907C595.572 27.1937 595.74 27.2319 595.9 27.1945L601.242 25.9405C601.282 25.9311 601.323 25.9264 601.364 25.9264H607.986L618.157 27.2394C618.231 27.2489 618.305 27.2429 618.377 27.2217L624.817 25.3031C624.906 25.2766 625 25.2739 625.09 25.295L630.48 26.5602C630.564 26.5799 630.651 26.5789 630.735 26.5574L635.616 25.297C635.704 25.2745 635.795 25.2745 635.882 25.297L638.255 25.9096C638.298 25.9208 638.343 25.9264 638.387 25.9264H639.957C640.203 25.9264 640.417 25.7579 640.474 25.5189L641.919 19.4857L642.478 17.2479C642.609 16.7241 643.347 16.7069 643.503 17.2241L644.467 20.4393C644.482 20.4888 644.49 20.5403 644.49 20.592V25.9264L644.941 36.0688C644.963 36.5587 645.58 36.76 645.886 36.377L646.983 35.0064C647.034 34.9428 647.069 34.8684 647.087 34.789L648.541 28.1956C648.58 28.0219 648.702 27.8789 648.868 27.8147L653.672 25.9544C653.72 25.9359 653.765 25.9105 653.805 25.879L656.219 24.0093C656.282 23.9606 656.355 23.9266 656.433 23.9099L659.258 23.3021C659.351 23.2821 659.436 23.2378 659.506 23.1736L663.513 19.4857L667.853 14.6628C668.02 14.4769 668.295 14.4329 668.512 14.5569L671.599 16.3211C671.69 16.3731 671.764 16.451 671.811 16.5448L673.774 20.4709C673.788 20.4996 673.805 20.5269 673.824 20.5525L676.323 23.8782C676.352 23.9161 676.385 23.95 676.422 23.9791L681.286 27.7459C681.424 27.8533 681.607 27.8853 681.774 27.8314L685.541 26.6158C685.594 26.5988 685.649 26.5901 685.704 26.5901H694.875L701.559 27.2538L707.131 27.9078C707.186 27.9142 707.242 27.912 707.296 27.9012L713.857 26.5983C713.884 26.5929 713.911 26.5853 713.937 26.5756L717.325 25.3263C717.436 25.2851 717.558 25.2826 717.671 25.3191L719.239 25.8249C719.431 25.887 719.643 25.8343 719.783 25.6888L722.003 23.3969C722.081 23.3155 722.132 23.2111 722.147 23.0988L722.576 19.9455C722.611 19.6821 722.836 19.4857 723.102 19.4857H723.188C723.46 19.4857 723.688 19.691 723.716 19.9614L724.695 29.2543L726.208 37.8297C726.227 37.937 726.278 38.0359 726.355 38.113L727.616 39.3734C727.911 39.6684 728.415 39.5237 728.509 39.1172L729.836 33.3674L730.329 28.1467C730.342 28.0005 730.416 27.8665 730.532 27.7766L732.847 25.9834C732.896 25.9457 732.951 25.9168 733.009 25.8978L734.826 25.3117C734.925 25.2797 735.012 25.2195 735.077 25.1384L737.389 22.2553C737.489 22.1296 737.642 22.0564 737.803 22.0564H740.317C740.512 22.0564 740.691 21.9502 740.784 21.7795L743.689 16.4541C743.708 16.4188 743.731 16.3857 743.758 16.3556L747.5 12.1455C747.686 11.9363 748.003 11.9073 748.223 12.0791L752.377 15.3096C752.43 15.3513 752.476 15.4027 752.51 15.4613L756.025 21.4868C756.046 21.5236 756.072 21.5578 756.102 21.5884L759.499 25.1008C759.599 25.2043 759.737 25.2627 759.881 25.2627H766.797C766.835 25.2627 766.872 25.2587 766.909 25.2508L772.968 23.9472C773.005 23.9393 773.042 23.9353 773.08 23.9353H782.21C782.255 23.9353 782.3 23.941 782.343 23.9522L787.299 25.2318C787.378 25.2521 787.451 25.2904 787.513 25.3435L788.889 26.5276C788.937 26.5689 788.992 26.6014 789.052 26.6233L792.377 27.8497C792.495 27.8935 792.626 27.8935 792.744 27.8497L795.938 26.6717C796.079 26.6198 796.235 26.6298 796.368 26.6993L800.2 28.7025C800.248 28.7275 800.292 28.7595 800.33 28.7976L800.648 29.1153C800.937 29.405 801.432 29.2716 801.537 28.8755L802.843 23.9353L803.338 21.7956C803.465 21.243 804.254 21.2482 804.374 21.8025L805.402 26.5344C805.41 26.5715 805.414 26.6079 805.414 26.6458C805.414 29.0956 805.414 33.9874 805.414 34.3956C805.414 34.8069 805.414 38.3373 805.414 40.0511V41.1467C805.414 41.7205 806.186 41.8815 806.409 41.3527C806.961 40.0408 807.47 38.7593 807.47 38.5087C807.47 37.9946 807.47 35.4239 807.985 34.3956C808.383 33.5983 809.458 31.7704 809.992 30.8785C810.024 30.8244 810.066 30.7765 810.116 30.7371L812.466 28.8566C812.56 28.7812 812.677 28.7402 812.798 28.7402H814.365C814.553 28.7402 814.727 28.641 814.823 28.4793L816.68 25.338C816.71 25.2881 816.747 25.2435 816.791 25.2057L818.118 24.0639C818.214 23.9809 818.337 23.9353 818.464 23.9353H820.08C820.235 23.9353 820.382 23.8676 820.483 23.75L825.412 18.0049C825.447 17.9641 825.488 17.9288 825.534 17.9003L829.277 15.5609C829.459 15.447 829.692 15.4536 829.866 15.5789C831.139 16.4922 833.311 18.0768 833.691 18.4574C834.095 18.8608 836.838 23.0002 838.237 25.1381C838.291 25.2205 838.366 25.2849 838.455 25.3268L843.745 27.8099C843.89 27.878 844.058 27.877 844.202 27.8072L847.918 26.0085C848.027 25.9554 848.152 25.9416 848.27 25.9695L853.626 27.2265C853.703 27.2445 853.781 27.2456 853.858 27.229C855.953 26.7792 860.023 25.9264 860.426 25.9264C860.83 25.9264 864.241 26.3529 865.986 26.5778C866.05 26.5861 866.114 26.5825 866.177 26.5675L874.22 24.648C874.278 24.6342 874.337 24.63 874.396 24.6363C876.48 24.8547 880.478 25.403 880.478 25.9264C880.478 26.5901 883.562 17.4292 883.562 16.915C883.562 16.5037 885.105 37.4805 886.133 37.9946C887.087 38.4717 889.37 27.6714 889.694 26.1127C889.719 25.9883 889.787 25.8836 889.888 25.8058L892.094 24.0969C892.226 23.9951 892.397 23.9607 892.557 24.0039L894.72 24.5858C894.82 24.6127 894.926 24.6098 895.024 24.5773L898.917 23.2944C898.963 23.2793 899.007 23.258 899.047 23.2311L903.039 20.5544C903.079 20.5276 903.115 20.4955 903.147 20.4589L906.184 16.915L908.926 14.1733C909.12 13.979 909.431 13.9649 909.642 14.1408L912.269 16.3298C912.325 16.3767 912.371 16.4347 912.404 16.5003L915.439 22.5705L917.901 26.421C917.971 26.53 918.078 26.6098 918.202 26.6455L922.465 27.8683C922.576 27.9002 922.695 27.8949 922.803 27.853L927.685 25.9623C927.747 25.9386 927.812 25.9264 927.877 25.9264H934.976L940.58 26.5841C940.614 26.5881 940.648 26.5955 940.681 26.6061L944.555 27.8563C944.677 27.8958 944.81 27.8895 944.928 27.8387L950.914 25.2627L955.167 22.7882C955.385 22.6615 955.662 22.7053 955.83 22.8931L958.91 26.3329C959.05 26.4893 959.269 26.5486 959.469 26.4841L960.887 26.0265C961.077 25.9651 961.217 25.8021 961.248 25.6047L962.217 19.5384C962.222 19.5035 962.233 19.4696 962.249 19.438C962.4 19.1351 962.852 19.2067 962.902 19.5416L964.276 28.701C964.28 28.7271 964.282 28.7534 964.282 28.7798V36.3996C964.282 36.4346 964.285 36.4695 964.292 36.5038L965.006 40.0753C965.105 40.5713 965.776 40.6611 966.002 40.2086L966.796 38.6209C966.833 38.5471 966.852 38.4658 966.852 38.3833V34.9752C966.852 34.9317 966.858 34.8885 966.868 34.8463L967.881 30.7967L968.815 27.5767C968.872 27.3795 969.038 27.233 969.241 27.2003L972.89 26.6114C972.977 26.5974 973.058 26.5623 973.128 26.5091L975.593 24.6271L977.408 23.4307C977.558 23.3315 977.749 23.3154 977.914 23.3879L980.684 24.6049C980.717 24.6197 980.752 24.6309 980.788 24.6384L986.655 25.8741C986.812 25.9072 986.976 25.8674 987.1 25.7659L991.017 22.5705" stroke="#E02D2D" stroke-width="1.0625" stroke-linecap="round"/>
</svg>
