<svg width="3" height="13" viewBox="0 0 3 13" fill="none" xmlns="http://www.w3.org/2000/svg">
<path d="M0.817562 0.116148C0.99185 0.0393965 1.18023 -0.000161822 1.37067 4.97514e-07C1.56098 4.67407e-05 1.7492 0.0397583 1.92331 0.116602C2.09742 0.193446 2.2536 0.305734 2.3819 0.446305C2.51019 0.586877 2.60777 0.752644 2.66843 0.933034C2.72908 1.11342 2.75147 1.30447 2.73417 1.494L2.18817 7.503C2.16694 7.70503 2.07166 7.89204 1.92071 8.02796C1.76975 8.16389 1.57381 8.23911 1.37067 8.23911C1.16753 8.23911 0.971593 8.16389 0.820635 8.02796C0.669678 7.89204 0.574397 7.70503 0.553171 7.503L0.00567099 1.494C-0.0116418 1.30435 0.0107901 1.11317 0.0715337 0.932679C0.132277 0.752186 0.229997 0.586347 0.358451 0.445752C0.486906 0.305158 0.643273 0.1929 0.817562 0.116148Z" fill="white"/>
<path d="M2.67921 10.8038C2.67921 11.5264 2.09338 12.1122 1.37073 12.1122C0.648071 12.1122 0.0622425 11.5264 0.0622425 10.8038C0.0622425 10.0811 0.648071 9.49527 1.37073 9.49527C2.09338 9.49527 2.67921 10.0811 2.67921 10.8038Z" fill="white"/>
</svg>
