<svg width="20" height="20" viewBox="0 0 20 20" fill="none" xmlns="http://www.w3.org/2000/svg">
<path d="M9.1669 16.6673C8.93078 16.6673 8.73287 16.5875 8.57315 16.4277C8.41342 16.268 8.33356 16.0701 8.33356 15.834V10.834L3.50023 4.66732C3.2919 4.38954 3.26065 4.09787 3.40648 3.79232C3.55231 3.48676 3.80579 3.33398 4.1669 3.33398H15.8336C16.1947 3.33398 16.4481 3.48676 16.594 3.79232C16.7398 4.09787 16.7086 4.38954 16.5002 4.66732L11.6669 10.834V15.834C11.6669 16.0701 11.587 16.268 11.4273 16.4277C11.2676 16.5875 11.0697 16.6673 10.8336 16.6673H9.1669ZM10.0002 10.2507L14.1252 5.00065H5.87523L10.0002 10.2507Z" fill="currentColor"/>
</svg>
