<svg width="24" height="24" viewBox="0 0 24 24" fill="none" xmlns="http://www.w3.org/2000/svg">
<path d="M13.5714 21.4982C13.0662 21.4982 12.5886 21.3918 12.1386 21.179C11.6886 20.9661 11.3123 20.6604 11.0096 20.2617L5.91563 13.6635L6.28488 13.2695C6.53472 13.0028 6.83372 12.8426 7.18188 12.7887C7.52988 12.7347 7.8558 12.8007 8.15963 12.9867L10.5964 14.2945V4.24822C10.5964 4.03572 10.6683 3.85764 10.8121 3.71397C10.9558 3.57014 11.134 3.49822 11.3466 3.49822C11.5591 3.49822 11.7398 3.57014 11.8886 3.71397C12.0373 3.85764 12.1116 4.03572 12.1116 4.24822V16.9425L9.10963 15.3077L12.2289 19.3732C12.393 19.5899 12.5931 19.7482 12.8289 19.8482C13.0649 19.9482 13.3124 19.9982 13.5714 19.9982H18.4904C19.1174 19.9982 19.6507 19.78 20.0904 19.3435C20.5302 18.9068 20.7501 18.3751 20.7501 17.7482V10.5942C20.7501 10.3819 20.8221 10.2038 20.9659 10.06C21.1097 9.9163 21.2879 9.84447 21.5004 9.84447C21.7131 9.84447 21.8911 9.9163 22.0346 10.06C22.1783 10.2038 22.2501 10.3819 22.2501 10.5942V17.7482C22.2501 18.7841 21.882 19.6681 21.1456 20.4002C20.4095 21.1322 19.5244 21.4982 18.4904 21.4982H13.5714ZM13.9809 13.0945V7.76747C13.9809 7.55497 14.0528 7.3768 14.1966 7.23297C14.3405 7.0893 14.5186 7.01747 14.7311 7.01747C14.9438 7.01747 15.1219 7.0893 15.2654 7.23297C15.409 7.3768 15.4809 7.55497 15.4809 7.76747V13.0945H13.9809ZM17.3654 13.0945V8.92122C17.3654 8.70872 17.4373 8.53064 17.5811 8.38697C17.725 8.24314 17.9032 8.17122 18.1159 8.17122C18.3284 8.17122 18.5065 8.24314 18.6501 8.38697C18.7936 8.53064 18.8654 8.70872 18.8654 8.92122V13.0945H17.3654ZM2.39063 8.84947C1.75847 8.23114 1.44238 7.47364 1.44238 6.57697C1.44238 5.91164 1.6443 5.31355 2.04813 4.78272C2.45213 4.25205 2.86947 3.73289 3.30013 3.22522L4.69238 1.63672L6.07513 3.24047C6.50597 3.74814 6.92488 4.2643 7.33188 4.78897C7.73888 5.31347 7.94238 5.90947 7.94238 6.57697C7.94238 7.47364 7.62638 8.23114 6.99438 8.84947C6.36238 9.4678 5.59505 9.77697 4.69238 9.77697C3.78988 9.77697 3.02263 9.4678 2.39063 8.84947ZM5.92813 7.77872C6.27097 7.44655 6.44238 7.04597 6.44238 6.57697C6.44238 6.09497 6.28022 5.67389 5.95588 5.31372C5.63155 4.95339 5.30655 4.59697 4.98088 4.24447L4.68288 3.92697L4.40388 4.24447C4.08505 4.60814 3.7618 4.9673 3.43413 5.32197C3.1063 5.67664 2.94238 6.09497 2.94238 6.57697C2.94238 7.04597 3.11388 7.44655 3.45688 7.77872C3.79988 8.11089 4.21172 8.27697 4.69238 8.27697C5.17322 8.27697 5.58513 8.11089 5.92813 7.77872Z" fill="#7F7F7F"/>
</svg>
