<svg width="32" height="32" viewBox="0 0 32 32" fill="none" xmlns="http://www.w3.org/2000/svg">
<rect width="32" height="32" rx="16" fill="#CFF7D3"/>
<path d="M16 20C17.25 20 18.3125 19.5625 19.1875 18.6875C20.0625 17.8125 20.5 16.75 20.5 15.5C20.5 14.25 20.0625 13.1875 19.1875 12.3125C18.3125 11.4375 17.25 11 16 11C14.75 11 13.6875 11.4375 12.8125 12.3125C11.9375 13.1875 11.5 14.25 11.5 15.5C11.5 16.75 11.9375 17.8125 12.8125 18.6875C13.6875 19.5625 14.75 20 16 20ZM16 18.2C15.25 18.2 14.6125 17.9375 14.0875 17.4125C13.5625 16.8875 13.3 16.25 13.3 15.5C13.3 14.75 13.5625 14.1125 14.0875 13.5875C14.6125 13.0625 15.25 12.8 16 12.8C16.75 12.8 17.3875 13.0625 17.9125 13.5875C18.4375 14.1125 18.7 14.75 18.7 15.5C18.7 16.25 18.4375 16.8875 17.9125 17.4125C17.3875 17.9375 16.75 18.2 16 18.2ZM16 23C13.5667 23 11.35 22.3208 9.35 20.9625C7.35 19.6042 5.9 17.7833 5 15.5C5.9 13.2167 7.35 11.3958 9.35 10.0375C11.35 8.67917 13.5667 8 16 8C18.4333 8 20.65 8.67917 22.65 10.0375C24.65 11.3958 26.1 13.2167 27 15.5C26.1 17.7833 24.65 19.6042 22.65 20.9625C20.65 22.3208 18.4333 23 16 23ZM16 21C17.8833 21 19.6125 20.5042 21.1875 19.5125C22.7625 18.5208 23.9667 17.1833 24.8 15.5C23.9667 13.8167 22.7625 12.4792 21.1875 11.4875C19.6125 10.4958 17.8833 10 16 10C14.1167 10 12.3875 10.4958 10.8125 11.4875C9.2375 12.4792 8.03333 13.8167 7.2 15.5C8.03333 17.1833 9.2375 18.5208 10.8125 19.5125C12.3875 20.5042 14.1167 21 16 21Z" fill="#009951"/>
</svg>
