<svg width="24" height="24" viewBox="0 0 24 24" fill="none" xmlns="http://www.w3.org/2000/svg">
<path d="M12.2885 19.4983C12.0437 19.4983 11.835 19.4121 11.6625 19.2396C11.4902 19.0673 11.404 18.8586 11.404 18.6136V14.6906C11.404 14.4458 11.4902 14.2371 11.6625 14.0646C11.835 13.8923 12.0437 13.8061 12.2885 13.8061H14.7115C14.9563 13.8061 15.165 13.8923 15.3375 14.0646C15.51 14.2371 15.5962 14.4458 15.5962 14.6906V18.6136C15.5962 18.8586 15.51 19.0673 15.3375 19.2396C15.165 19.4121 14.9563 19.4983 14.7115 19.4983H12.2885ZM12.5963 18.3061H14.404V14.9983H12.5963V18.3061ZM17.0962 21.8446V19.2868C17.0962 19.0355 17.1808 18.8253 17.35 18.6561C17.5192 18.4868 17.7294 18.4021 17.9808 18.4021H20.1155V17.3446H17.0962V16.1521H20.423C20.6743 16.1521 20.8846 16.2368 21.0538 16.4061C21.2231 16.5753 21.3078 16.7855 21.3078 17.0368V18.7098C21.3078 18.9612 21.2231 19.1714 21.0538 19.3406C20.8846 19.5099 20.6743 19.5946 20.423 19.5946H18.2885V20.6521H21.3078V21.8446H17.0962ZM9.2115 21.4578C7.25133 21.2695 5.64267 20.4561 4.3855 19.0176C3.1285 17.5791 2.5 15.8393 2.5 13.7983C2.5 12.247 3.12083 10.5467 4.3625 8.69735C5.60417 6.84801 7.48333 4.83301 10 2.65234C11.9372 4.32018 13.4971 5.90409 14.6798 7.40409C15.8624 8.90409 16.6647 10.3073 17.0865 11.6136H15.5212C15.1161 10.6086 14.4529 9.52309 13.5318 8.35709C12.6106 7.19093 11.4333 5.95468 10 4.64834C8.01667 6.46501 6.52083 8.14001 5.5125 9.67335C4.50417 11.2067 4 12.5817 4 13.7983C4 15.4368 4.48333 16.8233 5.45 17.9578C6.41667 19.0925 7.6705 19.7541 9.2115 19.9426V21.4578Z" fill="#7F7F7F"/>
</svg>
