<svg width="24" height="24" viewBox="0 0 24 24" fill="none" xmlns="http://www.w3.org/2000/svg">
<path d="M2.5 9.05775V6.30775C2.5 5.80258 2.675 5.375 3.025 5.025C3.375 4.675 3.80258 4.5 4.30775 4.5H19.6923C20.1974 4.5 20.625 4.675 20.975 5.025C21.325 5.375 21.5 5.80258 21.5 6.30775V11.8078H20V6.30775C20 6.23075 19.9679 6.16025 19.9038 6.09625C19.8398 6.03208 19.7693 6 19.6923 6H4.30775C4.23075 6 4.16025 6.03208 4.09625 6.09625C4.03208 6.16025 4 6.23075 4 6.30775V9.05775H2.5ZM7 16.75C6.85517 16.75 6.72183 16.717 6.6 16.651C6.47817 16.585 6.38525 16.4827 6.32125 16.3442L4.52875 12.75H2.5V11.25H5C5.1385 11.25 5.26858 11.2846 5.39025 11.3537C5.51208 11.4231 5.60508 11.527 5.66925 11.6655L7 14.3173L10.3213 7.6655C10.3853 7.54367 10.4798 7.45225 10.6048 7.39125C10.7298 7.33042 10.8615 7.3 11 7.3C11.1385 7.3 11.2686 7.33042 11.3903 7.39125C11.5121 7.45225 11.6051 7.54367 11.6692 7.6655L13.498 11.3135C13.275 11.4583 13.0597 11.6068 12.852 11.7588C12.6443 11.9106 12.4527 12.0795 12.277 12.2655L10.9905 9.69225L7.66925 16.3442C7.60508 16.4827 7.51208 16.585 7.39025 16.651C7.26858 16.717 7.1385 16.75 7 16.75ZM10.8098 19.5H4.30775C3.80258 19.5 3.375 19.325 3.025 18.975C2.675 18.625 2.5 18.1974 2.5 17.6923V14.9423H4V17.6923C4 17.7692 4.03208 17.8398 4.09625 17.9038C4.16025 17.9679 4.23075 18 4.30775 18H10.3828C10.4262 18.2667 10.482 18.5234 10.55 18.7703C10.618 19.0169 10.7046 19.2602 10.8098 19.5ZM13.8135 20.1865C12.9378 19.3108 12.5 18.2487 12.5 17C12.5 15.7513 12.9378 14.6892 13.8135 13.8135C14.6892 12.9378 15.7513 12.5 17 12.5C18.2487 12.5 19.3108 12.9378 20.1865 13.8135C21.0622 14.6892 21.5 15.7513 21.5 17C21.5 18.2487 21.0622 19.3108 20.1865 20.1865C19.3108 21.0622 18.2487 21.5 17 21.5C15.7513 21.5 14.6892 21.0622 13.8135 20.1865ZM17.2 17.423L19.302 15.3212L18.6788 14.698L16.577 16.8L17.2 17.423Z" fill="#7F7F7F"/>
</svg>
