<svg width="24" height="24" viewBox="0 0 24 24" fill="none" xmlns="http://www.w3.org/2000/svg">
<path d="M15.8595 8.97312L18.725 6.20013L17.8 5.27513L14.9962 8.08862L15.8595 8.97312ZM3.5 20.5001V16.4424L12.348 7.59438L10.7308 5.98663L11.8 4.93288L13.927 7.03488L17.2098 3.74238C17.2803 3.67188 17.3668 3.61646 17.4693 3.57612C17.5718 3.53579 17.6769 3.51562 17.7848 3.51562C17.8988 3.51562 18.0028 3.53579 18.097 3.57612C18.1913 3.61646 18.2821 3.67188 18.3693 3.74238L20.2577 5.64062C20.3283 5.72129 20.3837 5.80879 20.424 5.90313C20.4643 5.99729 20.4845 6.10137 20.4845 6.21537C20.4845 6.32321 20.4643 6.42837 20.424 6.53087C20.3837 6.63337 20.3283 6.71987 20.2577 6.79037L16.9557 10.0924L18.5673 11.7444L17.5135 12.7981L13.4173 8.66362L5 17.0464V19.0001H6.39625C6.53075 19.277 6.673 19.5388 6.823 19.7856C6.973 20.0325 7.13075 20.2706 7.29625 20.5001H3.5ZM15.0673 22.5001C13.6981 22.5001 12.4343 22.1434 11.276 21.4299C10.1177 20.7164 9.23725 19.7462 8.63475 18.5194C9.23725 17.2924 10.1177 16.3222 11.276 15.6089C12.4343 14.8954 13.6981 14.5386 15.0673 14.5386C16.4366 14.5386 17.7004 14.8954 18.8587 15.6089C20.0169 16.3222 20.8973 17.2924 21.5 18.5194C20.8973 19.7462 20.0169 20.7164 18.8587 21.4299C17.7004 22.1434 16.4366 22.5001 15.0673 22.5001ZM17.7212 20.3406C18.5532 19.9008 19.2423 19.2937 19.7885 18.5194C19.2423 17.745 18.5532 17.138 17.7212 16.6981C16.8891 16.2585 16.0044 16.0386 15.0673 16.0386C14.1301 16.0386 13.2455 16.2585 12.4135 16.6981C11.5815 17.138 10.8924 17.745 10.3463 18.5194C10.8924 19.2937 11.5815 19.9008 12.4135 20.3406C13.2455 20.7803 14.1301 21.0001 15.0673 21.0001C16.0044 21.0001 16.8891 20.7803 17.7212 20.3406ZM14.1827 19.4039C13.9391 19.1604 13.8173 18.8655 13.8173 18.5194C13.8173 18.1732 13.9391 17.8784 14.1827 17.6349C14.4263 17.3912 14.7211 17.2694 15.0673 17.2694C15.4134 17.2694 15.7083 17.3912 15.952 17.6349C16.1955 17.8784 16.3173 18.1732 16.3173 18.5194C16.3173 18.8655 16.1955 19.1604 15.952 19.4039C15.7083 19.6475 15.4134 19.7694 15.0673 19.7694C14.7211 19.7694 14.4263 19.6475 14.1827 19.4039Z" fill="#7F7F7F"/>
</svg>
