<svg width="24" height="24" viewBox="0 0 24 24" fill="none" xmlns="http://www.w3.org/2000/svg">
<path d="M12.2463 18.8446C12.4206 18.8279 12.5642 18.7632 12.677 18.6503C12.7898 18.5375 12.8462 18.4003 12.8462 18.2388C12.8462 18.0503 12.784 17.9013 12.6595 17.7916C12.5352 17.6819 12.3788 17.6354 12.1905 17.6521C11.5072 17.7021 10.7629 17.5018 9.95775 17.0513C9.15258 16.6007 8.65 15.817 8.45 14.7003C8.41667 14.5298 8.34517 14.3958 8.2355 14.2983C8.126 14.2008 7.99558 14.1521 7.84425 14.1521C7.66225 14.1521 7.51067 14.2204 7.3895 14.3571C7.26833 14.4936 7.2295 14.6688 7.273 14.8828C7.5435 16.3355 8.19742 17.374 9.23475 17.9983C10.2719 18.6227 11.2758 18.9048 12.2463 18.8446ZM6.64325 19.2926C5.21442 17.8221 4.5 15.9907 4.5 13.7983C4.5 12.247 5.12083 10.5467 6.3625 8.69735C7.60417 6.84801 9.48333 4.83301 12 2.65234C14.5167 4.83301 16.3958 6.84801 17.6375 8.69735C18.8792 10.5467 19.5 12.247 19.5 13.7983C19.5 15.9907 18.7856 17.8221 17.3568 19.2926C15.9279 20.7631 14.1423 21.4983 12 21.4983C9.85767 21.4983 8.07208 20.7631 6.64325 19.2926ZM16.3 18.2358C17.4333 17.0608 18 15.5817 18 13.7983C18 12.5817 17.4958 11.2067 16.4875 9.67334C15.4792 8.14001 13.9833 6.46501 12 4.64834C10.0167 6.46501 8.52083 8.14001 7.5125 9.67334C6.50417 11.2067 6 12.5817 6 13.7983C6 15.5817 6.56667 17.0608 7.7 18.2358C8.83333 19.4108 10.2667 19.9983 12 19.9983C13.7333 19.9983 15.1667 19.4108 16.3 18.2358Z" fill="#7F7F7F"/>
</svg>
