<svg width="19" height="19" viewBox="0 0 19 19" fill="none" xmlns="http://www.w3.org/2000/svg">
<path d="M2.75 18.5C1.977 18.5 1.32542 18.2349 0.79525 17.7048C0.265083 17.1746 0 16.523 0 15.75V11.623L2.529 4.8865C2.73533 4.32367 3.08208 3.86858 3.56925 3.52125C4.05642 3.17375 4.59492 3 5.18475 3C5.88975 3 6.49358 3.24358 6.99625 3.73075C7.49875 4.21792 7.75 4.816 7.75 5.525V6.923H6.25V5.525C6.25 5.23133 6.14042 4.98708 5.92125 4.79225C5.70192 4.59742 5.44617 4.5 5.154 4.5C4.87183 4.5 4.62308 4.5875 4.40775 4.7625C4.19225 4.9375 4.03708 5.1545 3.94225 5.4135L1.5 11.8923V15.75C1.5 16.1042 1.61983 16.4011 1.8595 16.6408C2.099 16.8803 2.39583 17 2.75 17H5.75C6.0975 17 6.39267 16.8803 6.6355 16.6408C6.8785 16.4011 7 16.1042 7 15.75V13.75H8.5V15.75C8.5 16.523 8.23075 17.1746 7.69225 17.7048C7.15392 18.2349 6.5065 18.5 5.75 18.5H2.75ZM16.2345 18.5H13.2345C12.4707 18.5 11.8214 18.2349 11.2867 17.7048C10.7519 17.1746 10.4845 16.523 10.4845 15.75V13.75H11.9845V15.75C11.9845 16.1042 12.1043 16.4011 12.344 16.6408C12.5835 16.8803 12.8803 17 13.2345 17H16.2345C16.582 17 16.8773 16.8803 17.1203 16.6408C17.3631 16.4011 17.4845 16.1042 17.4845 15.75V11.8923L15.0328 5.4135C14.9276 5.1545 14.7698 4.9375 14.5595 4.7625C14.3493 4.5875 14.1064 4.5 13.8307 4.5C13.5307 4.5 13.2731 4.59742 13.0577 4.79225C12.8422 4.98708 12.7345 5.23133 12.7345 5.525V6.923H11.2345V5.525C11.2345 4.816 11.4858 4.21792 11.9885 3.73075C12.491 3.24358 13.0948 3 13.8 3C14.3897 3 14.9239 3.17375 15.4028 3.52125C15.8816 3.86858 16.2293 4.32367 16.446 4.8865L18.9845 11.623V15.75C18.9845 16.523 18.7153 17.1746 18.177 17.7048C17.6385 18.2349 16.991 18.5 16.2345 18.5ZM9.5 8.81925L6.9 11.3942L5.85575 10.35L8.75 7.45575V0H10.25V7.45575L13.1443 10.35L12.0845 11.3942L9.5 8.81925Z" fill="#7F7F7F"/>
</svg>
