<svg width="24" height="24" viewBox="0 0 24 24" fill="none" xmlns="http://www.w3.org/2000/svg">
<path d="M12 20.5089C11.7705 20.5089 11.5471 20.466 11.3298 20.3802C11.1124 20.2944 10.9211 20.1655 10.7558 19.9937L4.248 13.4609C3.66467 12.8776 3.2275 12.2158 2.9365 11.4754C2.6455 10.7349 2.5 9.96919 2.5 9.17819C2.5 7.60269 3.00383 6.25594 4.0115 5.13794C5.01917 4.01994 6.26658 3.46094 7.75375 3.46094C8.49608 3.46094 9.20217 3.61127 9.872 3.91194C10.542 4.2126 11.1392 4.63344 11.6635 5.17444L12 5.53019L12.3173 5.19369C12.8378 4.63985 13.4346 4.2126 14.1077 3.91194C14.7808 3.61127 15.4852 3.46094 16.2212 3.46094C17.7084 3.46094 18.96 4.01994 19.976 5.13794C20.992 6.25594 21.5 7.59435 21.5 9.15319C21.5 9.95069 21.3519 10.7196 21.0557 11.4599C20.7596 12.2004 20.325 12.8624 19.752 13.4457L13.2193 19.9937C13.0474 20.1655 12.8586 20.2944 12.6528 20.3802C12.4471 20.466 12.2295 20.5089 12 20.5089ZM13 8.24944C13.1282 8.24944 13.248 8.27985 13.3595 8.34069C13.4712 8.40169 13.559 8.48285 13.623 8.58419L15.3903 11.2494H19.502C19.6763 10.9148 19.8071 10.5712 19.8943 10.2187C19.9814 9.86619 20.0218 9.51102 20.0155 9.15319C19.9885 8.00319 19.6147 7.0221 18.8943 6.20994C18.1738 5.39777 17.2827 4.99169 16.2212 4.99169C15.6917 4.99169 15.1798 5.09652 14.6855 5.30619C14.1913 5.51585 13.7628 5.82194 13.4 6.22444L12.6095 7.07444C12.5327 7.1681 12.4404 7.23769 12.3328 7.28319C12.2251 7.32869 12.1142 7.35144 12 7.35144C11.8858 7.35144 11.7733 7.32702 11.6625 7.27819C11.5517 7.22952 11.4527 7.1616 11.3655 7.07444L10.575 6.22444C10.2122 5.82194 9.78617 5.51069 9.297 5.29069C8.808 5.07085 8.29358 4.96094 7.75375 4.96094C6.69225 4.96094 5.80125 5.37219 5.08075 6.19469C4.36025 7.01702 4 8.00319 4 9.15319C4 9.51735 4.041 9.8741 4.123 10.2234C4.20517 10.5728 4.33017 10.9148 4.498 11.2494H9C9.12817 11.2494 9.24642 11.2799 9.35475 11.3407C9.46308 11.4017 9.54933 11.4829 9.6135 11.5842L10.777 13.3167L12.2905 8.77644C12.3443 8.62127 12.4347 8.49469 12.5615 8.39669C12.6885 8.29852 12.8347 8.24944 13 8.24944ZM13.223 10.6822L11.7095 15.2224C11.6557 15.3776 11.5612 15.5042 11.426 15.6022C11.2907 15.7004 11.1403 15.7494 10.975 15.7494C10.8468 15.7494 10.7286 15.719 10.6202 15.6582C10.5119 15.5972 10.4257 15.516 10.3615 15.4147L8.58475 12.7494H5.6595L11.825 18.9244C11.8583 18.9578 11.8875 18.9786 11.9125 18.9869C11.9375 18.9953 11.9667 18.9994 12 18.9994C12.0333 18.9994 12.0625 18.9953 12.0875 18.9869C12.1125 18.9786 12.1417 18.9578 12.175 18.9244L18.325 12.7494H15C14.8718 12.7494 14.752 12.7174 14.6405 12.6532C14.5288 12.5892 14.4358 12.5065 14.3615 12.4052L13.223 10.6822Z" fill="#7F7F7F"/>
</svg>
