<svg width="14" height="8" viewBox="0 0 14 8" fill="none" xmlns="http://www.w3.org/2000/svg">
<path d="M3.47645 0.103972H5.07108V5.42439C5.07108 5.91619 4.96055 6.34342 4.73949 6.70606C4.52091 7.0687 4.21664 7.34814 3.82667 7.54436C3.43671 7.74058 2.9834 7.8387 2.46676 7.8387C2.00725 7.8387 1.58996 7.75797 1.2149 7.59652C0.842319 7.43259 0.54674 7.1842 0.328161 6.85136C0.109581 6.51604 0.00153357 6.09503 0.00401743 5.58832H1.60983C1.6148 5.78952 1.65578 5.96214 1.73278 6.10621C1.81226 6.24779 1.92031 6.35708 2.05692 6.43408C2.19602 6.50859 2.35995 6.54585 2.54873 6.54585C2.74744 6.54585 2.9151 6.50362 3.05171 6.41917C3.1908 6.33224 3.29637 6.20556 3.3684 6.03914C3.44043 5.87273 3.47645 5.66781 3.47645 5.42439V0.103972ZM13.4168 3.91917C13.4168 4.75126 13.2591 5.45916 12.9437 6.04287C12.6307 6.62658 12.2035 7.07243 11.662 7.38043C11.123 7.68594 10.5169 7.8387 9.84381 7.8387C9.16572 7.8387 8.55717 7.6847 8.01818 7.3767C7.47918 7.0687 7.0532 6.62285 6.74023 6.03914C6.42727 5.45544 6.27078 4.74878 6.27078 3.91917C6.27078 3.08708 6.42727 2.37918 6.74023 1.79548C7.0532 1.21177 7.47918 0.767161 8.01818 0.461647C8.55717 0.153649 9.16572 -0.000350199 9.84381 -0.000350199C10.5169 -0.000350199 11.123 0.153649 11.662 0.461647C12.2035 0.767161 12.6307 1.21177 12.9437 1.79548C13.2591 2.37918 13.4168 3.08708 13.4168 3.91917ZM11.7812 3.91917C11.7812 3.38018 11.7005 2.92563 11.539 2.55554C11.3801 2.18544 11.1553 1.90477 10.8647 1.71351C10.5741 1.52225 10.2338 1.42662 9.84381 1.42662C9.45384 1.42662 9.11356 1.52225 8.82295 1.71351C8.53233 1.90477 8.3063 2.18544 8.14485 2.55554C7.98589 2.92563 7.9064 3.38018 7.9064 3.91917C7.9064 4.45817 7.98589 4.91272 8.14485 5.28281C8.3063 5.6529 8.53233 5.93358 8.82295 6.12484C9.11356 6.31609 9.45384 6.41172 9.84381 6.41172C10.2338 6.41172 10.5741 6.31609 10.8647 6.12484C11.1553 5.93358 11.3801 5.6529 11.539 5.28281C11.7005 4.91272 11.7812 4.45817 11.7812 3.91917Z" fill="white"/>
</svg>
