<svg width="18" height="18" viewBox="0 0 18 18" fill="none" xmlns="http://www.w3.org/2000/svg">
<g clip-path="url(#clip0_8147_72321)">
<path d="M13.9346 7.33242V8.79909C13.9346 10.1605 13.3938 11.4662 12.4311 12.4289C11.4684 13.3916 10.1627 13.9324 8.8013 13.9324M8.8013 13.9324C7.43986 13.9324 6.13417 13.3916 5.17149 12.4289C4.2088 11.4662 3.66797 10.1605 3.66797 8.79909V7.33242M8.8013 13.9324V16.8658M5.86797 16.8658H11.7346M8.8013 0.732422C8.21783 0.732422 7.65825 0.964207 7.24567 1.37679C6.83309 1.78937 6.6013 2.34895 6.6013 2.93242V8.79909C6.6013 9.38257 6.83309 9.94214 7.24567 10.3547C7.65825 10.7673 8.21783 10.9991 8.8013 10.9991C9.38478 10.9991 9.94436 10.7673 10.3569 10.3547C10.7695 9.94214 11.0013 9.38257 11.0013 8.79909V2.93242C11.0013 2.34895 10.7695 1.78937 10.3569 1.37679C9.94436 0.964207 9.38478 0.732422 8.8013 0.732422Z" stroke="currentColor" stroke-width="1.33333" stroke-linecap="round" stroke-linejoin="round"/>
</g>
<defs>
<clipPath id="clip0_8147_72321">
<rect width="17.6" height="17.6" fill="currentColor"/>
</clipPath>
</defs>
</svg>
