<svg width="24" height="24" viewBox="0 0 24 24" fill="none" xmlns="http://www.w3.org/2000/svg">
<path d="M11.3 17.75H12.7C13.5718 17.75 14.2981 17.4823 14.8788 16.947C15.4596 16.4118 15.75 15.7628 15.75 15C15.75 14.2372 15.4596 13.5882 14.8788 13.053C14.2981 12.5177 13.5718 12.25 12.7 12.25H11.3C10.4282 12.25 9.70192 12.5177 9.12125 13.053C8.54042 13.5882 8.25 14.2372 8.25 15C8.25 15.7628 8.54042 16.4118 9.12125 16.947C9.70192 17.4823 10.4282 17.75 11.3 17.75ZM11.3 16.5577C10.7552 16.5577 10.3093 16.4071 9.9625 16.1058C9.61567 15.8044 9.44225 15.4358 9.44225 15C9.44225 14.5642 9.61567 14.1956 9.9625 13.8942C10.3093 13.5929 10.7552 13.4423 11.3 13.4423H12.7C13.2448 13.4423 13.6907 13.5929 14.0375 13.8942C14.3843 14.1956 14.5577 14.5642 14.5577 15C14.5577 15.4358 14.3843 15.8044 14.0375 16.1058C13.6907 16.4071 13.2448 16.5577 12.7 16.5577H11.3ZM6.298 10H8.14425C8.90708 10 9.5625 9.74042 10.1105 9.22125C10.6587 8.70192 10.9488 8.06408 10.9808 7.30775H9.77875C9.74042 7.73075 9.56575 8.0865 9.25475 8.375C8.94392 8.6635 8.57375 8.80775 8.14425 8.80775H6.298V10ZM15.8462 10H17.6923V8.80775H15.8462C15.4167 8.80775 15.0465 8.6635 14.7355 8.375C14.4247 8.0865 14.25 7.73075 14.2115 7.30775H13.0095C13.0417 8.06408 13.3317 8.70192 13.8798 9.22125C14.4279 9.74042 15.0834 10 15.8462 10ZM8.29725 20.751C7.14142 20.2517 6.13592 19.5744 5.28075 18.7193C4.42558 17.8641 3.74833 16.8586 3.249 15.7028C2.74967 14.5471 2.5 13.3128 2.5 12C2.5 10.6872 2.74967 9.45292 3.249 8.29725C3.74833 7.14142 4.42558 6.13592 5.28075 5.28075C6.13592 4.42558 7.14142 3.74833 8.29725 3.249C9.45292 2.74967 10.6872 2.5 12 2.5C13.3128 2.5 14.5471 2.74967 15.7028 3.249C16.8586 3.74833 17.8641 4.42558 18.7193 5.28075C19.5744 6.13592 20.2517 7.14142 20.751 8.29725C21.2503 9.45292 21.5 10.6872 21.5 12C21.5 13.3128 21.2503 14.5471 20.751 15.7028C20.2517 16.8586 19.5744 17.8641 18.7193 18.7193C17.8641 19.5744 16.8586 20.2517 15.7028 20.751C14.5471 21.2503 13.3128 21.5 12 21.5C10.6872 21.5 9.45292 21.2503 8.29725 20.751ZM17.675 17.675C19.225 16.125 20 14.2333 20 12C20 9.76667 19.225 7.875 17.675 6.325C16.125 4.775 14.2333 4 12 4C9.76667 4 7.875 4.775 6.325 6.325C4.775 7.875 4 9.76667 4 12C4 14.2333 4.775 16.125 6.325 17.675C7.875 19.225 9.76667 20 12 20C14.2333 20 16.125 19.225 17.675 17.675Z" fill="#7F7F7F"/>
</svg>
