<svg width="19" height="19" viewBox="0 0 19 19" fill="none" xmlns="http://www.w3.org/2000/svg">
<path d="M8.8 15.25H10.2C11.0718 15.25 11.7981 14.9823 12.3788 14.447C12.9596 13.9118 13.25 13.2628 13.25 12.5C13.25 11.7372 12.9596 11.0882 12.3788 10.553C11.7981 10.0177 11.0718 9.75 10.2 9.75H8.8C7.92817 9.75 7.20192 10.0177 6.62125 10.553C6.04042 11.0882 5.75 11.7372 5.75 12.5C5.75 13.2628 6.04042 13.9118 6.62125 14.447C7.20192 14.9823 7.92817 15.25 8.8 15.25ZM8.8 14.0577C8.25517 14.0577 7.80933 13.9071 7.4625 13.6058C7.11567 13.3044 6.94225 12.9358 6.94225 12.5C6.94225 12.0642 7.11567 11.6956 7.4625 11.3942C7.80933 11.0929 8.25517 10.9423 8.8 10.9423H10.2C10.7448 10.9423 11.1907 11.0929 11.5375 11.3942C11.8843 11.6956 12.0577 12.0642 12.0577 12.5C12.0577 12.9358 11.8843 13.3044 11.5375 13.6058C11.1907 13.9071 10.7448 14.0577 10.2 14.0577H8.8ZM3.798 7.5H5.64425C6.40708 7.5 7.0625 7.24042 7.6105 6.72125C8.15867 6.20192 8.44875 5.56408 8.48075 4.80775H7.27875C7.24042 5.23075 7.06575 5.5865 6.75475 5.875C6.44392 6.1635 6.07375 6.30775 5.64425 6.30775H3.798V7.5ZM13.3462 7.5H15.1923V6.30775H13.3462C12.9167 6.30775 12.5465 6.1635 12.2355 5.875C11.9247 5.5865 11.75 5.23075 11.7115 4.80775H10.5095C10.5417 5.56408 10.8317 6.20192 11.3798 6.72125C11.9279 7.24042 12.5834 7.5 13.3462 7.5ZM5.79725 18.251C4.64142 17.7517 3.63592 17.0744 2.78075 16.2193C1.92558 15.3641 1.24833 14.3586 0.749 13.2028C0.249667 12.0471 0 10.8128 0 9.5C0 8.18717 0.249667 6.95292 0.749 5.79725C1.24833 4.64142 1.92558 3.63592 2.78075 2.78075C3.63592 1.92558 4.64142 1.24833 5.79725 0.749001C6.95292 0.249667 8.18717 0 9.5 0C10.8128 0 12.0471 0.249667 13.2028 0.749001C14.3586 1.24833 15.3641 1.92558 16.2193 2.78075C17.0744 3.63592 17.7517 4.64142 18.251 5.79725C18.7503 6.95292 19 8.18717 19 9.5C19 10.8128 18.7503 12.0471 18.251 13.2028C17.7517 14.3586 17.0744 15.3641 16.2193 16.2193C15.3641 17.0744 14.3586 17.7517 13.2028 18.251C12.0471 18.7503 10.8128 19 9.5 19C8.18717 19 6.95292 18.7503 5.79725 18.251ZM15.175 15.175C16.725 13.625 17.5 11.7333 17.5 9.5C17.5 7.26667 16.725 5.375 15.175 3.825C13.625 2.275 11.7333 1.5 9.5 1.5C7.26667 1.5 5.375 2.275 3.825 3.825C2.275 5.375 1.5 7.26667 1.5 9.5C1.5 11.7333 2.275 13.625 3.825 15.175C5.375 16.725 7.26667 17.5 9.5 17.5C11.7333 17.5 13.625 16.725 15.175 15.175Z" fill="#7F7F7F"/>
</svg>
