<svg width="32" height="32" viewBox="0 0 32 32" fill="none" xmlns="http://www.w3.org/2000/svg">
<path d="M15.9997 16.0007C14.533 16.0007 13.2775 15.4784 12.233 14.434C11.1886 13.3895 10.6663 12.134 10.6663 10.6673C10.6663 9.20065 11.1886 7.9451 12.233 6.90065C13.2775 5.85621 14.533 5.33398 15.9997 5.33398C17.4663 5.33398 18.7219 5.85621 19.7663 6.90065C20.8108 7.9451 21.333 9.20065 21.333 10.6673C21.333 12.134 20.8108 13.3895 19.7663 14.434C18.7219 15.4784 17.4663 16.0007 15.9997 16.0007ZM5.33301 26.6673V22.934C5.33301 22.1784 5.52745 21.484 5.91634 20.8507C6.30523 20.2173 6.8219 19.734 7.46634 19.4007C8.84412 18.7118 10.2441 18.1951 11.6663 17.8507C13.0886 17.5062 14.533 17.334 15.9997 17.334C17.4663 17.334 18.9108 17.5062 20.333 17.8507C21.7552 18.1951 23.1552 18.7118 24.533 19.4007C25.1775 19.734 25.6941 20.2173 26.083 20.8507C26.4719 21.484 26.6663 22.1784 26.6663 22.934V26.6673H5.33301ZM7.99967 24.0007H23.9997V22.934C23.9997 22.6895 23.9386 22.4673 23.8163 22.2673C23.6941 22.0673 23.533 21.9118 23.333 21.8007C22.133 21.2007 20.9219 20.7507 19.6997 20.4507C18.4775 20.1507 17.2441 20.0007 15.9997 20.0007C14.7552 20.0007 13.5219 20.1507 12.2997 20.4507C11.0775 20.7507 9.86634 21.2007 8.66634 21.8007C8.46634 21.9118 8.30523 22.0673 8.18301 22.2673C8.06079 22.4673 7.99967 22.6895 7.99967 22.934V24.0007ZM15.9997 13.334C16.733 13.334 17.3608 13.0729 17.883 12.5507C18.4052 12.0284 18.6663 11.4007 18.6663 10.6673C18.6663 9.93398 18.4052 9.30621 17.883 8.78398C17.3608 8.26176 16.733 8.00065 15.9997 8.00065C15.2663 8.00065 14.6386 8.26176 14.1163 8.78398C13.5941 9.30621 13.333 9.93398 13.333 10.6673C13.333 11.4007 13.5941 12.0284 14.1163 12.5507C14.6386 13.0729 15.2663 13.334 15.9997 13.334Z" fill="#006FFD"/>
</svg>
