<svg width="22" height="27" viewBox="0 0 22 27" fill="none" xmlns="http://www.w3.org/2000/svg">
<path d="M9.33333 21.3333H12V17.3333H16V14.6667H12V10.6667H9.33333V14.6667H5.33333V17.3333H9.33333V21.3333ZM2.66667 26.6667C1.93333 26.6667 1.30556 26.4056 0.783333 25.8833C0.261111 25.3611 0 24.7333 0 24V2.66667C0 1.93333 0.261111 1.30556 0.783333 0.783333C1.30556 0.261111 1.93333 0 2.66667 0H13.3333L21.3333 8V24C21.3333 24.7333 21.0722 25.3611 20.55 25.8833C20.0278 26.4056 19.4 26.6667 18.6667 26.6667H2.66667ZM12 9.33333V2.66667H2.66667V24H18.6667V9.33333H12Z" fill="#006FFD"/>
</svg>
