<svg width="20" height="20" viewBox="0 0 20 20" fill="none" xmlns="http://www.w3.org/2000/svg">
<path d="M10 20C7.20833 20 4.84375 19.0312 2.90625 17.0937C0.96875 15.1562 0 12.7917 0 10C0 7.20833 0.96875 4.84375 2.90625 2.90625C4.84375 0.96875 7.20833 0 10 0C11.4375 0 12.8125 0.297083 14.125 0.89125C15.4375 1.48458 16.5625 2.33333 17.5 3.4375V1.25C17.5 0.895833 17.62 0.59875 17.86 0.35875C18.0992 0.119584 18.3958 0 18.75 0C19.1042 0 19.4008 0.119584 19.64 0.35875C19.88 0.59875 20 0.895833 20 1.25V7.5C20 7.85417 19.88 8.15083 19.64 8.39C19.4008 8.63 19.1042 8.75 18.75 8.75H12.5C12.1458 8.75 11.8492 8.63 11.61 8.39C11.37 8.15083 11.25 7.85417 11.25 7.5C11.25 7.14583 11.37 6.84875 11.61 6.60875C11.8492 6.36958 12.1458 6.25 12.5 6.25H16.5C15.8333 5.08333 14.9221 4.16667 13.7662 3.5C12.6096 2.83333 11.3542 2.5 10 2.5C7.91667 2.5 6.14583 3.22917 4.6875 4.6875C3.22917 6.14583 2.5 7.91667 2.5 10C2.5 12.0833 3.22917 13.8542 4.6875 15.3125C6.14583 16.7708 7.91667 17.5 10 17.5C11.4375 17.5 12.7658 17.1196 13.985 16.3587C15.2033 15.5987 16.1146 14.5833 16.7188 13.3125C16.8229 13.0833 16.995 12.8908 17.235 12.735C17.4742 12.5783 17.7187 12.5 17.9688 12.5C18.4479 12.5 18.8075 12.6667 19.0475 13C19.2867 13.3333 19.3125 13.7083 19.125 14.125C18.3333 15.8958 17.1146 17.3175 15.4688 18.39C13.8229 19.4633 12 20 10 20Z" fill="#006FFD"/>
</svg>
