<svg width="24" height="24" viewBox="0 0 24 24" fill="none" xmlns="http://www.w3.org/2000/svg">
<path d="M5.25 20.75C4.477 20.75 3.82542 20.4849 3.29525 19.9548C2.76508 19.4246 2.5 18.773 2.5 18V13.873L5.029 7.1365C5.23533 6.57367 5.58208 6.11858 6.06925 5.77125C6.55642 5.42375 7.09492 5.25 7.68475 5.25C8.38975 5.25 8.99358 5.49358 9.49625 5.98075C9.99875 6.46792 10.25 7.066 10.25 7.775V9.173H8.75V7.775C8.75 7.48133 8.64042 7.23708 8.42125 7.04225C8.20192 6.84742 7.94617 6.75 7.654 6.75C7.37183 6.75 7.12308 6.8375 6.90775 7.0125C6.69225 7.1875 6.53708 7.4045 6.44225 7.6635L4 14.1423V18C4 18.3542 4.11983 18.6511 4.3595 18.8908C4.599 19.1303 4.89583 19.25 5.25 19.25H8.25C8.5975 19.25 8.89267 19.1303 9.1355 18.8908C9.3785 18.6511 9.5 18.3542 9.5 18V16H11V18C11 18.773 10.7308 19.4246 10.1923 19.9548C9.65392 20.4849 9.0065 20.75 8.25 20.75H5.25ZM18.7345 20.75H15.7345C14.9707 20.75 14.3214 20.4849 13.7867 19.9548C13.2519 19.4246 12.9845 18.773 12.9845 18V16H14.4845V18C14.4845 18.3542 14.6043 18.6511 14.844 18.8908C15.0835 19.1303 15.3803 19.25 15.7345 19.25H18.7345C19.082 19.25 19.3773 19.1303 19.6203 18.8908C19.8631 18.6511 19.9845 18.3542 19.9845 18V14.1423L17.5328 7.6635C17.4276 7.4045 17.2698 7.1875 17.0595 7.0125C16.8493 6.8375 16.6064 6.75 16.3307 6.75C16.0307 6.75 15.7731 6.84742 15.5577 7.04225C15.3422 7.23708 15.2345 7.48133 15.2345 7.775V9.173H13.7345V7.775C13.7345 7.066 13.9858 6.46792 14.4885 5.98075C14.991 5.49358 15.5948 5.25 16.3 5.25C16.8897 5.25 17.4239 5.42375 17.9028 5.77125C18.3816 6.11858 18.7293 6.57367 18.946 7.1365L21.4845 13.873V18C21.4845 18.773 21.2153 19.4246 20.677 19.9548C20.1385 20.4849 19.491 20.75 18.7345 20.75ZM12 11.0693L9.4 13.6442L8.35575 12.6L11.25 9.70575V2.25H12.75V9.70575L15.6443 12.6L14.5845 13.6442L12 11.0693Z" fill="#7F7F7F"/>
</svg>
