<svg width="16" height="16" viewBox="0 0 16 16" fill="none" xmlns="http://www.w3.org/2000/svg">
<mask id="mask0_915_1045" style="mask-type:alpha" maskUnits="userSpaceOnUse" x="0" y="0" width="16" height="16">
<path fill-rule="evenodd" clip-rule="evenodd" d="M6.42704 0.333984C3.06421 0.333984 0.333374 3.03838 0.333374 6.38021C0.333374 9.72204 3.06421 12.4264 6.42704 12.4264C7.68079 12.4264 8.84703 12.0504 9.81632 11.4056L13.7917 15.3483C14.2206 15.7737 14.9149 15.7737 15.3439 15.3483C15.7743 14.9214 15.7743 14.228 15.3439 13.8011L11.3939 9.88377C12.1032 8.89552 12.5207 7.68596 12.5207 6.38021C12.5207 3.03838 9.78988 0.333984 6.42704 0.333984ZM2.53121 6.38021C2.53121 4.25043 4.27283 2.51921 6.42704 2.51921C8.58126 2.51921 10.3229 4.25043 10.3229 6.38021C10.3229 8.50999 8.58126 10.2412 6.42704 10.2412C4.27283 10.2412 2.53121 8.50999 2.53121 6.38021Z" fill="#006FFD"/>
</mask>
<g mask="url(#mask0_915_1045)">
<rect width="16" height="16" fill="#006FFD"/>
</g>
</svg>
