<svg width="69" height="64" viewBox="0 0 69 64" fill="none" xmlns="http://www.w3.org/2000/svg">
<path d="M68.4279 62.9937L45.082 59.7735L61.1827 41.2578L68.4279 62.9937Z" fill="#015DFF"/>
<path d="M68.4281 62.9937L53.9375 50.9182L61.1828 41.2578L68.4281 62.9937Z" fill="#0091F8"/>
<mask id="mask0_7057_35922" style="mask-type:alpha" maskUnits="userSpaceOnUse" x="0" y="0" width="64" height="64">
<circle cx="32" cy="32" r="32" fill="#D9D9D9"/>
</mask>
<g mask="url(#mask0_7057_35922)">
<path d="M55.0238 20.3902C48.7001 15.0097 41.7168 12.8234 36.8251 12.0361C31.6654 10.6586 25.9805 11.2503 20.9948 14.1394C11.8453 19.4412 8.24065 30.6313 12.1855 40.1388C9.54629 36.1082 5.91798 28.4033 6.2734 18.7028C6.52492 11.8272 8.72118 6.25077 11.0875 2.16933C11.9172 1.59123 12.7697 1.03562 13.6605 0.519401C31.0099 -9.53391 53.2241 -3.61889 63.2774 13.7304C68.2845 22.3713 69.3284 32.2181 66.9735 41.1689C66.1238 36.5661 63.4383 27.5491 55.0238 20.3902Z" fill="url(#paint0_linear_7057_35922)"/>
<path d="M47.9652 44.8888C52.9649 38.388 53.8486 29.2566 49.4821 21.7213C46.599 16.7458 41.9738 13.4085 36.825 12.0331C41.7167 12.8204 48.6999 15.0067 55.0237 20.3872C63.1677 27.316 65.9451 35.9854 66.8856 40.7086C66.9456 41.0096 66.9338 41.3201 66.852 41.6159C64.4057 50.4569 58.6301 58.3819 50.0667 63.3441C40.8088 68.7087 30.1684 69.522 20.7283 66.4797C18.6153 65.7987 19.3903 62.8272 21.5911 62.5357C25.272 62.0481 29.3631 60.9269 33.5226 58.7119C40.8348 54.8182 45.4306 49.1456 47.9652 44.8888Z" fill="url(#paint1_linear_7057_35922)"/>
<path d="M4.15846 8.46651C5.60038 6.76454 8.05555 8.64977 7.47132 10.8026C6.82057 13.2005 6.37881 15.8376 6.27411 18.7C5.92338 28.2722 9.4517 35.9012 12.081 39.9741C12.1516 40.0834 12.2111 40.1966 12.2619 40.3164C12.5937 41.0986 12.9731 41.8701 13.4101 42.6243C19.182 52.585 31.937 55.9811 41.8981 50.2089C44.3235 48.8036 46.3561 46.9814 47.9661 44.8889C45.4314 49.1457 40.8357 54.8183 33.5234 58.7121C25.6204 62.9205 17.964 63.1804 12.8999 62.6482C12.59 62.6157 12.2924 62.5101 12.0313 62.3401C7.41041 59.3321 3.40357 55.2302 0.450469 50.134C-7.45512 36.491 -5.48155 19.8452 4.15846 8.46651Z" fill="url(#paint2_linear_7057_35922)"/>
</g>
<path d="M34.7559 32.1309L27.5879 39.3438L27.4902 35.9922H19.3203V28.0371H27.4971L27.5879 24.918L34.7559 32.1309Z" fill="#040035"/>
<path d="M36.3301 27.8877H44.6787V36.1299H36.3301V44.6865H27.8252V41.3154L36.9609 32.124L27.8252 22.9316V19.3281H36.3301V27.8877Z" fill="url(#paint3_linear_7057_35922)"/>
<defs>
<linearGradient id="paint0_linear_7057_35922" x1="50.2955" y1="11.7742" x2="0.864934" y2="22.3245" gradientUnits="userSpaceOnUse">
<stop stop-color="#00BDF2"/>
<stop offset="1" stop-color="#015DFF"/>
</linearGradient>
<linearGradient id="paint1_linear_7057_35922" x1="48.9923" y1="53.5639" x2="57.3978" y2="32.4414" gradientUnits="userSpaceOnUse">
<stop stop-color="#00BDF2"/>
<stop offset="1" stop-color="#015DFF"/>
</linearGradient>
<linearGradient id="paint2_linear_7057_35922" x1="31.4204" y1="59.9576" x2="16.36" y2="44.9256" gradientUnits="userSpaceOnUse">
<stop stop-color="#015DFF"/>
<stop offset="1" stop-color="#00BDF2"/>
</linearGradient>
<linearGradient id="paint3_linear_7057_35922" x1="36.252" y1="19.3281" x2="36.2411" y2="50.9012" gradientUnits="userSpaceOnUse">
<stop stop-color="#00BDF2"/>
<stop offset="1" stop-color="#015DFF"/>
</linearGradient>
</defs>
</svg>
