<svg width="23" height="23" viewBox="0 0 23 23" fill="none" xmlns="http://www.w3.org/2000/svg">
<g clip-path="url(#clip0_8147_111680)">
<path d="M22.5 11.022C19.6458 11.1972 16.9541 12.41 14.932 14.432C12.91 16.4541 11.6972 19.1458 11.522 22H11.478C11.3031 19.1457 10.0904 16.4538 8.06828 14.4317C6.04617 12.4096 3.35434 11.1969 0.5 11.022L0.5 10.978C3.35434 10.8031 6.04617 9.59038 8.06828 7.56828C10.0904 5.54617 11.3031 2.85434 11.478 0L11.522 0C11.6972 2.85424 12.91 5.54591 14.932 7.56795C16.9541 9.59 19.6458 10.8028 22.5 10.978V11.022Z" fill="url(#paint0_radial_8147_111680)"/>
<g clip-path="url(#clip1_8147_111680)">
<path d="M22.6667 4.0915C21.6071 4.15652 20.608 4.60674 19.8574 5.35735C19.1067 6.10796 18.6565 7.10714 18.5915 8.16667H18.5752C18.5103 7.1071 18.0601 6.10786 17.3094 5.35723C16.5588 4.6066 15.5596 4.15641 14.5 4.0915V4.07517C15.5596 4.01025 16.5588 3.56007 17.3094 2.80944C18.0601 2.05881 18.5103 1.05956 18.5752 0L18.5915 0C18.6565 1.05953 19.1067 2.05871 19.8574 2.80932C20.608 3.55992 21.6071 4.01015 22.6667 4.07517V4.0915Z" fill="url(#paint1_radial_8147_111680)"/>
</g>
</g>
<defs>
<radialGradient id="paint0_radial_8147_111680" cx="0" cy="0" r="1" gradientUnits="userSpaceOnUse" gradientTransform="translate(2.6835 8.94162) rotate(18.6832) scale(23.4163 187.579)">
<stop stop-color="#24C9F6"/>
<stop offset="1" stop-color="#015DFF"/>
</radialGradient>
<radialGradient id="paint1_radial_8147_111680" cx="0" cy="0" r="1" gradientUnits="userSpaceOnUse" gradientTransform="translate(15.3105 3.31924) rotate(18.6832) scale(8.6924 69.6316)">
<stop stop-color="#24C9F6"/>
<stop offset="1" stop-color="#015DFF"/>
</radialGradient>
<clipPath id="clip0_8147_111680">
<rect width="22" height="22" fill="white" transform="translate(0.5)"/>
</clipPath>
<clipPath id="clip1_8147_111680">
<rect width="8.16667" height="8.16667" fill="white" transform="translate(14.5)"/>
</clipPath>
</defs>
</svg>
