<svg width="248" height="124" viewBox="0 0 248 124" fill="none" xmlns="http://www.w3.org/2000/svg">
<g filter="url(#filter0_dd_7613_32669)">
<rect x="4" y="3" width="240" height="116" rx="16" fill="#F6F9FF"/>
</g>
<mask id="mask0_7613_32669" style="mask-type:luminance" maskUnits="userSpaceOnUse" x="4" y="3" width="240" height="116">
<rect x="4" y="3" width="240" height="116" rx="10" fill="white"/>
</mask>
<g mask="url(#mask0_7613_32669)">
<path opacity="0.5" fill-rule="evenodd" clip-rule="evenodd" d="M4 95.9535C4 95.9535 33.2853 72.4318 43.1444 70.7075C53.0035 68.9831 68.0996 93.927 84.2139 93.4286C100.328 92.9303 113.153 83.8905 124 82.1474C134.847 80.4042 146.211 95.6169 164.428 99.2C182.645 102.783 195.17 66.0694 203.572 63.0609C211.974 60.0523 244 70.7075 244 70.7075V149.616H4V95.9535Z" fill="url(#paint0_linear_7613_32669)" fill-opacity="0.5"/>
<path d="M4 96.3668C4 96.3668 33.2853 72.5554 43.1444 70.8098C53.0035 69.0642 68.0996 94.3153 84.2139 93.8109C100.328 93.3064 113.153 84.1552 124 82.3906C134.847 80.626 146.211 96.0261 164.428 99.6533C182.645 103.28 195.17 66.1147 203.572 63.069C211.974 60.0234 244 70.8098 244 70.8098" stroke="#0595FD" stroke-width="3" stroke-linecap="round"/>
</g>
<path fill-rule="evenodd" clip-rule="evenodd" d="M138.632 93.3311C142.211 93.3311 145.112 90.8741 145.112 87.8433C145.112 84.8124 142.211 82.3555 138.632 82.3555C135.054 82.3555 132.152 84.8124 132.152 87.8433C132.152 90.8741 135.054 93.3311 138.632 93.3311Z" fill="white"/>
<path fill-rule="evenodd" clip-rule="evenodd" d="M138.627 91.5007C141.013 91.5007 142.947 89.8627 142.947 87.8421C142.947 85.8216 141.013 84.1836 138.627 84.1836C136.241 84.1836 134.307 85.8216 134.307 87.8421C134.307 89.8627 136.241 91.5007 138.627 91.5007Z" fill="#0496FF"/>
<g filter="url(#filter1_d_7613_32669)">
<path d="M145.746 59C150.164 59.0002 153.746 62.5819 153.746 67V67.9746C153.746 72.3927 150.164 75.9744 145.746 75.9746H142.849L138.714 79.8975L134.578 75.9746H132.585C128.167 75.9743 124.586 72.3927 124.586 67.9746V67C124.586 62.5817 128.168 59 132.586 59H145.746Z" fill="white"/>
</g>
<path d="M135.527 70.0795C135.267 70.0758 135.012 70.0284 134.76 69.9375C134.51 69.8466 134.283 69.6951 134.078 69.483C133.874 69.2708 133.71 68.9858 133.587 68.6278C133.465 68.2699 133.405 67.8229 133.405 67.2869C133.405 66.7794 133.455 66.3286 133.555 65.9347C133.658 65.5407 133.804 65.2083 133.996 64.9375C134.187 64.6648 134.418 64.4574 134.689 64.3153C134.96 64.1733 135.264 64.1023 135.601 64.1023C135.947 64.1023 136.255 64.1705 136.524 64.3068C136.793 64.4432 137.011 64.6316 137.178 64.8722C137.346 65.1127 137.453 65.3864 137.499 65.6932H136.632C136.573 65.4508 136.457 65.2528 136.283 65.0994C136.108 64.946 135.881 64.8693 135.601 64.8693C135.175 64.8693 134.842 65.0549 134.604 65.4261C134.367 65.7973 134.248 66.3134 134.246 66.9744H134.288C134.389 66.8097 134.512 66.6695 134.658 66.554C134.805 66.4366 134.97 66.3466 135.152 66.2841C135.336 66.2197 135.529 66.1875 135.732 66.1875C136.069 66.1875 136.374 66.2699 136.646 66.4347C136.921 66.5975 137.14 66.8229 137.303 67.1108C137.465 67.3987 137.547 67.7282 137.547 68.0994C137.547 68.4706 137.463 68.8068 137.294 69.108C137.127 69.4091 136.892 69.6477 136.589 69.8239C136.286 69.9981 135.932 70.0833 135.527 70.0795ZM135.524 69.3409C135.748 69.3409 135.947 69.286 136.124 69.1761C136.3 69.0663 136.439 68.9186 136.541 68.733C136.643 68.5473 136.695 68.34 136.695 68.1108C136.695 67.8873 136.644 67.6837 136.544 67.5C136.446 67.3163 136.309 67.1705 136.135 67.0625C135.963 66.9545 135.766 66.9006 135.544 66.9006C135.375 66.9006 135.219 66.9328 135.075 66.9972C134.933 67.0616 134.808 67.1506 134.7 67.2642C134.592 67.3778 134.507 67.5085 134.445 67.6562C134.384 67.8021 134.354 67.9564 134.354 68.1193C134.354 68.3371 134.404 68.5388 134.504 68.7244C134.607 68.91 134.746 69.0597 134.922 69.1733C135.1 69.285 135.301 69.3409 135.524 69.3409ZM139.082 70V69.3636L141.05 67.3239C141.261 67.1023 141.434 66.9081 141.57 66.7415C141.709 66.5729 141.812 66.4129 141.88 66.2614C141.948 66.1098 141.982 65.9489 141.982 65.7784C141.982 65.5852 141.937 65.4186 141.846 65.2784C141.755 65.1364 141.631 65.0275 141.474 64.9517C141.317 64.8741 141.139 64.8352 140.942 64.8352C140.734 64.8352 140.552 64.8778 140.397 64.9631C140.242 65.0483 140.122 65.1686 140.039 65.3239C139.956 65.4792 139.914 65.661 139.914 65.8693H139.076C139.076 65.5152 139.157 65.2055 139.32 64.9403C139.483 64.6752 139.707 64.4697 139.991 64.3239C140.275 64.1761 140.598 64.1023 140.959 64.1023C141.325 64.1023 141.647 64.1752 141.925 64.321C142.206 64.465 142.424 64.6619 142.582 64.9119C142.739 65.16 142.817 65.4403 142.817 65.7528C142.817 65.9688 142.777 66.1799 142.695 66.3864C142.616 66.5928 142.477 66.8229 142.278 67.0767C142.079 67.3286 141.802 67.6345 141.448 67.9943L140.292 69.2045V69.2472H142.911V70H139.082Z" fill="#414D55"/>
<path d="M15.646 27V18.2727H18.9869C19.6175 18.2727 20.1417 18.3722 20.5593 18.571C20.9798 18.767 21.2937 19.0355 21.5011 19.3764C21.7113 19.7173 21.8164 20.1037 21.8164 20.5355C21.8164 20.8906 21.7482 21.1946 21.6119 21.4474C21.4755 21.6974 21.2923 21.9006 21.0621 22.0568C20.832 22.2131 20.5749 22.3253 20.2908 22.3935V22.4787C20.6005 22.4957 20.8974 22.5909 21.1815 22.7642C21.4684 22.9347 21.7028 23.1761 21.8846 23.4886C22.0664 23.8011 22.1573 24.179 22.1573 24.6222C22.1573 25.0739 22.0479 25.4801 21.8292 25.8409C21.6104 26.1989 21.2809 26.4815 20.8406 26.6889C20.4002 26.8963 19.8462 27 19.1786 27H15.646ZM17.2269 25.679H18.9272C19.5011 25.679 19.9144 25.5696 20.1673 25.3509C20.4229 25.1293 20.5508 24.8452 20.5508 24.4986C20.5508 24.2401 20.4869 24.0071 20.359 23.7997C20.2312 23.5895 20.0494 23.4247 19.8136 23.3054C19.5778 23.1832 19.2965 23.1222 18.9698 23.1222H17.2269V25.679ZM17.2269 21.9844H18.7908C19.0636 21.9844 19.3093 21.9347 19.5281 21.8352C19.7468 21.733 19.9187 21.5895 20.0437 21.4048C20.1715 21.2173 20.2354 20.9957 20.2354 20.7401C20.2354 20.402 20.1161 20.1236 19.8775 19.9048C19.6417 19.6861 19.2908 19.5767 18.8249 19.5767H17.2269V21.9844ZM25.5071 18.2727V27H23.9645V18.2727H25.5071ZM30.4485 27.1278C29.8093 27.1278 29.2553 26.9872 28.7866 26.706C28.3178 26.4247 27.9542 26.0312 27.6957 25.5256C27.44 25.0199 27.3121 24.429 27.3121 23.7528C27.3121 23.0767 27.44 22.4844 27.6957 21.9759C27.9542 21.4673 28.3178 21.0724 28.7866 20.7912C29.2553 20.5099 29.8093 20.3693 30.4485 20.3693C31.0877 20.3693 31.6417 20.5099 32.1104 20.7912C32.5792 21.0724 32.9414 21.4673 33.1971 21.9759C33.4556 22.4844 33.5849 23.0767 33.5849 23.7528C33.5849 24.429 33.4556 25.0199 33.1971 25.5256C32.9414 26.0312 32.5792 26.4247 32.1104 26.706C31.6417 26.9872 31.0877 27.1278 30.4485 27.1278ZM30.457 25.892C30.8036 25.892 31.0934 25.7969 31.3263 25.6065C31.5593 25.4134 31.7326 25.1548 31.8462 24.831C31.9627 24.5071 32.021 24.1463 32.021 23.7486C32.021 23.348 31.9627 22.9858 31.8462 22.6619C31.7326 22.3352 31.5593 22.0753 31.3263 21.8821C31.0934 21.6889 30.8036 21.5923 30.457 21.5923C30.1019 21.5923 29.8065 21.6889 29.5707 21.8821C29.3377 22.0753 29.163 22.3352 29.0465 22.6619C28.9329 22.9858 28.8761 23.348 28.8761 23.7486C28.8761 24.1463 28.9329 24.5071 29.0465 24.831C29.163 25.1548 29.3377 25.4134 29.5707 25.6065C29.8065 25.7969 30.1019 25.892 30.457 25.892ZM38.2493 27.1278C37.6101 27.1278 37.0561 26.9872 36.5874 26.706C36.1186 26.4247 35.755 26.0312 35.4964 25.5256C35.2408 25.0199 35.1129 24.429 35.1129 23.7528C35.1129 23.0767 35.2408 22.4844 35.4964 21.9759C35.755 21.4673 36.1186 21.0724 36.5874 20.7912C37.0561 20.5099 37.6101 20.3693 38.2493 20.3693C38.8885 20.3693 39.4425 20.5099 39.9112 20.7912C40.38 21.0724 40.7422 21.4673 40.9979 21.9759C41.2564 22.4844 41.3857 23.0767 41.3857 23.7528C41.3857 24.429 41.2564 25.0199 40.9979 25.5256C40.7422 26.0312 40.38 26.4247 39.9112 26.706C39.4425 26.9872 38.8885 27.1278 38.2493 27.1278ZM38.2578 25.892C38.6044 25.892 38.8942 25.7969 39.1271 25.6065C39.3601 25.4134 39.5334 25.1548 39.647 24.831C39.7635 24.5071 39.8217 24.1463 39.8217 23.7486C39.8217 23.348 39.7635 22.9858 39.647 22.6619C39.5334 22.3352 39.3601 22.0753 39.1271 21.8821C38.8942 21.6889 38.6044 21.5923 38.2578 21.5923C37.9027 21.5923 37.6072 21.6889 37.3714 21.8821C37.1385 22.0753 36.9638 22.3352 36.8473 22.6619C36.7337 22.9858 36.6768 23.348 36.6768 23.7486C36.6768 24.1463 36.7337 24.5071 36.8473 24.831C36.9638 25.1548 37.1385 25.4134 37.3714 25.6065C37.6072 25.7969 37.9027 25.892 38.2578 25.892ZM45.6239 27.1151C45.1097 27.1151 44.6495 26.983 44.2433 26.7188C43.837 26.4545 43.516 26.071 43.2802 25.5682C43.0444 25.0653 42.9265 24.4545 42.9265 23.7358C42.9265 23.0085 43.0458 22.3949 43.2844 21.8949C43.5259 21.392 43.8512 21.0128 44.2603 20.7571C44.6694 20.4986 45.1254 20.3693 45.6282 20.3693C46.0117 20.3693 46.3271 20.4347 46.5742 20.5653C46.8214 20.6932 47.0174 20.848 47.1623 21.0298C47.3072 21.2088 47.4194 21.3778 47.4989 21.5369H47.5629V18.2727H49.1097V27H47.5927V25.9688H47.4989C47.4194 26.1278 47.3043 26.2969 47.1538 26.4759C47.0032 26.652 46.8043 26.8026 46.5572 26.9276C46.31 27.0526 45.9989 27.1151 45.6239 27.1151ZM46.0543 25.8494C46.381 25.8494 46.6594 25.7614 46.8896 25.5852C47.1197 25.4062 47.2944 25.1577 47.4137 24.8395C47.533 24.5213 47.5927 24.1506 47.5927 23.7273C47.5927 23.304 47.533 22.9361 47.4137 22.6236C47.2972 22.3111 47.1239 22.0682 46.8938 21.8949C46.6665 21.7216 46.3867 21.6349 46.0543 21.6349C45.7106 21.6349 45.4237 21.7244 45.1935 21.9034C44.9634 22.0824 44.7901 22.3295 44.6737 22.6449C44.5572 22.9602 44.4989 23.321 44.4989 23.7273C44.4989 24.1364 44.5572 24.5014 44.6737 24.8224C44.793 25.1406 44.9677 25.392 45.1978 25.5767C45.4308 25.7585 45.7163 25.8494 46.0543 25.8494ZM54.7983 27V18.2727H58.071C58.7415 18.2727 59.304 18.3977 59.7585 18.6477C60.2159 18.8977 60.5611 19.2415 60.794 19.679C61.0298 20.1136 61.1477 20.608 61.1477 21.1619C61.1477 21.7216 61.0298 22.2187 60.794 22.6534C60.5582 23.0881 60.2102 23.4304 59.75 23.6804C59.2898 23.9276 58.723 24.0511 58.0497 24.0511H55.8807V22.7514H57.8366C58.2287 22.7514 58.5497 22.6832 58.7997 22.5469C59.0497 22.4105 59.2344 22.223 59.3537 21.9844C59.4759 21.7457 59.5369 21.4716 59.5369 21.1619C59.5369 20.8523 59.4759 20.5795 59.3537 20.3438C59.2344 20.108 59.0483 19.9247 58.7955 19.794C58.5455 19.6605 58.223 19.5938 57.8281 19.5938H56.3793V27H54.7983ZM62.9528 27V20.4545H64.4485V21.5455H64.5167C64.636 21.1676 64.8406 20.8764 65.1303 20.6719C65.4229 20.4645 65.7567 20.3608 66.1317 20.3608C66.217 20.3608 66.3121 20.3651 66.4173 20.3736C66.5252 20.3793 66.6147 20.3892 66.6857 20.4034V21.8224C66.6204 21.7997 66.5167 21.7798 66.3746 21.7628C66.2354 21.7429 66.1005 21.733 65.9698 21.733C65.6886 21.733 65.4357 21.794 65.2113 21.9162C64.9897 22.0355 64.815 22.2017 64.6871 22.4148C64.5593 22.6278 64.4954 22.8736 64.4954 23.152V27H62.9528ZM70.8388 27.1278C70.1825 27.1278 69.6158 26.9915 69.1385 26.7188C68.6641 26.4432 68.299 26.054 68.0433 25.5511C67.7876 25.0455 67.6598 24.4503 67.6598 23.7656C67.6598 23.0923 67.7876 22.5014 68.0433 21.9929C68.3018 21.4815 68.6626 21.0838 69.1257 20.7997C69.5888 20.5128 70.1328 20.3693 70.7578 20.3693C71.1612 20.3693 71.5419 20.4347 71.8999 20.5653C72.2607 20.6932 72.5788 20.892 72.8544 21.1619C73.1328 21.4318 73.3516 21.7756 73.5107 22.1932C73.6697 22.608 73.7493 23.1023 73.7493 23.6761V24.1491H68.3842V23.1094H72.2706C72.2678 22.8139 72.2038 22.5511 72.0788 22.321C71.9538 22.0881 71.7791 21.9048 71.5547 21.7713C71.3331 21.6378 71.0746 21.571 70.7791 21.571C70.4638 21.571 70.1868 21.6477 69.9482 21.8011C69.7095 21.9517 69.5234 22.1506 69.3899 22.3977C69.2592 22.642 69.1925 22.9105 69.1896 23.2031V24.1108C69.1896 24.4915 69.2592 24.8182 69.3984 25.0909C69.5376 25.3608 69.7322 25.5682 69.9822 25.7131C70.2322 25.8551 70.5249 25.9261 70.8601 25.9261C71.0845 25.9261 71.2876 25.8949 71.4695 25.8324C71.6513 25.767 71.8089 25.6719 71.9425 25.5469C72.076 25.4219 72.1768 25.267 72.245 25.0824L73.6854 25.2443C73.5945 25.625 73.4212 25.9574 73.1655 26.2415C72.9126 26.5227 72.5888 26.7415 72.1939 26.8977C71.799 27.0511 71.3473 27.1278 70.8388 27.1278ZM80.7276 22.1847L79.3214 22.3381C79.2816 22.196 79.212 22.0625 79.1126 21.9375C79.016 21.8125 78.8853 21.7116 78.7205 21.6349C78.5558 21.5582 78.354 21.5199 78.1154 21.5199C77.7944 21.5199 77.5245 21.5895 77.3058 21.7287C77.0898 21.8679 76.9833 22.0483 76.9862 22.2699C76.9833 22.4602 77.0529 22.6151 77.195 22.7344C77.3398 22.8537 77.5785 22.9517 77.9109 23.0284L79.0273 23.267C79.6467 23.4006 80.1069 23.6122 80.408 23.902C80.712 24.1918 80.8654 24.571 80.8683 25.0398C80.8654 25.4517 80.7447 25.8153 80.506 26.1307C80.2702 26.4432 79.9421 26.6875 79.5217 26.8636C79.1012 27.0398 78.6183 27.1278 78.0728 27.1278C77.2717 27.1278 76.6268 26.9602 76.1381 26.625C75.6495 26.2869 75.3583 25.8168 75.2646 25.2145L76.7688 25.0696C76.837 25.3651 76.9819 25.5881 77.2035 25.7386C77.4251 25.8892 77.7134 25.9645 78.0685 25.9645C78.435 25.9645 78.729 25.8892 78.9506 25.7386C79.1751 25.5881 79.2873 25.402 79.2873 25.1804C79.2873 24.9929 79.2148 24.8381 79.07 24.7159C78.9279 24.5937 78.7063 24.5 78.4052 24.4347L77.2887 24.2003C76.6609 24.0696 76.1964 23.8494 75.8952 23.5398C75.5941 23.2273 75.445 22.8324 75.4478 22.3551C75.445 21.9517 75.5543 21.6023 75.7759 21.3068C76.0004 21.0085 76.3114 20.7784 76.7092 20.6165C77.1097 20.4517 77.5714 20.3693 78.0941 20.3693C78.8612 20.3693 79.4648 20.5327 79.9052 20.8594C80.3484 21.1861 80.6225 21.6278 80.7276 22.1847ZM87.8136 22.1847L86.4073 22.3381C86.3675 22.196 86.2979 22.0625 86.1985 21.9375C86.1019 21.8125 85.9712 21.7116 85.8065 21.6349C85.6417 21.5582 85.44 21.5199 85.2013 21.5199C84.8803 21.5199 84.6104 21.5895 84.3917 21.7287C84.1758 21.8679 84.0692 22.0483 84.0721 22.2699C84.0692 22.4602 84.1388 22.6151 84.2809 22.7344C84.4258 22.8537 84.6644 22.9517 84.9968 23.0284L86.1133 23.267C86.7326 23.4006 87.1928 23.6122 87.494 23.902C87.7979 24.1918 87.9513 24.571 87.9542 25.0398C87.9513 25.4517 87.8306 25.8153 87.592 26.1307C87.3562 26.4432 87.0281 26.6875 86.6076 26.8636C86.1871 27.0398 85.7042 27.1278 85.1587 27.1278C84.3576 27.1278 83.7127 26.9602 83.2241 26.625C82.7354 26.2869 82.4442 25.8168 82.3505 25.2145L83.8548 25.0696C83.9229 25.3651 84.0678 25.5881 84.2894 25.7386C84.511 25.8892 84.7994 25.9645 85.1545 25.9645C85.521 25.9645 85.815 25.8892 86.0366 25.7386C86.261 25.5881 86.3732 25.402 86.3732 25.1804C86.3732 24.9929 86.3008 24.8381 86.1559 24.7159C86.0138 24.5937 85.7923 24.5 85.4911 24.4347L84.3746 24.2003C83.7468 24.0696 83.2823 23.8494 82.9812 23.5398C82.68 23.2273 82.5309 22.8324 82.5337 22.3551C82.5309 21.9517 82.6403 21.6023 82.8619 21.3068C83.0863 21.0085 83.3974 20.7784 83.7951 20.6165C84.1957 20.4517 84.6573 20.3693 85.18 20.3693C85.9471 20.3693 86.5508 20.5327 86.9911 20.8594C87.4343 21.1861 87.7085 21.6278 87.8136 22.1847ZM93.8981 24.2472V20.4545H95.4407V27H93.945V25.8366H93.8768C93.729 26.2031 93.4862 26.5028 93.1481 26.7358C92.8129 26.9687 92.3995 27.0852 91.908 27.0852C91.479 27.0852 91.0998 26.9901 90.7702 26.7997C90.4435 26.6065 90.1879 26.3267 90.0032 25.9602C89.8185 25.5909 89.7262 25.1449 89.7262 24.6222V20.4545H91.2688V24.3835C91.2688 24.7983 91.3825 25.1278 91.6097 25.3722C91.837 25.6165 92.1353 25.7386 92.5046 25.7386C92.7319 25.7386 92.9521 25.6832 93.1651 25.5724C93.3782 25.4616 93.5529 25.2969 93.6893 25.0781C93.8285 24.8565 93.8981 24.5795 93.8981 24.2472ZM97.527 27V20.4545H99.0227V21.5455H99.0909C99.2102 21.1676 99.4148 20.8764 99.7045 20.6719C99.9972 20.4645 100.331 20.3608 100.706 20.3608C100.791 20.3608 100.886 20.3651 100.991 20.3736C101.099 20.3793 101.189 20.3892 101.26 20.4034V21.8224C101.195 21.7997 101.091 21.7798 100.949 21.7628C100.81 21.7429 100.675 21.733 100.544 21.733C100.263 21.733 100.01 21.794 99.7855 21.9162C99.5639 22.0355 99.3892 22.2017 99.2614 22.4148C99.1335 22.6278 99.0696 22.8736 99.0696 23.152V27H97.527ZM105.413 27.1278C104.757 27.1278 104.19 26.9915 103.713 26.7188C103.238 26.4432 102.873 26.054 102.618 25.5511C102.362 25.0455 102.234 24.4503 102.234 23.7656C102.234 23.0923 102.362 22.5014 102.618 21.9929C102.876 21.4815 103.237 21.0838 103.7 20.7997C104.163 20.5128 104.707 20.3693 105.332 20.3693C105.735 20.3693 106.116 20.4347 106.474 20.5653C106.835 20.6932 107.153 20.892 107.429 21.1619C107.707 21.4318 107.926 21.7756 108.085 22.1932C108.244 22.608 108.324 23.1023 108.324 23.6761V24.1491H102.958V23.1094H106.845C106.842 22.8139 106.778 22.5511 106.653 22.321C106.528 22.0881 106.353 21.9048 106.129 21.7713C105.907 21.6378 105.649 21.571 105.353 21.571C105.038 21.571 104.761 21.6477 104.522 21.8011C104.284 21.9517 104.098 22.1506 103.964 22.3977C103.833 22.642 103.767 22.9105 103.764 23.2031V24.1108C103.764 24.4915 103.833 24.8182 103.973 25.0909C104.112 25.3608 104.306 25.5682 104.556 25.7131C104.806 25.8551 105.099 25.9261 105.434 25.9261C105.659 25.9261 105.862 25.8949 106.044 25.8324C106.225 25.767 106.383 25.6719 106.517 25.5469C106.65 25.4219 106.751 25.267 106.819 25.0824L108.26 25.2443C108.169 25.625 107.995 25.9574 107.74 26.2415C107.487 26.5227 107.163 26.7415 106.768 26.8977C106.373 27.0511 105.922 27.1278 105.413 27.1278Z" fill="black"/>
<path d="M157.623 23C157.623 17.4772 162.1 13 167.623 13H221.623C227.146 13 231.623 17.4772 231.623 23C231.623 28.5228 227.146 33 221.623 33H167.623C162.1 33 157.623 28.5228 157.623 23Z" fill="#F2F2F7"/>
<g clip-path="url(#clip0_7613_32669)">
<path d="M169.623 20V23L171.623 24M174.623 23C174.623 25.7614 172.384 28 169.623 28C166.862 28 164.623 25.7614 164.623 23C164.623 20.2386 166.862 18 169.623 18C172.384 18 174.623 20.2386 174.623 23Z" stroke="#0088FF" stroke-width="1.2" stroke-linecap="round" stroke-linejoin="round"/>
</g>
<path d="M182.343 25.5V19.6818H183.048V24.875H185.752V25.5H182.343ZM188.036 25.6023C187.76 25.6023 187.509 25.5502 187.284 25.446C187.058 25.34 186.879 25.1875 186.747 24.9886C186.614 24.7879 186.548 24.5455 186.548 24.2614C186.548 24.0114 186.597 23.8087 186.695 23.6534C186.794 23.4962 186.926 23.3731 187.09 23.2841C187.255 23.1951 187.437 23.1288 187.636 23.0852C187.837 23.0398 188.038 23.0038 188.241 22.9773C188.506 22.9432 188.721 22.9176 188.886 22.9006C189.052 22.8816 189.174 22.8504 189.249 22.8068C189.327 22.7633 189.366 22.6875 189.366 22.5795V22.5568C189.366 22.2765 189.289 22.0587 189.136 21.9034C188.984 21.7481 188.754 21.6705 188.445 21.6705C188.125 21.6705 187.874 21.7405 187.693 21.8807C187.511 22.0208 187.383 22.1705 187.309 22.3295L186.673 22.1023C186.786 21.8371 186.938 21.6307 187.127 21.483C187.319 21.3333 187.527 21.2292 187.752 21.1705C187.98 21.1098 188.203 21.0795 188.423 21.0795C188.563 21.0795 188.724 21.0966 188.906 21.1307C189.089 21.1629 189.267 21.2301 189.437 21.3324C189.609 21.4347 189.752 21.589 189.866 21.7955C189.98 22.0019 190.036 22.2784 190.036 22.625V25.5H189.366V24.9091H189.332C189.286 25.0038 189.211 25.1051 189.105 25.2131C188.999 25.321 188.857 25.4129 188.681 25.4886C188.505 25.5644 188.29 25.6023 188.036 25.6023ZM188.139 25C188.404 25 188.627 24.9479 188.809 24.8438C188.993 24.7396 189.131 24.6051 189.224 24.4403C189.319 24.2756 189.366 24.1023 189.366 23.9205V23.3068C189.338 23.3409 189.275 23.3722 189.178 23.4006C189.084 23.4271 188.974 23.4508 188.849 23.4716C188.726 23.4905 188.606 23.5076 188.488 23.5227C188.373 23.536 188.279 23.5473 188.207 23.5568C188.033 23.5795 187.87 23.6165 187.718 23.6676C187.569 23.7169 187.447 23.7917 187.355 23.892C187.264 23.9905 187.218 24.125 187.218 24.2955C187.218 24.5284 187.304 24.7045 187.477 24.8239C187.651 24.9413 187.872 25 188.139 25ZM194.351 22.1136L193.749 22.2841C193.711 22.1837 193.655 22.0862 193.581 21.9915C193.509 21.8949 193.411 21.8153 193.286 21.7528C193.161 21.6903 193.001 21.6591 192.806 21.6591C192.539 21.6591 192.316 21.7206 192.138 21.8438C191.962 21.965 191.874 22.1193 191.874 22.3068C191.874 22.4735 191.934 22.6051 192.056 22.7017C192.177 22.7983 192.366 22.8788 192.624 22.9432L193.271 23.1023C193.662 23.197 193.952 23.3419 194.144 23.5369C194.335 23.7301 194.431 23.9792 194.431 24.2841C194.431 24.5341 194.359 24.7576 194.215 24.9545C194.073 25.1515 193.874 25.3068 193.618 25.4205C193.362 25.5341 193.065 25.5909 192.726 25.5909C192.281 25.5909 191.913 25.4943 191.621 25.3011C191.329 25.108 191.145 24.8258 191.067 24.4545L191.703 24.2955C191.764 24.5303 191.878 24.7064 192.047 24.8239C192.218 24.9413 192.44 25 192.715 25C193.027 25 193.275 24.9337 193.459 24.8011C193.645 24.6667 193.737 24.5057 193.737 24.3182C193.737 24.1667 193.684 24.0398 193.578 23.9375C193.472 23.8333 193.309 23.7557 193.09 23.7045L192.362 23.5341C191.963 23.4394 191.669 23.2926 191.482 23.0938C191.296 22.893 191.203 22.642 191.203 22.3409C191.203 22.0947 191.272 21.8769 191.411 21.6875C191.551 21.4981 191.741 21.3494 191.982 21.2415C192.224 21.1335 192.499 21.0795 192.806 21.0795C193.237 21.0795 193.576 21.1742 193.823 21.3636C194.071 21.553 194.247 21.803 194.351 22.1136ZM197.338 21.1364V21.7045H195.076V21.1364H197.338ZM195.735 20.0909H196.406V24.25C196.406 24.4394 196.433 24.5814 196.488 24.6761C196.545 24.7689 196.617 24.8314 196.704 24.8636C196.793 24.8939 196.887 24.9091 196.985 24.9091C197.059 24.9091 197.12 24.9053 197.167 24.8977C197.214 24.8883 197.252 24.8807 197.281 24.875L197.417 25.4773C197.372 25.4943 197.308 25.5114 197.227 25.5284C197.145 25.5473 197.042 25.5568 196.917 25.5568C196.728 25.5568 196.542 25.5161 196.36 25.4347C196.18 25.3532 196.031 25.2292 195.911 25.0625C195.794 24.8958 195.735 24.6856 195.735 24.4318V20.0909ZM200.585 25.5V24.9886L202.505 22.8864C202.731 22.6402 202.916 22.4261 203.062 22.2443C203.208 22.0606 203.316 21.8883 203.386 21.7273C203.458 21.5644 203.494 21.3939 203.494 21.2159C203.494 21.0114 203.445 20.8343 203.346 20.6847C203.249 20.535 203.117 20.4195 202.948 20.3381C202.78 20.2566 202.59 20.2159 202.38 20.2159C202.157 20.2159 201.962 20.2623 201.795 20.3551C201.63 20.446 201.502 20.5739 201.411 20.7386C201.322 20.9034 201.278 21.0966 201.278 21.3182H200.607C200.607 20.9773 200.686 20.678 200.843 20.4205C201 20.1629 201.214 19.9621 201.485 19.8182C201.758 19.6742 202.064 19.6023 202.403 19.6023C202.744 19.6023 203.046 19.6742 203.309 19.8182C203.572 19.9621 203.779 20.1562 203.928 20.4006C204.078 20.6449 204.153 20.9167 204.153 21.2159C204.153 21.4299 204.114 21.6392 204.036 21.8438C203.961 22.0464 203.828 22.2727 203.639 22.5227C203.451 22.7708 203.191 23.0739 202.857 23.4318L201.551 24.8295V24.875H204.255V25.5H200.585ZM207.326 25.5795C206.898 25.5795 206.534 25.4631 206.232 25.2301C205.931 24.9953 205.701 24.6553 205.542 24.2102C205.383 23.7633 205.303 23.2235 205.303 22.5909C205.303 21.9621 205.383 21.4252 205.542 20.9801C205.703 20.5331 205.934 20.1922 206.235 19.9574C206.538 19.7206 206.902 19.6023 207.326 19.6023C207.75 19.6023 208.113 19.7206 208.414 19.9574C208.717 20.1922 208.948 20.5331 209.107 20.9801C209.268 21.4252 209.349 21.9621 209.349 22.5909C209.349 23.2235 209.269 23.7633 209.11 24.2102C208.951 24.6553 208.721 24.9953 208.42 25.2301C208.119 25.4631 207.754 25.5795 207.326 25.5795ZM207.326 24.9545C207.75 24.9545 208.08 24.75 208.315 24.3409C208.55 23.9318 208.667 23.3485 208.667 22.5909C208.667 22.0871 208.613 21.6581 208.505 21.304C208.399 20.9498 208.246 20.6799 208.045 20.4943C207.846 20.3087 207.606 20.2159 207.326 20.2159C206.906 20.2159 206.577 20.4233 206.34 20.8381C206.104 21.2509 205.985 21.8352 205.985 22.5909C205.985 23.0947 206.038 23.5227 206.144 23.875C206.25 24.2273 206.403 24.4953 206.602 24.679C206.802 24.8627 207.044 24.9545 207.326 24.9545ZM212.69 25.5V21.1364H213.338V21.8182H213.394C213.485 21.5852 213.632 21.4044 213.835 21.2756C214.037 21.1449 214.281 21.0795 214.565 21.0795C214.853 21.0795 215.092 21.1449 215.284 21.2756C215.477 21.4044 215.627 21.5852 215.735 21.8182H215.781C215.892 21.5928 216.06 21.4138 216.284 21.2812C216.507 21.1468 216.775 21.0795 217.088 21.0795C217.478 21.0795 217.797 21.2017 218.045 21.446C218.293 21.6884 218.417 22.0663 218.417 22.5795V25.5H217.747V22.5795C217.747 22.2576 217.659 22.0275 217.482 21.8892C217.306 21.7509 217.099 21.6818 216.86 21.6818C216.553 21.6818 216.316 21.7746 216.147 21.9602C215.979 22.1439 215.894 22.3769 215.894 22.6591V25.5H215.213V22.5114C215.213 22.2633 215.132 22.0634 214.971 21.9119C214.81 21.7585 214.603 21.6818 214.349 21.6818C214.175 21.6818 214.012 21.7282 213.86 21.821C213.711 21.9138 213.589 22.0426 213.497 22.2074C213.406 22.3703 213.36 22.5587 213.36 22.7727V25.5H212.69ZM219.643 25.5V21.1364H220.313V25.5H219.643ZM219.984 20.4091C219.853 20.4091 219.74 20.3646 219.646 20.2756C219.553 20.1866 219.507 20.0795 219.507 19.9545C219.507 19.8295 219.553 19.7225 219.646 19.6335C219.74 19.5445 219.853 19.5 219.984 19.5C220.115 19.5 220.226 19.5445 220.319 19.6335C220.414 19.7225 220.461 19.8295 220.461 19.9545C220.461 20.0795 220.414 20.1866 220.319 20.2756C220.226 20.3646 220.115 20.4091 219.984 20.4091ZM222.212 22.875V25.5H221.541V21.1364H222.189V21.8182H222.246C222.348 21.5966 222.503 21.4186 222.712 21.2841C222.92 21.1477 223.189 21.0795 223.519 21.0795C223.814 21.0795 224.073 21.1402 224.294 21.2614C224.516 21.3807 224.688 21.5625 224.811 21.8068C224.934 22.0492 224.996 22.3561 224.996 22.7273V25.5H224.325V22.7727C224.325 22.4299 224.236 22.1629 224.058 21.9716C223.88 21.7784 223.636 21.6818 223.325 21.6818C223.111 21.6818 222.92 21.7282 222.752 21.821C222.585 21.9138 222.453 22.0492 222.357 22.2273C222.26 22.4053 222.212 22.6212 222.212 22.875Z" fill="black"/>
<defs>
<filter id="filter0_dd_7613_32669" x="0" y="0" width="248" height="124" filterUnits="userSpaceOnUse" color-interpolation-filters="sRGB">
<feFlood flood-opacity="0" result="BackgroundImageFix"/>
<feColorMatrix in="SourceAlpha" type="matrix" values="0 0 0 0 0 0 0 0 0 0 0 0 0 0 0 0 0 0 127 0" result="hardAlpha"/>
<feOffset dy="1"/>
<feGaussianBlur stdDeviation="2"/>
<feComposite in2="hardAlpha" operator="out"/>
<feColorMatrix type="matrix" values="0 0 0 0 0.0470588 0 0 0 0 0.0470588 0 0 0 0 0.0509804 0 0 0 0.05 0"/>
<feBlend mode="normal" in2="BackgroundImageFix" result="effect1_dropShadow_7613_32669"/>
<feColorMatrix in="SourceAlpha" type="matrix" values="0 0 0 0 0 0 0 0 0 0 0 0 0 0 0 0 0 0 127 0" result="hardAlpha"/>
<feOffset dy="1"/>
<feGaussianBlur stdDeviation="2"/>
<feComposite in2="hardAlpha" operator="out"/>
<feColorMatrix type="matrix" values="0 0 0 0 0.0470588 0 0 0 0 0.0470588 0 0 0 0 0.0509804 0 0 0 0.1 0"/>
<feBlend mode="normal" in2="effect1_dropShadow_7613_32669" result="effect2_dropShadow_7613_32669"/>
<feBlend mode="normal" in="SourceGraphic" in2="effect2_dropShadow_7613_32669" result="shape"/>
</filter>
<filter id="filter1_d_7613_32669" x="108.586" y="45" width="61.1602" height="52.8984" filterUnits="userSpaceOnUse" color-interpolation-filters="sRGB">
<feFlood flood-opacity="0" result="BackgroundImageFix"/>
<feColorMatrix in="SourceAlpha" type="matrix" values="0 0 0 0 0 0 0 0 0 0 0 0 0 0 0 0 0 0 127 0" result="hardAlpha"/>
<feOffset dy="2"/>
<feGaussianBlur stdDeviation="8"/>
<feColorMatrix type="matrix" values="0 0 0 0 0.293333 0 0 0 0 0.333211 0 0 0 0 0.431373 0 0 0 0.2 0"/>
<feBlend mode="normal" in2="BackgroundImageFix" result="effect1_dropShadow_7613_32669"/>
<feBlend mode="normal" in="SourceGraphic" in2="effect1_dropShadow_7613_32669" result="shape"/>
</filter>
<linearGradient id="paint0_linear_7613_32669" x1="243.341" y1="149.138" x2="243.341" y2="62.3984" gradientUnits="userSpaceOnUse">
<stop stop-color="white" stop-opacity="0.1"/>
<stop offset="1" stop-color="#0595FD"/>
</linearGradient>
<clipPath id="clip0_7613_32669">
<rect width="12" height="12" fill="white" transform="translate(163.623 17)"/>
</clipPath>
</defs>
</svg>
