<svg width="248" height="124" viewBox="0 0 248 124" fill="none" xmlns="http://www.w3.org/2000/svg">
<g filter="url(#filter0_dd_8151_134256)">
<rect x="4" y="3" width="240" height="116" rx="16" fill="#F6F9FF"/>
</g>
<mask id="mask0_8151_134256" style="mask-type:luminance" maskUnits="userSpaceOnUse" x="4" y="3" width="240" height="116">
<rect x="4" y="3" width="240" height="116" rx="10" fill="white"/>
</mask>
<g mask="url(#mask0_8151_134256)">
<path opacity="0.5" fill-rule="evenodd" clip-rule="evenodd" d="M4 95.9535C4 95.9535 33.2853 72.4318 43.1444 70.7075C53.0035 68.9831 68.0996 93.927 84.2139 93.4286C100.328 92.9303 113.153 83.8905 124 82.1474C134.847 80.4042 146.211 95.6169 164.428 99.2C182.645 102.783 195.17 66.0694 203.572 63.0609C211.974 60.0523 244 70.7075 244 70.7075V149.616H4V95.9535Z" fill="url(#paint0_linear_8151_134256)" fill-opacity="0.5"/>
<path d="M4 96.3668C4 96.3668 33.2853 72.5554 43.1444 70.8098C53.0035 69.0642 68.0996 94.3153 84.2139 93.8109C100.328 93.3064 113.153 84.1552 124 82.3906C134.847 80.626 146.211 96.0261 164.428 99.6533C182.645 103.28 195.17 66.1147 203.572 63.069C211.974 60.0234 244 70.8098 244 70.8098" stroke="#0595FD" stroke-width="3" stroke-linecap="round"/>
</g>
<path fill-rule="evenodd" clip-rule="evenodd" d="M185.921 88.3311C189.5 88.3311 192.401 85.8741 192.401 82.8433C192.401 79.8124 189.5 77.3555 185.921 77.3555C182.343 77.3555 179.441 79.8124 179.441 82.8433C179.441 85.8741 182.343 88.3311 185.921 88.3311Z" fill="white"/>
<path fill-rule="evenodd" clip-rule="evenodd" d="M185.918 86.5007C188.304 86.5007 190.238 84.8627 190.238 82.8421C190.238 80.8216 188.304 79.1836 185.918 79.1836C183.532 79.1836 181.598 80.8216 181.598 82.8421C181.598 84.8627 183.532 86.5007 185.918 86.5007Z" fill="#0496FF"/>
<g filter="url(#filter1_d_8151_134256)">
<path d="M193.043 54C197.461 54 201.043 57.5817 201.043 62V62.9746C201.043 67.3929 197.461 70.9746 193.043 70.9746H190.141L186.005 74.8975L181.869 70.9746H179.883C175.465 70.9746 171.883 67.3929 171.883 62.9746V62C171.883 57.5817 175.465 54 179.883 54H193.043Z" fill="white"/>
</g>
<path d="M182.82 65.0795C182.56 65.0758 182.305 65.0284 182.053 64.9375C181.803 64.8466 181.576 64.6951 181.371 64.483C181.167 64.2708 181.003 63.9858 180.88 63.6278C180.758 63.2699 180.698 62.8229 180.698 62.2869C180.698 61.7794 180.748 61.3286 180.848 60.9347C180.951 60.5407 181.097 60.2083 181.289 59.9375C181.48 59.6648 181.711 59.4574 181.982 59.3153C182.253 59.1733 182.557 59.1023 182.894 59.1023C183.24 59.1023 183.548 59.1705 183.817 59.3068C184.086 59.4432 184.304 59.6316 184.471 59.8722C184.639 60.1127 184.746 60.3864 184.792 60.6932H183.925C183.866 60.4508 183.75 60.2528 183.576 60.0994C183.401 59.946 183.174 59.8693 182.894 59.8693C182.468 59.8693 182.135 60.0549 181.897 60.4261C181.66 60.7973 181.541 61.3134 181.539 61.9744H181.581C181.682 61.8097 181.805 61.6695 181.951 61.554C182.098 61.4366 182.263 61.3466 182.445 61.2841C182.629 61.2197 182.822 61.1875 183.024 61.1875C183.362 61.1875 183.667 61.2699 183.939 61.4347C184.214 61.5975 184.433 61.8229 184.596 62.1108C184.758 62.3987 184.84 62.7282 184.84 63.0994C184.84 63.4706 184.756 63.8068 184.587 64.108C184.42 64.4091 184.185 64.6477 183.882 64.8239C183.579 64.9981 183.225 65.0833 182.82 65.0795ZM182.817 64.3409C183.041 64.3409 183.24 64.286 183.417 64.1761C183.593 64.0663 183.732 63.9186 183.834 63.733C183.936 63.5473 183.988 63.34 183.988 63.1108C183.988 62.8873 183.937 62.6837 183.837 62.5C183.738 62.3163 183.602 62.1705 183.428 62.0625C183.256 61.9545 183.059 61.9006 182.837 61.9006C182.668 61.9006 182.512 61.9328 182.368 61.9972C182.226 62.0616 182.101 62.1506 181.993 62.2642C181.885 62.3778 181.8 62.5085 181.738 62.6562C181.677 62.8021 181.647 62.9564 181.647 63.1193C181.647 63.3371 181.697 63.5388 181.797 63.7244C181.899 63.91 182.039 64.0597 182.215 64.1733C182.393 64.285 182.594 64.3409 182.817 64.3409ZM186.375 65V64.3636L188.343 62.3239C188.554 62.1023 188.727 61.9081 188.863 61.7415C189.002 61.5729 189.105 61.4129 189.173 61.2614C189.241 61.1098 189.275 60.9489 189.275 60.7784C189.275 60.5852 189.23 60.4186 189.139 60.2784C189.048 60.1364 188.924 60.0275 188.767 59.9517C188.609 59.8741 188.432 59.8352 188.235 59.8352C188.027 59.8352 187.845 59.8778 187.69 59.9631C187.535 60.0483 187.415 60.1686 187.332 60.3239C187.249 60.4792 187.207 60.661 187.207 60.8693H186.369C186.369 60.5152 186.45 60.2055 186.613 59.9403C186.776 59.6752 187 59.4697 187.284 59.3239C187.568 59.1761 187.891 59.1023 188.252 59.1023C188.618 59.1023 188.94 59.1752 189.218 59.321C189.499 59.465 189.717 59.6619 189.875 59.9119C190.032 60.16 190.11 60.4403 190.11 60.7528C190.11 60.9688 190.07 61.1799 189.988 61.3864C189.909 61.5928 189.77 61.8229 189.571 62.0767C189.372 62.3286 189.095 62.6345 188.741 62.9943L187.585 64.2045V64.2472H190.204V65H186.375Z" fill="#414D55"/>
<path d="M15.646 27V18.2727H17.2269V21.9673H21.271V18.2727H22.8562V27H21.271V23.2926H17.2269V27H15.646ZM27.9052 27.1278C27.2489 27.1278 26.6822 26.9915 26.2049 26.7188C25.7305 26.4432 25.3654 26.054 25.1097 25.5511C24.854 25.0455 24.7262 24.4503 24.7262 23.7656C24.7262 23.0923 24.854 22.5014 25.1097 21.9929C25.3683 21.4815 25.729 21.0838 26.1921 20.7997C26.6552 20.5128 27.1992 20.3693 27.8242 20.3693C28.2276 20.3693 28.6083 20.4347 28.9663 20.5653C29.3271 20.6932 29.6452 20.892 29.9208 21.1619C30.1992 21.4318 30.418 21.7756 30.5771 22.1932C30.7362 22.608 30.8157 23.1023 30.8157 23.6761V24.1491H25.4506V23.1094H29.337C29.3342 22.8139 29.2702 22.5511 29.1452 22.321C29.0202 22.0881 28.8455 21.9048 28.6211 21.7713C28.3995 21.6378 28.141 21.571 27.8455 21.571C27.5302 21.571 27.2532 21.6477 27.0146 21.8011C26.7759 21.9517 26.5898 22.1506 26.4563 22.3977C26.3256 22.642 26.2589 22.9105 26.256 23.2031V24.1108C26.256 24.4915 26.3256 24.8182 26.4648 25.0909C26.604 25.3608 26.7987 25.5682 27.0487 25.7131C27.2987 25.8551 27.5913 25.9261 27.9265 25.9261C28.1509 25.9261 28.354 25.8949 28.5359 25.8324C28.7177 25.767 28.8754 25.6719 29.0089 25.5469C29.1424 25.4219 29.2433 25.267 29.3114 25.0824L30.7518 25.2443C30.6609 25.625 30.4876 25.9574 30.2319 26.2415C29.979 26.5227 29.6552 26.7415 29.2603 26.8977C28.8654 27.0511 28.4137 27.1278 27.9052 27.1278ZM34.5043 27.1321C34.0895 27.1321 33.7159 27.0582 33.3835 26.9105C33.054 26.7599 32.7926 26.5384 32.5994 26.2457C32.4091 25.9531 32.3139 25.5923 32.3139 25.1634C32.3139 24.794 32.3821 24.4886 32.5185 24.2472C32.6548 24.0057 32.8409 23.8125 33.0767 23.6676C33.3125 23.5227 33.5781 23.4134 33.8736 23.3395C34.1719 23.2628 34.4801 23.2074 34.7983 23.1733C35.1818 23.1335 35.4929 23.098 35.7315 23.0668C35.9702 23.0327 36.1435 22.9815 36.2514 22.9134C36.3622 22.8423 36.4176 22.733 36.4176 22.5852V22.5597C36.4176 22.2386 36.3224 21.9901 36.1321 21.8139C35.9418 21.6378 35.6676 21.5497 35.3097 21.5497C34.9318 21.5497 34.6321 21.6321 34.4105 21.7969C34.1918 21.9616 34.044 22.1562 33.9673 22.3807L32.527 22.1761C32.6406 21.7784 32.8281 21.446 33.0895 21.179C33.3509 20.9091 33.6705 20.7074 34.0483 20.5739C34.4261 20.4375 34.8438 20.3693 35.3011 20.3693C35.6165 20.3693 35.9304 20.4062 36.2429 20.4801C36.5554 20.554 36.8409 20.6761 37.0994 20.8466C37.358 21.0142 37.5653 21.2429 37.7216 21.5327C37.8807 21.8224 37.9602 22.1847 37.9602 22.6193V27H36.4773V26.1009H36.4261C36.3324 26.2827 36.2003 26.4531 36.0298 26.6122C35.8622 26.7685 35.6506 26.8949 35.3949 26.9915C35.142 27.0852 34.8452 27.1321 34.5043 27.1321ZM34.9048 25.9986C35.2145 25.9986 35.483 25.9375 35.7102 25.8153C35.9375 25.6903 36.1122 25.5256 36.2344 25.321C36.3594 25.1165 36.4219 24.8935 36.4219 24.652V23.8807C36.3736 23.9205 36.2912 23.9574 36.1747 23.9915C36.0611 24.0256 35.9332 24.0554 35.7912 24.081C35.6491 24.1065 35.5085 24.1293 35.3693 24.1491C35.2301 24.169 35.1094 24.1861 35.0071 24.2003C34.777 24.2315 34.571 24.2827 34.3892 24.3537C34.2074 24.4247 34.0639 24.5241 33.9588 24.652C33.8537 24.777 33.8011 24.9389 33.8011 25.1378C33.8011 25.4219 33.9048 25.6364 34.1122 25.7812C34.3196 25.9261 34.5838 25.9986 34.9048 25.9986ZM40.0114 27V20.4545H41.5071V21.5455H41.5753C41.6946 21.1676 41.8991 20.8764 42.1889 20.6719C42.4815 20.4645 42.8153 20.3608 43.1903 20.3608C43.2756 20.3608 43.3707 20.3651 43.4759 20.3736C43.5838 20.3793 43.6733 20.3892 43.7443 20.4034V21.8224C43.679 21.7997 43.5753 21.7798 43.4332 21.7628C43.294 21.7429 43.1591 21.733 43.0284 21.733C42.7472 21.733 42.4943 21.794 42.2699 21.9162C42.0483 22.0355 41.8736 22.2017 41.7457 22.4148C41.6179 22.6278 41.554 22.8736 41.554 23.152V27H40.0114ZM48.8892 20.4545V21.6477H45.1264V20.4545H48.8892ZM46.0554 18.8864H47.598V25.0312C47.598 25.2386 47.6293 25.3977 47.6918 25.5085C47.7571 25.6165 47.8423 25.6903 47.9474 25.7301C48.0526 25.7699 48.169 25.7898 48.2969 25.7898C48.3935 25.7898 48.4815 25.7827 48.5611 25.7685C48.6435 25.7543 48.706 25.7415 48.7486 25.7301L49.0085 26.9361C48.9261 26.9645 48.8082 26.9957 48.6548 27.0298C48.5043 27.0639 48.3196 27.0838 48.1009 27.0895C47.7145 27.1009 47.3665 27.0426 47.0568 26.9148C46.7472 26.7841 46.5014 26.5824 46.3196 26.3097C46.1406 26.0369 46.0526 25.696 46.0554 25.2869V18.8864ZM54.2241 27V18.2727H57.4968C58.1673 18.2727 58.7298 18.3892 59.1843 18.6222C59.6417 18.8551 59.9869 19.1818 60.2198 19.6023C60.4556 20.0199 60.5735 20.5071 60.5735 21.0639C60.5735 21.6236 60.4542 22.1094 60.2156 22.5213C59.9798 22.9304 59.6317 23.2472 59.1715 23.4716C58.7113 23.6932 58.146 23.804 57.4755 23.804H55.1445V22.4915H57.2624C57.6545 22.4915 57.9755 22.4375 58.2255 22.3295C58.4755 22.2187 58.6602 22.0582 58.7795 21.848C58.9016 21.6349 58.9627 21.3736 58.9627 21.0639C58.9627 20.7543 58.9016 20.4901 58.7795 20.2713C58.6573 20.0497 58.4712 19.8821 58.2212 19.7685C57.9712 19.652 57.6488 19.5938 57.2539 19.5938H55.805V27H54.2241ZM58.7326 23.0455L60.8931 27H59.1289L57.0067 23.0455H58.7326ZM64.3441 27.1321C63.9293 27.1321 63.5558 27.0582 63.2234 26.9105C62.8938 26.7599 62.6325 26.5384 62.4393 26.2457C62.2489 25.9531 62.1538 25.5923 62.1538 25.1634C62.1538 24.794 62.2219 24.4886 62.3583 24.2472C62.4947 24.0057 62.6808 23.8125 62.9165 23.6676C63.1523 23.5227 63.418 23.4134 63.7134 23.3395C64.0117 23.2628 64.32 23.2074 64.6381 23.1733C65.0217 23.1335 65.3327 23.098 65.5714 23.0668C65.81 23.0327 65.9833 22.9815 66.0913 22.9134C66.2021 22.8423 66.2575 22.733 66.2575 22.5852V22.5597C66.2575 22.2386 66.1623 21.9901 65.9719 21.8139C65.7816 21.6378 65.5075 21.5497 65.1495 21.5497C64.7717 21.5497 64.4719 21.6321 64.2504 21.7969C64.0316 21.9616 63.8839 22.1562 63.8072 22.3807L62.3668 22.1761C62.4805 21.7784 62.668 21.446 62.9293 21.179C63.1907 20.9091 63.5103 20.7074 63.8881 20.5739C64.266 20.4375 64.6836 20.3693 65.141 20.3693C65.4563 20.3693 65.7702 20.4062 66.0827 20.4801C66.3952 20.554 66.6808 20.6761 66.9393 20.8466C67.1978 21.0142 67.4052 21.2429 67.5614 21.5327C67.7205 21.8224 67.8001 22.1847 67.8001 22.6193V27H66.3171V26.1009H66.266C66.1722 26.2827 66.0401 26.4531 65.8697 26.6122C65.7021 26.7685 65.4904 26.8949 65.2347 26.9915C64.9819 27.0852 64.685 27.1321 64.3441 27.1321ZM64.7447 25.9986C65.0543 25.9986 65.3228 25.9375 65.5501 25.8153C65.7773 25.6903 65.9521 25.5256 66.0742 25.321C66.1992 25.1165 66.2617 24.8935 66.2617 24.652V23.8807C66.2134 23.9205 66.131 23.9574 66.0146 23.9915C65.9009 24.0256 65.7731 24.0554 65.631 24.081C65.489 24.1065 65.3484 24.1293 65.2092 24.1491C65.07 24.169 64.9492 24.1861 64.8469 24.2003C64.6168 24.2315 64.4109 24.2827 64.229 24.3537C64.0472 24.4247 63.9038 24.5241 63.7987 24.652C63.6935 24.777 63.641 24.9389 63.641 25.1378C63.641 25.4219 63.7447 25.6364 63.9521 25.7812C64.1594 25.9261 64.4237 25.9986 64.7447 25.9986ZM73.1197 20.4545V21.6477H69.3569V20.4545H73.1197ZM70.2859 18.8864H71.8285V25.0312C71.8285 25.2386 71.8597 25.3977 71.9222 25.5085C71.9876 25.6165 72.0728 25.6903 72.1779 25.7301C72.283 25.7699 72.3995 25.7898 72.5273 25.7898C72.6239 25.7898 72.712 25.7827 72.7915 25.7685C72.8739 25.7543 72.9364 25.7415 72.979 25.7301L73.239 26.9361C73.1566 26.9645 73.0387 26.9957 72.8853 27.0298C72.7347 27.0639 72.5501 27.0838 72.3313 27.0895C71.945 27.1009 71.5969 27.0426 71.2873 26.9148C70.9776 26.7841 70.7319 26.5824 70.5501 26.3097C70.3711 26.0369 70.283 25.696 70.2859 25.2869V18.8864ZM77.7372 27.1278C77.081 27.1278 76.5142 26.9915 76.0369 26.7188C75.5625 26.4432 75.1974 26.054 74.9418 25.5511C74.6861 25.0455 74.5582 24.4503 74.5582 23.7656C74.5582 23.0923 74.6861 22.5014 74.9418 21.9929C75.2003 21.4815 75.5611 21.0838 76.0241 20.7997C76.4872 20.5128 77.0312 20.3693 77.6562 20.3693C78.0597 20.3693 78.4403 20.4347 78.7983 20.5653C79.1591 20.6932 79.4773 20.892 79.7528 21.1619C80.0313 21.4318 80.25 21.7756 80.4091 22.1932C80.5682 22.608 80.6477 23.1023 80.6477 23.6761V24.1491H75.2827V23.1094H79.169C79.1662 22.8139 79.1023 22.5511 78.9773 22.321C78.8523 22.0881 78.6776 21.9048 78.4531 21.7713C78.2315 21.6378 77.973 21.571 77.6776 21.571C77.3622 21.571 77.0852 21.6477 76.8466 21.8011C76.608 21.9517 76.4219 22.1506 76.2884 22.3977C76.1577 22.642 76.0909 22.9105 76.0881 23.2031V24.1108C76.0881 24.4915 76.1577 24.8182 76.2969 25.0909C76.4361 25.3608 76.6307 25.5682 76.8807 25.7131C77.1307 25.8551 77.4233 25.9261 77.7585 25.9261C77.983 25.9261 78.1861 25.8949 78.3679 25.8324C78.5497 25.767 78.7074 25.6719 78.8409 25.5469C78.9744 25.4219 79.0753 25.267 79.1435 25.0824L80.5838 25.2443C80.4929 25.625 80.3196 25.9574 80.0639 26.2415C79.8111 26.5227 79.4872 26.7415 79.0923 26.8977C78.6974 27.0511 78.2457 27.1278 77.7372 27.1278Z" fill="black"/>
<path d="M157.621 23C157.621 17.4772 162.098 13 167.621 13H221.621C227.144 13 231.621 17.4772 231.621 23C231.621 28.5228 227.144 33 221.621 33H167.621C162.098 33 157.621 28.5228 157.621 23Z" fill="#F2F2F7"/>
<g clip-path="url(#clip0_8151_134256)">
<path d="M169.621 20V23L171.621 24M174.621 23C174.621 25.7614 172.383 28 169.621 28C166.86 28 164.621 25.7614 164.621 23C164.621 20.2386 166.86 18 169.621 18C172.383 18 174.621 20.2386 174.621 23Z" stroke="#0088FF" stroke-width="1.2" stroke-linecap="round" stroke-linejoin="round"/>
</g>
<path d="M182.341 25.5V19.6818H183.046V24.875H185.75V25.5H182.341ZM188.034 25.6023C187.758 25.6023 187.507 25.5502 187.282 25.446C187.056 25.34 186.877 25.1875 186.745 24.9886C186.612 24.7879 186.546 24.5455 186.546 24.2614C186.546 24.0114 186.595 23.8087 186.694 23.6534C186.792 23.4962 186.924 23.3731 187.088 23.2841C187.253 23.1951 187.435 23.1288 187.634 23.0852C187.835 23.0398 188.036 23.0038 188.239 22.9773C188.504 22.9432 188.719 22.9176 188.884 22.9006C189.051 22.8816 189.172 22.8504 189.248 22.8068C189.325 22.7633 189.364 22.6875 189.364 22.5795V22.5568C189.364 22.2765 189.287 22.0587 189.134 21.9034C188.982 21.7481 188.752 21.6705 188.444 21.6705C188.123 21.6705 187.873 21.7405 187.691 21.8807C187.509 22.0208 187.381 22.1705 187.307 22.3295L186.671 22.1023C186.784 21.8371 186.936 21.6307 187.125 21.483C187.317 21.3333 187.525 21.2292 187.75 21.1705C187.978 21.1098 188.201 21.0795 188.421 21.0795C188.561 21.0795 188.722 21.0966 188.904 21.1307C189.087 21.1629 189.265 21.2301 189.435 21.3324C189.607 21.4347 189.75 21.589 189.864 21.7955C189.978 22.0019 190.034 22.2784 190.034 22.625V25.5H189.364V24.9091H189.33C189.284 25.0038 189.209 25.1051 189.103 25.2131C188.997 25.321 188.855 25.4129 188.679 25.4886C188.503 25.5644 188.288 25.6023 188.034 25.6023ZM188.137 25C188.402 25 188.625 24.9479 188.807 24.8438C188.991 24.7396 189.129 24.6051 189.222 24.4403C189.317 24.2756 189.364 24.1023 189.364 23.9205V23.3068C189.336 23.3409 189.273 23.3722 189.176 23.4006C189.082 23.4271 188.972 23.4508 188.847 23.4716C188.724 23.4905 188.604 23.5076 188.486 23.5227C188.371 23.536 188.277 23.5473 188.205 23.5568C188.031 23.5795 187.868 23.6165 187.716 23.6676C187.567 23.7169 187.445 23.7917 187.353 23.892C187.262 23.9905 187.216 24.125 187.216 24.2955C187.216 24.5284 187.302 24.7045 187.475 24.8239C187.649 24.9413 187.87 25 188.137 25ZM194.349 22.1136L193.747 22.2841C193.709 22.1837 193.653 22.0862 193.579 21.9915C193.507 21.8949 193.409 21.8153 193.284 21.7528C193.159 21.6903 192.999 21.6591 192.804 21.6591C192.537 21.6591 192.314 21.7206 192.136 21.8438C191.96 21.965 191.872 22.1193 191.872 22.3068C191.872 22.4735 191.932 22.6051 192.054 22.7017C192.175 22.7983 192.364 22.8788 192.622 22.9432L193.27 23.1023C193.66 23.197 193.95 23.3419 194.142 23.5369C194.333 23.7301 194.429 23.9792 194.429 24.2841C194.429 24.5341 194.357 24.7576 194.213 24.9545C194.071 25.1515 193.872 25.3068 193.616 25.4205C193.36 25.5341 193.063 25.5909 192.724 25.5909C192.279 25.5909 191.911 25.4943 191.619 25.3011C191.327 25.108 191.143 24.8258 191.065 24.4545L191.701 24.2955C191.762 24.5303 191.877 24.7064 192.045 24.8239C192.216 24.9413 192.438 25 192.713 25C193.025 25 193.273 24.9337 193.457 24.8011C193.643 24.6667 193.735 24.5057 193.735 24.3182C193.735 24.1667 193.682 24.0398 193.576 23.9375C193.47 23.8333 193.307 23.7557 193.088 23.7045L192.36 23.5341C191.961 23.4394 191.667 23.2926 191.48 23.0938C191.294 22.893 191.201 22.642 191.201 22.3409C191.201 22.0947 191.27 21.8769 191.409 21.6875C191.549 21.4981 191.739 21.3494 191.98 21.2415C192.222 21.1335 192.497 21.0795 192.804 21.0795C193.235 21.0795 193.574 21.1742 193.821 21.3636C194.069 21.553 194.245 21.803 194.349 22.1136ZM197.336 21.1364V21.7045H195.074V21.1364H197.336ZM195.733 20.0909H196.404V24.25C196.404 24.4394 196.431 24.5814 196.486 24.6761C196.543 24.7689 196.615 24.8314 196.702 24.8636C196.791 24.8939 196.885 24.9091 196.983 24.9091C197.057 24.9091 197.118 24.9053 197.165 24.8977C197.212 24.8883 197.25 24.8807 197.279 24.875L197.415 25.4773C197.37 25.4943 197.306 25.5114 197.225 25.5284C197.143 25.5473 197.04 25.5568 196.915 25.5568C196.726 25.5568 196.54 25.5161 196.358 25.4347C196.178 25.3532 196.029 25.2292 195.909 25.0625C195.792 24.8958 195.733 24.6856 195.733 24.4318V20.0909ZM200.583 25.5V24.9886L202.503 22.8864C202.729 22.6402 202.914 22.4261 203.06 22.2443C203.206 22.0606 203.314 21.8883 203.384 21.7273C203.456 21.5644 203.492 21.3939 203.492 21.2159C203.492 21.0114 203.443 20.8343 203.344 20.6847C203.248 20.535 203.115 20.4195 202.946 20.3381C202.778 20.2566 202.588 20.2159 202.378 20.2159C202.155 20.2159 201.96 20.2623 201.793 20.3551C201.628 20.446 201.5 20.5739 201.409 20.7386C201.32 20.9034 201.276 21.0966 201.276 21.3182H200.605C200.605 20.9773 200.684 20.678 200.841 20.4205C200.998 20.1629 201.212 19.9621 201.483 19.8182C201.756 19.6742 202.062 19.6023 202.401 19.6023C202.742 19.6023 203.044 19.6742 203.307 19.8182C203.57 19.9621 203.777 20.1562 203.926 20.4006C204.076 20.6449 204.151 20.9167 204.151 21.2159C204.151 21.4299 204.112 21.6392 204.034 21.8438C203.959 22.0464 203.826 22.2727 203.637 22.5227C203.449 22.7708 203.189 23.0739 202.855 23.4318L201.549 24.8295V24.875H204.253V25.5H200.583ZM207.324 25.5795C206.896 25.5795 206.532 25.4631 206.23 25.2301C205.929 24.9953 205.699 24.6553 205.54 24.2102C205.381 23.7633 205.301 23.2235 205.301 22.5909C205.301 21.9621 205.381 21.4252 205.54 20.9801C205.701 20.5331 205.932 20.1922 206.233 19.9574C206.536 19.7206 206.9 19.6023 207.324 19.6023C207.748 19.6023 208.111 19.7206 208.412 19.9574C208.715 20.1922 208.946 20.5331 209.105 20.9801C209.266 21.4252 209.347 21.9621 209.347 22.5909C209.347 23.2235 209.267 23.7633 209.108 24.2102C208.949 24.6553 208.719 24.9953 208.418 25.2301C208.117 25.4631 207.752 25.5795 207.324 25.5795ZM207.324 24.9545C207.748 24.9545 208.078 24.75 208.313 24.3409C208.548 23.9318 208.665 23.3485 208.665 22.5909C208.665 22.0871 208.611 21.6581 208.503 21.304C208.397 20.9498 208.244 20.6799 208.043 20.4943C207.844 20.3087 207.605 20.2159 207.324 20.2159C206.904 20.2159 206.575 20.4233 206.338 20.8381C206.102 21.2509 205.983 21.8352 205.983 22.5909C205.983 23.0947 206.036 23.5227 206.142 23.875C206.248 24.2273 206.401 24.4953 206.6 24.679C206.801 24.8627 207.042 24.9545 207.324 24.9545ZM212.688 25.5V21.1364H213.336V21.8182H213.392C213.483 21.5852 213.63 21.4044 213.833 21.2756C214.035 21.1449 214.279 21.0795 214.563 21.0795C214.851 21.0795 215.09 21.1449 215.282 21.2756C215.475 21.4044 215.625 21.5852 215.733 21.8182H215.779C215.891 21.5928 216.058 21.4138 216.282 21.2812C216.505 21.1468 216.773 21.0795 217.086 21.0795C217.476 21.0795 217.795 21.2017 218.043 21.446C218.291 21.6884 218.415 22.0663 218.415 22.5795V25.5H217.745V22.5795C217.745 22.2576 217.657 22.0275 217.48 21.8892C217.304 21.7509 217.097 21.6818 216.858 21.6818C216.551 21.6818 216.314 21.7746 216.145 21.9602C215.977 22.1439 215.892 22.3769 215.892 22.6591V25.5H215.211V22.5114C215.211 22.2633 215.13 22.0634 214.969 21.9119C214.808 21.7585 214.601 21.6818 214.347 21.6818C214.173 21.6818 214.01 21.7282 213.858 21.821C213.709 21.9138 213.587 22.0426 213.495 22.2074C213.404 22.3703 213.358 22.5587 213.358 22.7727V25.5H212.688ZM219.641 25.5V21.1364H220.311V25.5H219.641ZM219.982 20.4091C219.851 20.4091 219.739 20.3646 219.644 20.2756C219.551 20.1866 219.505 20.0795 219.505 19.9545C219.505 19.8295 219.551 19.7225 219.644 19.6335C219.739 19.5445 219.851 19.5 219.982 19.5C220.113 19.5 220.224 19.5445 220.317 19.6335C220.412 19.7225 220.459 19.8295 220.459 19.9545C220.459 20.0795 220.412 20.1866 220.317 20.2756C220.224 20.3646 220.113 20.4091 219.982 20.4091ZM222.21 22.875V25.5H221.539V21.1364H222.187V21.8182H222.244C222.346 21.5966 222.502 21.4186 222.71 21.2841C222.918 21.1477 223.187 21.0795 223.517 21.0795C223.812 21.0795 224.071 21.1402 224.292 21.2614C224.514 21.3807 224.686 21.5625 224.809 21.8068C224.932 22.0492 224.994 22.3561 224.994 22.7273V25.5H224.324V22.7727C224.324 22.4299 224.234 22.1629 224.056 21.9716C223.878 21.7784 223.634 21.6818 223.324 21.6818C223.109 21.6818 222.918 21.7282 222.75 21.821C222.583 21.9138 222.451 22.0492 222.355 22.2273C222.258 22.4053 222.21 22.6212 222.21 22.875Z" fill="black"/>
<defs>
<filter id="filter0_dd_8151_134256" x="0" y="0" width="248" height="124" filterUnits="userSpaceOnUse" color-interpolation-filters="sRGB">
<feFlood flood-opacity="0" result="BackgroundImageFix"/>
<feColorMatrix in="SourceAlpha" type="matrix" values="0 0 0 0 0 0 0 0 0 0 0 0 0 0 0 0 0 0 127 0" result="hardAlpha"/>
<feOffset dy="1"/>
<feGaussianBlur stdDeviation="2"/>
<feComposite in2="hardAlpha" operator="out"/>
<feColorMatrix type="matrix" values="0 0 0 0 0.0470588 0 0 0 0 0.0470588 0 0 0 0 0.0509804 0 0 0 0.05 0"/>
<feBlend mode="normal" in2="BackgroundImageFix" result="effect1_dropShadow_8151_134256"/>
<feColorMatrix in="SourceAlpha" type="matrix" values="0 0 0 0 0 0 0 0 0 0 0 0 0 0 0 0 0 0 127 0" result="hardAlpha"/>
<feOffset dy="1"/>
<feGaussianBlur stdDeviation="2"/>
<feComposite in2="hardAlpha" operator="out"/>
<feColorMatrix type="matrix" values="0 0 0 0 0.0470588 0 0 0 0 0.0470588 0 0 0 0 0.0509804 0 0 0 0.1 0"/>
<feBlend mode="normal" in2="effect1_dropShadow_8151_134256" result="effect2_dropShadow_8151_134256"/>
<feBlend mode="normal" in="SourceGraphic" in2="effect2_dropShadow_8151_134256" result="shape"/>
</filter>
<filter id="filter1_d_8151_134256" x="155.883" y="40" width="61.1602" height="52.8984" filterUnits="userSpaceOnUse" color-interpolation-filters="sRGB">
<feFlood flood-opacity="0" result="BackgroundImageFix"/>
<feColorMatrix in="SourceAlpha" type="matrix" values="0 0 0 0 0 0 0 0 0 0 0 0 0 0 0 0 0 0 127 0" result="hardAlpha"/>
<feOffset dy="2"/>
<feGaussianBlur stdDeviation="8"/>
<feColorMatrix type="matrix" values="0 0 0 0 0.293333 0 0 0 0 0.333211 0 0 0 0 0.431373 0 0 0 0.2 0"/>
<feBlend mode="normal" in2="BackgroundImageFix" result="effect1_dropShadow_8151_134256"/>
<feBlend mode="normal" in="SourceGraphic" in2="effect1_dropShadow_8151_134256" result="shape"/>
</filter>
<linearGradient id="paint0_linear_8151_134256" x1="243.341" y1="149.138" x2="243.341" y2="62.3984" gradientUnits="userSpaceOnUse">
<stop stop-color="white" stop-opacity="0.1"/>
<stop offset="1" stop-color="#0595FD"/>
</linearGradient>
<clipPath id="clip0_8151_134256">
<rect width="12" height="12" fill="white" transform="translate(163.621 17)"/>
</clipPath>
</defs>
</svg>
