<svg width="248" height="124" viewBox="0 0 248 124" fill="none" xmlns="http://www.w3.org/2000/svg">
<g filter="url(#filter0_dd_7613_32618)">
<rect x="4" y="3" width="240" height="116" rx="16" fill="#F6F9FF"/>
</g>
<mask id="mask0_7613_32618" style="mask-type:luminance" maskUnits="userSpaceOnUse" x="4" y="3" width="240" height="116">
<rect x="4" y="3" width="240" height="116" rx="10" fill="white"/>
</mask>
<g mask="url(#mask0_7613_32618)">
<path opacity="0.5" fill-rule="evenodd" clip-rule="evenodd" d="M4 95.9535C4 95.9535 33.2853 72.4318 43.1444 70.7075C53.0035 68.9831 68.0996 93.927 84.2139 93.4286C100.328 92.9303 113.153 83.8905 124 82.1474C134.847 80.4042 146.211 95.6169 164.428 99.2C182.645 102.783 195.17 66.0694 203.572 63.0609C211.974 60.0523 244 70.7075 244 70.7075V149.616H4V95.9535Z" fill="url(#paint0_linear_7613_32618)" fill-opacity="0.5"/>
<path d="M4 96.3668C4 96.3668 33.2853 72.5554 43.1444 70.8098C53.0035 69.0642 68.0996 94.3153 84.2139 93.8109C100.328 93.3064 113.153 84.1552 124 82.3906C134.847 80.626 146.211 96.0261 164.428 99.6533C182.645 103.28 195.17 66.1147 203.572 63.069C211.974 60.0234 244 70.8098 244 70.8098" stroke="#0595FD" stroke-width="3" stroke-linecap="round"/>
</g>
<path fill-rule="evenodd" clip-rule="evenodd" d="M148.087 97.3311C151.666 97.3311 154.568 94.8741 154.568 91.8433C154.568 88.8124 151.666 86.3555 148.087 86.3555C144.509 86.3555 141.607 88.8124 141.607 91.8433C141.607 94.8741 144.509 97.3311 148.087 97.3311Z" fill="white"/>
<path fill-rule="evenodd" clip-rule="evenodd" d="M148.088 95.5007C150.473 95.5007 152.408 93.8627 152.408 91.8421C152.408 89.8216 150.473 88.1836 148.088 88.1836C145.702 88.1836 143.768 89.8216 143.768 91.8421C143.768 93.8627 145.702 95.5007 148.088 95.5007Z" fill="#0496FF"/>
<g filter="url(#filter1_d_7613_32618)">
<path fill-rule="evenodd" clip-rule="evenodd" d="M155.209 63C159.627 63 163.209 66.5817 163.209 71V71.9746C163.209 76.3929 159.627 79.9746 155.209 79.9746H152.305L148.169 83.8975L144.034 79.9746H142.049C137.631 79.9745 134.049 76.3928 134.049 71.9746V71C134.049 66.5818 137.631 63.0001 142.049 63H155.209Z" fill="white"/>
</g>
<path d="M144.986 74.0795C144.726 74.0758 144.471 74.0284 144.219 73.9375C143.969 73.8466 143.742 73.6951 143.537 73.483C143.333 73.2708 143.169 72.9858 143.046 72.6278C142.924 72.2699 142.864 71.8229 142.864 71.2869C142.864 70.7794 142.914 70.3286 143.014 69.9347C143.117 69.5407 143.263 69.2083 143.455 68.9375C143.646 68.6648 143.877 68.4574 144.148 68.3153C144.419 68.1733 144.723 68.1023 145.06 68.1023C145.406 68.1023 145.714 68.1705 145.983 68.3068C146.252 68.4432 146.47 68.6316 146.637 68.8722C146.805 69.1127 146.912 69.3864 146.958 69.6932H146.091C146.032 69.4508 145.916 69.2528 145.742 69.0994C145.567 68.946 145.34 68.8693 145.06 68.8693C144.634 68.8693 144.301 69.0549 144.063 69.4261C143.826 69.7973 143.707 70.3134 143.705 70.9744H143.747C143.848 70.8097 143.971 70.6695 144.117 70.554C144.264 70.4366 144.429 70.3466 144.611 70.2841C144.795 70.2197 144.988 70.1875 145.19 70.1875C145.528 70.1875 145.833 70.2699 146.105 70.4347C146.38 70.5975 146.599 70.8229 146.762 71.1108C146.924 71.3987 147.006 71.7282 147.006 72.0994C147.006 72.4706 146.922 72.8068 146.753 73.108C146.586 73.4091 146.351 73.6477 146.048 73.8239C145.745 73.9981 145.391 74.0833 144.986 74.0795ZM144.983 73.3409C145.207 73.3409 145.406 73.286 145.583 73.1761C145.759 73.0663 145.898 72.9186 146 72.733C146.102 72.5473 146.154 72.34 146.154 72.1108C146.154 71.8873 146.103 71.6837 146.003 71.5C145.905 71.3163 145.768 71.1705 145.594 71.0625C145.422 70.9545 145.225 70.9006 145.003 70.9006C144.834 70.9006 144.678 70.9328 144.534 70.9972C144.392 71.0616 144.267 71.1506 144.159 71.2642C144.051 71.3778 143.966 71.5085 143.904 71.6562C143.843 71.8021 143.813 71.9564 143.813 72.1193C143.813 72.3371 143.863 72.5388 143.963 72.7244C144.065 72.91 144.205 73.0597 144.381 73.1733C144.559 73.285 144.76 73.3409 144.983 73.3409ZM148.541 74V73.3636L150.509 71.3239C150.72 71.1023 150.893 70.9081 151.029 70.7415C151.168 70.5729 151.271 70.4129 151.339 70.2614C151.407 70.1098 151.441 69.9489 151.441 69.7784C151.441 69.5852 151.396 69.4186 151.305 69.2784C151.214 69.1364 151.09 69.0275 150.933 68.9517C150.775 68.8741 150.598 68.8352 150.401 68.8352C150.193 68.8352 150.011 68.8778 149.856 68.9631C149.701 69.0483 149.581 69.1686 149.498 69.3239C149.415 69.4792 149.373 69.661 149.373 69.8693H148.535C148.535 69.5152 148.616 69.2055 148.779 68.9403C148.942 68.6752 149.166 68.4697 149.45 68.3239C149.734 68.1761 150.057 68.1023 150.418 68.1023C150.784 68.1023 151.106 68.1752 151.384 68.321C151.665 68.465 151.883 68.6619 152.041 68.9119C152.198 69.16 152.276 69.4403 152.276 69.7528C152.276 69.9688 152.236 70.1799 152.154 70.3864C152.075 70.5928 151.936 70.8229 151.737 71.0767C151.538 71.3286 151.261 71.6345 150.907 71.9943L149.751 73.2045V73.2472H152.37V74H148.541Z" fill="#414D55"/>
<path d="M20.3888 20.6719C20.3491 20.2997 20.1815 20.0099 19.886 19.8026C19.5934 19.5952 19.2127 19.4915 18.744 19.4915C18.4144 19.4915 18.1317 19.5412 17.896 19.6406C17.6602 19.7401 17.4798 19.875 17.3548 20.0455C17.2298 20.2159 17.1658 20.4105 17.163 20.6293C17.163 20.8111 17.2042 20.9687 17.2866 21.1023C17.3718 21.2358 17.4869 21.3494 17.6317 21.4432C17.7766 21.5341 17.9371 21.6108 18.1133 21.6733C18.2894 21.7358 18.467 21.7884 18.646 21.831L19.4641 22.0355C19.7937 22.1122 20.1104 22.2159 20.4144 22.3466C20.7212 22.4773 20.9954 22.642 21.2369 22.8409C21.4812 23.0398 21.6744 23.2798 21.8164 23.5611C21.9585 23.8423 22.0295 24.1719 22.0295 24.5497C22.0295 25.0611 21.8988 25.5114 21.6374 25.9006C21.3761 26.2869 20.9982 26.5895 20.5039 26.8082C20.0124 27.0241 19.4173 27.1321 18.7184 27.1321C18.0394 27.1321 17.4499 27.027 16.9499 26.8168C16.4528 26.6065 16.0636 26.2997 15.7823 25.8963C15.5039 25.4929 15.3533 25.0014 15.3306 24.4219H16.886C16.9087 24.7259 17.0025 24.9787 17.1673 25.1804C17.332 25.3821 17.5465 25.5327 17.8107 25.6321C18.0778 25.7315 18.3761 25.7812 18.7056 25.7812C19.0494 25.7812 19.3505 25.7301 19.609 25.6278C19.8704 25.5227 20.0749 25.3778 20.2227 25.1932C20.3704 25.0057 20.4457 24.7869 20.4485 24.5369C20.4457 24.3097 20.3789 24.1222 20.2482 23.9744C20.1175 23.8239 19.9343 23.6989 19.6985 23.5994C19.4656 23.4972 19.1928 23.4062 18.8803 23.3267L17.8874 23.071C17.1687 22.8864 16.6005 22.6065 16.1829 22.2315C15.7681 21.8537 15.5607 21.3523 15.5607 20.7273C15.5607 20.2131 15.6999 19.7628 15.9783 19.3764C16.2596 18.9901 16.6417 18.6903 17.1246 18.4773C17.6076 18.2614 18.1545 18.1534 18.7653 18.1534C19.3846 18.1534 19.9272 18.2614 20.3931 18.4773C20.8619 18.6903 21.2298 18.9872 21.4968 19.3679C21.7638 19.7457 21.9016 20.1804 21.9102 20.6719H20.3888ZM23.8707 29.4545V20.4545H25.3878V21.5369H25.4773C25.5568 21.3778 25.669 21.2088 25.8139 21.0298C25.9588 20.848 26.1548 20.6932 26.402 20.5653C26.6491 20.4347 26.9645 20.3693 27.348 20.3693C27.8537 20.3693 28.3097 20.4986 28.7159 20.7571C29.125 21.0128 29.4489 21.392 29.6875 21.8949C29.929 22.3949 30.0497 23.0085 30.0497 23.7358C30.0497 24.4545 29.9318 25.0653 29.696 25.5682C29.4602 26.071 29.1392 26.4545 28.733 26.7188C28.3267 26.983 27.8665 27.1151 27.3523 27.1151C26.9773 27.1151 26.6662 27.0526 26.419 26.9276C26.1719 26.8026 25.973 26.652 25.8224 26.4759C25.6747 26.2969 25.5597 26.1278 25.4773 25.9688H25.4134V29.4545H23.8707ZM25.3835 23.7273C25.3835 24.1506 25.4432 24.5213 25.5625 24.8395C25.6847 25.1577 25.8594 25.4062 26.0866 25.5852C26.3168 25.7614 26.5952 25.8494 26.9219 25.8494C27.2628 25.8494 27.5483 25.7585 27.7784 25.5767C28.0085 25.392 28.1818 25.1406 28.2983 24.8224C28.4176 24.5014 28.4773 24.1364 28.4773 23.7273C28.4773 23.321 28.419 22.9602 28.3026 22.6449C28.1861 22.3295 28.0128 22.0824 27.7827 21.9034C27.5526 21.7244 27.2656 21.6349 26.9219 21.6349C26.5923 21.6349 26.3125 21.7216 26.0824 21.8949C25.8523 22.0682 25.6776 22.3111 25.5582 22.6236C25.4418 22.9361 25.3835 23.304 25.3835 23.7273ZM39.7372 22.6364C39.7372 23.5767 39.5611 24.3821 39.2088 25.0526C38.8594 25.7202 38.3821 26.2315 37.777 26.5866C37.1747 26.9418 36.4915 27.1193 35.7273 27.1193C34.9631 27.1193 34.2784 26.9418 33.6733 26.5866C33.071 26.2287 32.5938 25.7159 32.2415 25.0483C31.892 24.3778 31.7173 23.5739 31.7173 22.6364C31.7173 21.696 31.892 20.892 32.2415 20.2244C32.5938 19.554 33.071 19.0412 33.6733 18.6861C34.2784 18.331 34.9631 18.1534 35.7273 18.1534C36.4915 18.1534 37.1747 18.331 37.777 18.6861C38.3821 19.0412 38.8594 19.554 39.2088 20.2244C39.5611 20.892 39.7372 21.696 39.7372 22.6364ZM38.1477 22.6364C38.1477 21.9744 38.044 21.4162 37.8366 20.9616C37.6321 20.5043 37.348 20.1591 36.9844 19.9261C36.6207 19.6903 36.2017 19.5724 35.7273 19.5724C35.2528 19.5724 34.8338 19.6903 34.4702 19.9261C34.1065 20.1591 33.821 20.5043 33.6136 20.9616C33.4091 21.4162 33.3068 21.9744 33.3068 22.6364C33.3068 23.2983 33.4091 23.858 33.6136 24.3153C33.821 24.7699 34.1065 25.1151 34.4702 25.3509C34.8338 25.5838 35.2528 25.7003 35.7273 25.7003C36.2017 25.7003 36.6207 25.5838 36.9844 25.3509C37.348 25.1151 37.6321 24.7699 37.8366 24.3153C38.044 23.858 38.1477 23.2983 38.1477 22.6364ZM41.4208 28.5V27.652L43.4705 25.9517C43.641 25.8097 43.7873 25.6804 43.9094 25.5639C44.0316 25.4446 44.1254 25.3281 44.1907 25.2145C44.256 25.098 44.2887 24.9716 44.2887 24.8352C44.2887 24.6136 44.2006 24.4403 44.0245 24.3153C43.8484 24.1903 43.6325 24.1278 43.3768 24.1278C43.104 24.1278 42.8839 24.1974 42.7163 24.3366C42.5515 24.473 42.4691 24.6634 42.4691 24.9077H41.3398C41.3398 24.3793 41.5316 23.9631 41.9151 23.6591C42.3015 23.3523 42.7944 23.1989 43.3938 23.1989C43.8001 23.1989 44.1538 23.2713 44.4549 23.4162C44.7589 23.5582 44.9947 23.7514 45.1623 23.9957C45.3299 24.2401 45.4137 24.5142 45.4137 24.8182C45.4137 25.0625 45.364 25.2898 45.2646 25.5C45.1651 25.7074 45.0103 25.9162 44.8001 26.1264C44.5898 26.3338 44.3214 26.5582 43.9947 26.7997L43.1168 27.4986V27.5369H45.5075V28.5H41.4208Z" fill="black"/>
<path d="M157.623 23C157.623 17.4772 162.1 13 167.623 13H221.623C227.146 13 231.623 17.4772 231.623 23C231.623 28.5228 227.146 33 221.623 33H167.623C162.1 33 157.623 28.5228 157.623 23Z" fill="#F2F2F7"/>
<g clip-path="url(#clip0_7613_32618)">
<path d="M169.623 20V23L171.623 24M174.623 23C174.623 25.7614 172.384 28 169.623 28C166.862 28 164.623 25.7614 164.623 23C164.623 20.2386 166.862 18 169.623 18C172.384 18 174.623 20.2386 174.623 23Z" stroke="#0088FF" stroke-width="1.2" stroke-linecap="round" stroke-linejoin="round"/>
</g>
<path d="M182.343 25.5V19.6818H183.048V24.875H185.752V25.5H182.343ZM188.036 25.6023C187.76 25.6023 187.509 25.5502 187.284 25.446C187.058 25.34 186.879 25.1875 186.747 24.9886C186.614 24.7879 186.548 24.5455 186.548 24.2614C186.548 24.0114 186.597 23.8087 186.695 23.6534C186.794 23.4962 186.926 23.3731 187.09 23.2841C187.255 23.1951 187.437 23.1288 187.636 23.0852C187.837 23.0398 188.038 23.0038 188.241 22.9773C188.506 22.9432 188.721 22.9176 188.886 22.9006C189.052 22.8816 189.174 22.8504 189.249 22.8068C189.327 22.7633 189.366 22.6875 189.366 22.5795V22.5568C189.366 22.2765 189.289 22.0587 189.136 21.9034C188.984 21.7481 188.754 21.6705 188.445 21.6705C188.125 21.6705 187.874 21.7405 187.693 21.8807C187.511 22.0208 187.383 22.1705 187.309 22.3295L186.673 22.1023C186.786 21.8371 186.938 21.6307 187.127 21.483C187.319 21.3333 187.527 21.2292 187.752 21.1705C187.98 21.1098 188.203 21.0795 188.423 21.0795C188.563 21.0795 188.724 21.0966 188.906 21.1307C189.089 21.1629 189.267 21.2301 189.437 21.3324C189.609 21.4347 189.752 21.589 189.866 21.7955C189.98 22.0019 190.036 22.2784 190.036 22.625V25.5H189.366V24.9091H189.332C189.286 25.0038 189.211 25.1051 189.105 25.2131C188.999 25.321 188.857 25.4129 188.681 25.4886C188.505 25.5644 188.29 25.6023 188.036 25.6023ZM188.139 25C188.404 25 188.627 24.9479 188.809 24.8438C188.993 24.7396 189.131 24.6051 189.224 24.4403C189.319 24.2756 189.366 24.1023 189.366 23.9205V23.3068C189.338 23.3409 189.275 23.3722 189.178 23.4006C189.084 23.4271 188.974 23.4508 188.849 23.4716C188.726 23.4905 188.606 23.5076 188.488 23.5227C188.373 23.536 188.279 23.5473 188.207 23.5568C188.033 23.5795 187.87 23.6165 187.718 23.6676C187.569 23.7169 187.447 23.7917 187.355 23.892C187.264 23.9905 187.218 24.125 187.218 24.2955C187.218 24.5284 187.304 24.7045 187.477 24.8239C187.651 24.9413 187.872 25 188.139 25ZM194.351 22.1136L193.749 22.2841C193.711 22.1837 193.655 22.0862 193.581 21.9915C193.509 21.8949 193.411 21.8153 193.286 21.7528C193.161 21.6903 193.001 21.6591 192.806 21.6591C192.539 21.6591 192.316 21.7206 192.138 21.8438C191.962 21.965 191.874 22.1193 191.874 22.3068C191.874 22.4735 191.934 22.6051 192.056 22.7017C192.177 22.7983 192.366 22.8788 192.624 22.9432L193.271 23.1023C193.662 23.197 193.952 23.3419 194.144 23.5369C194.335 23.7301 194.431 23.9792 194.431 24.2841C194.431 24.5341 194.359 24.7576 194.215 24.9545C194.073 25.1515 193.874 25.3068 193.618 25.4205C193.362 25.5341 193.065 25.5909 192.726 25.5909C192.281 25.5909 191.913 25.4943 191.621 25.3011C191.329 25.108 191.145 24.8258 191.067 24.4545L191.703 24.2955C191.764 24.5303 191.878 24.7064 192.047 24.8239C192.218 24.9413 192.44 25 192.715 25C193.027 25 193.275 24.9337 193.459 24.8011C193.645 24.6667 193.737 24.5057 193.737 24.3182C193.737 24.1667 193.684 24.0398 193.578 23.9375C193.472 23.8333 193.309 23.7557 193.09 23.7045L192.362 23.5341C191.963 23.4394 191.669 23.2926 191.482 23.0938C191.296 22.893 191.203 22.642 191.203 22.3409C191.203 22.0947 191.272 21.8769 191.411 21.6875C191.551 21.4981 191.741 21.3494 191.982 21.2415C192.224 21.1335 192.499 21.0795 192.806 21.0795C193.237 21.0795 193.576 21.1742 193.823 21.3636C194.071 21.553 194.247 21.803 194.351 22.1136ZM197.338 21.1364V21.7045H195.076V21.1364H197.338ZM195.735 20.0909H196.406V24.25C196.406 24.4394 196.433 24.5814 196.488 24.6761C196.545 24.7689 196.617 24.8314 196.704 24.8636C196.793 24.8939 196.887 24.9091 196.985 24.9091C197.059 24.9091 197.12 24.9053 197.167 24.8977C197.214 24.8883 197.252 24.8807 197.281 24.875L197.417 25.4773C197.372 25.4943 197.308 25.5114 197.227 25.5284C197.145 25.5473 197.042 25.5568 196.917 25.5568C196.728 25.5568 196.542 25.5161 196.36 25.4347C196.18 25.3532 196.031 25.2292 195.911 25.0625C195.794 24.8958 195.735 24.6856 195.735 24.4318V20.0909ZM200.585 25.5V24.9886L202.505 22.8864C202.731 22.6402 202.916 22.4261 203.062 22.2443C203.208 22.0606 203.316 21.8883 203.386 21.7273C203.458 21.5644 203.494 21.3939 203.494 21.2159C203.494 21.0114 203.445 20.8343 203.346 20.6847C203.249 20.535 203.117 20.4195 202.948 20.3381C202.78 20.2566 202.59 20.2159 202.38 20.2159C202.157 20.2159 201.962 20.2623 201.795 20.3551C201.63 20.446 201.502 20.5739 201.411 20.7386C201.322 20.9034 201.278 21.0966 201.278 21.3182H200.607C200.607 20.9773 200.686 20.678 200.843 20.4205C201 20.1629 201.214 19.9621 201.485 19.8182C201.758 19.6742 202.064 19.6023 202.403 19.6023C202.744 19.6023 203.046 19.6742 203.309 19.8182C203.572 19.9621 203.779 20.1562 203.928 20.4006C204.078 20.6449 204.153 20.9167 204.153 21.2159C204.153 21.4299 204.114 21.6392 204.036 21.8438C203.961 22.0464 203.828 22.2727 203.639 22.5227C203.451 22.7708 203.191 23.0739 202.857 23.4318L201.551 24.8295V24.875H204.255V25.5H200.585ZM207.326 25.5795C206.898 25.5795 206.534 25.4631 206.232 25.2301C205.931 24.9953 205.701 24.6553 205.542 24.2102C205.383 23.7633 205.303 23.2235 205.303 22.5909C205.303 21.9621 205.383 21.4252 205.542 20.9801C205.703 20.5331 205.934 20.1922 206.235 19.9574C206.538 19.7206 206.902 19.6023 207.326 19.6023C207.75 19.6023 208.113 19.7206 208.414 19.9574C208.717 20.1922 208.948 20.5331 209.107 20.9801C209.268 21.4252 209.349 21.9621 209.349 22.5909C209.349 23.2235 209.269 23.7633 209.11 24.2102C208.951 24.6553 208.721 24.9953 208.42 25.2301C208.119 25.4631 207.754 25.5795 207.326 25.5795ZM207.326 24.9545C207.75 24.9545 208.08 24.75 208.315 24.3409C208.55 23.9318 208.667 23.3485 208.667 22.5909C208.667 22.0871 208.613 21.6581 208.505 21.304C208.399 20.9498 208.246 20.6799 208.045 20.4943C207.846 20.3087 207.606 20.2159 207.326 20.2159C206.906 20.2159 206.577 20.4233 206.34 20.8381C206.104 21.2509 205.985 21.8352 205.985 22.5909C205.985 23.0947 206.038 23.5227 206.144 23.875C206.25 24.2273 206.403 24.4953 206.602 24.679C206.802 24.8627 207.044 24.9545 207.326 24.9545ZM212.69 25.5V21.1364H213.338V21.8182H213.394C213.485 21.5852 213.632 21.4044 213.835 21.2756C214.037 21.1449 214.281 21.0795 214.565 21.0795C214.853 21.0795 215.092 21.1449 215.284 21.2756C215.477 21.4044 215.627 21.5852 215.735 21.8182H215.781C215.892 21.5928 216.06 21.4138 216.284 21.2812C216.507 21.1468 216.775 21.0795 217.088 21.0795C217.478 21.0795 217.797 21.2017 218.045 21.446C218.293 21.6884 218.417 22.0663 218.417 22.5795V25.5H217.747V22.5795C217.747 22.2576 217.659 22.0275 217.482 21.8892C217.306 21.7509 217.099 21.6818 216.86 21.6818C216.553 21.6818 216.316 21.7746 216.147 21.9602C215.979 22.1439 215.894 22.3769 215.894 22.6591V25.5H215.213V22.5114C215.213 22.2633 215.132 22.0634 214.971 21.9119C214.81 21.7585 214.603 21.6818 214.349 21.6818C214.175 21.6818 214.012 21.7282 213.86 21.821C213.711 21.9138 213.589 22.0426 213.497 22.2074C213.406 22.3703 213.36 22.5587 213.36 22.7727V25.5H212.69ZM219.643 25.5V21.1364H220.313V25.5H219.643ZM219.984 20.4091C219.853 20.4091 219.74 20.3646 219.646 20.2756C219.553 20.1866 219.507 20.0795 219.507 19.9545C219.507 19.8295 219.553 19.7225 219.646 19.6335C219.74 19.5445 219.853 19.5 219.984 19.5C220.115 19.5 220.226 19.5445 220.319 19.6335C220.414 19.7225 220.461 19.8295 220.461 19.9545C220.461 20.0795 220.414 20.1866 220.319 20.2756C220.226 20.3646 220.115 20.4091 219.984 20.4091ZM222.212 22.875V25.5H221.541V21.1364H222.189V21.8182H222.246C222.348 21.5966 222.503 21.4186 222.712 21.2841C222.92 21.1477 223.189 21.0795 223.519 21.0795C223.814 21.0795 224.073 21.1402 224.294 21.2614C224.516 21.3807 224.688 21.5625 224.811 21.8068C224.934 22.0492 224.996 22.3561 224.996 22.7273V25.5H224.325V22.7727C224.325 22.4299 224.236 22.1629 224.058 21.9716C223.88 21.7784 223.636 21.6818 223.325 21.6818C223.111 21.6818 222.92 21.7282 222.752 21.821C222.585 21.9138 222.453 22.0492 222.357 22.2273C222.26 22.4053 222.212 22.6212 222.212 22.875Z" fill="black"/>
<rect x="14.7852" y="36" width="88" height="20" rx="10" fill="#F2F2F7"/>
<g clip-path="url(#clip1_7613_32618)">
<path d="M32.2852 48.75L27.5352 44.3958L25.0352 46.6875L21.2852 43.25M32.2852 48.75H29.2852M32.2852 48.75L32.2852 46" stroke="#0088FF" stroke-width="1.2" stroke-linecap="round" stroke-linejoin="round"/>
</g>
<path d="M39.6286 43.3068V42.6818H43.9922V43.3068H42.1626V48.5H41.4581V43.3068H39.6286ZM44.5355 48.5V44.1364H45.1832V44.7955H45.2287C45.3082 44.5795 45.4522 44.4044 45.6605 44.2699C45.8688 44.1354 46.1037 44.0682 46.3651 44.0682C46.4143 44.0682 46.4759 44.0691 46.5497 44.071C46.6236 44.0729 46.6795 44.0758 46.7173 44.0795V44.7614C46.6946 44.7557 46.6425 44.7472 46.5611 44.7358C46.4815 44.7225 46.3973 44.7159 46.3082 44.7159C46.0961 44.7159 45.9067 44.7604 45.7401 44.8494C45.5753 44.9366 45.4446 45.0578 45.348 45.2131C45.2533 45.3665 45.206 45.5417 45.206 45.7386V48.5H44.5355ZM49.2088 48.5909C48.7884 48.5909 48.4257 48.4981 48.1207 48.3125C47.8177 48.125 47.5838 47.8636 47.419 47.5284C47.2562 47.1913 47.1747 46.7992 47.1747 46.3523C47.1747 45.9053 47.2562 45.5114 47.419 45.1705C47.5838 44.8277 47.813 44.5606 48.1065 44.3693C48.402 44.1761 48.7467 44.0795 49.1406 44.0795C49.3679 44.0795 49.5923 44.1174 49.8139 44.1932C50.0355 44.2689 50.2372 44.392 50.419 44.5625C50.6009 44.7311 50.7457 44.9545 50.8537 45.233C50.9616 45.5114 51.0156 45.8542 51.0156 46.2614V46.5455H47.652V45.9659H50.3338C50.3338 45.7197 50.2846 45.5 50.1861 45.3068C50.0895 45.1136 49.9512 44.9612 49.7713 44.8494C49.5933 44.7377 49.383 44.6818 49.1406 44.6818C48.8736 44.6818 48.6425 44.7481 48.4474 44.8807C48.2543 45.0114 48.1056 45.1818 48.0014 45.392C47.8973 45.6023 47.8452 45.8277 47.8452 46.0682V46.4545C47.8452 46.7841 47.902 47.0634 48.0156 47.2926C48.1312 47.5199 48.2912 47.6932 48.4957 47.8125C48.7003 47.9299 48.938 47.9886 49.2088 47.9886C49.3849 47.9886 49.544 47.964 49.6861 47.9148C49.83 47.8636 49.9541 47.7879 50.0582 47.6875C50.1624 47.5852 50.2429 47.4583 50.2997 47.3068L50.9474 47.4886C50.8793 47.7083 50.7647 47.9015 50.6037 48.0682C50.4427 48.233 50.2438 48.3617 50.0071 48.4545C49.7704 48.5455 49.5043 48.5909 49.2088 48.5909ZM52.706 45.875V48.5H52.0355V44.1364H52.6832V44.8182H52.7401C52.8423 44.5966 52.9976 44.4186 53.206 44.2841C53.4143 44.1477 53.6832 44.0795 54.0128 44.0795C54.3082 44.0795 54.5668 44.1402 54.7884 44.2614C55.0099 44.3807 55.1823 44.5625 55.3054 44.8068C55.4285 45.0492 55.4901 45.3561 55.4901 45.7273V48.5H54.8196V45.7727C54.8196 45.4299 54.7306 45.1629 54.5526 44.9716C54.3745 44.7784 54.1302 44.6818 53.8196 44.6818C53.6056 44.6818 53.4143 44.7282 53.2457 44.821C53.0791 44.9138 52.9474 45.0492 52.8509 45.2273C52.7543 45.4053 52.706 45.6212 52.706 45.875ZM58.3629 48.5909C57.9993 48.5909 57.6783 48.4991 57.3999 48.3153C57.1214 48.1297 56.9036 47.8684 56.7464 47.5312C56.5893 47.1922 56.5107 46.7917 56.5107 46.3295C56.5107 45.8712 56.5893 45.4735 56.7464 45.1364C56.9036 44.7992 57.1224 44.5388 57.4027 44.3551C57.683 44.1714 58.0069 44.0795 58.3743 44.0795C58.6584 44.0795 58.8828 44.1269 59.0476 44.2216C59.2143 44.3144 59.3411 44.4205 59.4283 44.5398C59.5173 44.6572 59.5864 44.7538 59.6357 44.8295H59.6925V42.6818H60.3629V48.5H59.7152V47.8295H59.6357C59.5864 47.9091 59.5163 48.0095 59.4254 48.1307C59.3345 48.25 59.2048 48.357 59.0362 48.4517C58.8677 48.5445 58.6432 48.5909 58.3629 48.5909ZM58.4538 47.9886C58.7228 47.9886 58.95 47.9186 59.1357 47.7784C59.3213 47.6364 59.4624 47.4403 59.5589 47.1903C59.6555 46.9384 59.7038 46.6477 59.7038 46.3182C59.7038 45.9924 59.6565 45.7074 59.5618 45.4631C59.4671 45.2169 59.3269 45.0256 59.1413 44.8892C58.9557 44.7509 58.7266 44.6818 58.4538 44.6818C58.1697 44.6818 57.933 44.7547 57.7436 44.9006C57.5561 45.0445 57.415 45.2405 57.3203 45.4886C57.2275 45.7348 57.1811 46.0114 57.1811 46.3182C57.1811 46.6288 57.2285 46.911 57.3232 47.1648C57.4197 47.4167 57.5618 47.6174 57.7493 47.767C57.9387 47.9148 58.1735 47.9886 58.4538 47.9886ZM61.6839 48.5V44.1364H62.3544V48.5H61.6839ZM62.0249 43.4091C61.8942 43.4091 61.7815 43.3646 61.6868 43.2756C61.594 43.1866 61.5476 43.0795 61.5476 42.9545C61.5476 42.8295 61.594 42.7225 61.6868 42.6335C61.7815 42.5445 61.8942 42.5 62.0249 42.5C62.1555 42.5 62.2673 42.5445 62.3601 42.6335C62.4548 42.7225 62.5021 42.8295 62.5021 42.9545C62.5021 43.0795 62.4548 43.1866 62.3601 43.2756C62.2673 43.3646 62.1555 43.4091 62.0249 43.4091ZM64.2528 45.875V48.5H63.5824V44.1364H64.2301V44.8182H64.2869C64.3892 44.5966 64.5445 44.4186 64.7528 44.2841C64.9612 44.1477 65.2301 44.0795 65.5597 44.0795C65.8551 44.0795 66.1136 44.1402 66.3352 44.2614C66.5568 44.3807 66.7292 44.5625 66.8523 44.8068C66.9754 45.0492 67.0369 45.3561 67.0369 45.7273V48.5H66.3665V45.7727C66.3665 45.4299 66.2775 45.1629 66.0994 44.9716C65.9214 44.7784 65.6771 44.6818 65.3665 44.6818C65.1525 44.6818 64.9612 44.7282 64.7926 44.821C64.6259 44.9138 64.4943 45.0492 64.3977 45.2273C64.3011 45.4053 64.2528 45.6212 64.2528 45.875ZM70.0234 50.2273C69.6996 50.2273 69.4212 50.1856 69.1882 50.1023C68.9553 50.0208 68.7611 49.9129 68.6058 49.7784C68.4524 49.6458 68.3303 49.5038 68.2393 49.3523L68.7734 48.9773C68.834 49.0568 68.9107 49.1477 69.0036 49.25C69.0964 49.3542 69.2232 49.4441 69.3842 49.5199C69.5471 49.5975 69.7602 49.6364 70.0234 49.6364C70.3757 49.6364 70.6664 49.5511 70.8956 49.3807C71.1248 49.2102 71.2393 48.9432 71.2393 48.5795V47.6932H71.1825C71.1333 47.7727 71.0632 47.8712 70.9723 47.9886C70.8833 48.1042 70.7545 48.2074 70.5859 48.2983C70.4193 48.3873 70.1939 48.4318 69.9098 48.4318C69.5575 48.4318 69.2412 48.3485 68.9609 48.1818C68.6825 48.0152 68.4619 47.7727 68.299 47.4545C68.138 47.1364 68.0575 46.75 68.0575 46.2955C68.0575 45.8485 68.1361 45.4593 68.2933 45.1278C68.4505 44.7945 68.6693 44.5369 68.9496 44.3551C69.2299 44.1714 69.5537 44.0795 69.9212 44.0795C70.2053 44.0795 70.4306 44.1269 70.5973 44.2216C70.7659 44.3144 70.8946 44.4205 70.9837 44.5398C71.0746 44.6572 71.1446 44.7538 71.1939 44.8295H71.2621V44.1364H71.9098V48.625C71.9098 49 71.8246 49.3049 71.6541 49.5398C71.4856 49.7765 71.2583 49.9498 70.9723 50.0597C70.6882 50.1714 70.3719 50.2273 70.0234 50.2273ZM70.0007 47.8295C70.2696 47.8295 70.4969 47.768 70.6825 47.6449C70.8681 47.5218 71.0092 47.3447 71.1058 47.1136C71.2024 46.8826 71.2507 46.6061 71.2507 46.2841C71.2507 45.9697 71.2034 45.6922 71.1087 45.4517C71.014 45.2112 70.8738 45.0227 70.6882 44.8864C70.5026 44.75 70.2734 44.6818 70.0007 44.6818C69.7166 44.6818 69.4799 44.7538 69.2905 44.8977C69.103 45.0417 68.9619 45.2348 68.8672 45.4773C68.7744 45.7197 68.728 45.9886 68.728 46.2841C68.728 46.5871 68.7753 46.8551 68.87 47.0881C68.9666 47.3191 69.1087 47.5009 69.2962 47.6335C69.4856 47.7642 69.7204 47.8295 70.0007 47.8295ZM77.2734 48.5H75.478V42.6818H77.353C77.9174 42.6818 78.4003 42.7983 78.8018 43.0312C79.2034 43.2623 79.5111 43.5947 79.7251 44.0284C79.9392 44.4602 80.0462 44.9773 80.0462 45.5795C80.0462 46.1856 79.9382 46.7074 79.7223 47.1449C79.5064 47.5805 79.192 47.9157 78.7791 48.1506C78.3662 48.3835 77.8643 48.5 77.2734 48.5ZM76.1825 47.875H77.228C77.709 47.875 78.1077 47.7822 78.424 47.5966C78.7403 47.411 78.9761 47.1468 79.1314 46.804C79.2867 46.4612 79.3643 46.053 79.3643 45.5795C79.3643 45.1098 79.2876 44.7055 79.1342 44.3665C78.9808 44.0256 78.7517 43.7642 78.4467 43.5824C78.1418 43.3987 77.7621 43.3068 77.3075 43.3068H76.1825V47.875ZM82.9098 48.5909C82.5159 48.5909 82.1702 48.4972 81.8729 48.3097C81.5774 48.1222 81.3464 47.8598 81.1797 47.5227C81.0149 47.1856 80.9325 46.7917 80.9325 46.3409C80.9325 45.8864 81.0149 45.4896 81.1797 45.1506C81.3464 44.8116 81.5774 44.5483 81.8729 44.3608C82.1702 44.1733 82.5159 44.0795 82.9098 44.0795C83.3037 44.0795 83.6484 44.1733 83.9439 44.3608C84.2412 44.5483 84.4723 44.8116 84.6371 45.1506C84.8037 45.4896 84.8871 45.8864 84.8871 46.3409C84.8871 46.7917 84.8037 47.1856 84.6371 47.5227C84.4723 47.8598 84.2412 48.1222 83.9439 48.3097C83.6484 48.4972 83.3037 48.5909 82.9098 48.5909ZM82.9098 47.9886C83.209 47.9886 83.4553 47.9119 83.6484 47.7585C83.8416 47.6051 83.9846 47.4034 84.0774 47.1534C84.1702 46.9034 84.2166 46.6326 84.2166 46.3409C84.2166 46.0492 84.1702 45.7775 84.0774 45.5256C83.9846 45.2737 83.8416 45.0701 83.6484 44.9148C83.4553 44.7595 83.209 44.6818 82.9098 44.6818C82.6106 44.6818 82.3643 44.7595 82.1712 44.9148C81.978 45.0701 81.835 45.2737 81.7422 45.5256C81.6494 45.7775 81.603 46.0492 81.603 46.3409C81.603 46.6326 81.6494 46.9034 81.7422 47.1534C81.835 47.4034 81.978 47.6051 82.1712 47.7585C82.3643 47.9119 82.6106 47.9886 82.9098 47.9886ZM86.7507 48.5L85.4212 44.1364H86.1257L87.0689 47.4773H87.1143L88.0462 44.1364H88.7621L89.6825 47.4659H89.728L90.6712 44.1364H91.3757L90.0462 48.5H89.3871L88.4325 45.1477H88.3643L87.4098 48.5H86.7507ZM92.9325 45.875V48.5H92.2621V44.1364H92.9098V44.8182H92.9666C93.0689 44.5966 93.2242 44.4186 93.4325 44.2841C93.6409 44.1477 93.9098 44.0795 94.2393 44.0795C94.5348 44.0795 94.7933 44.1402 95.0149 44.2614C95.2365 44.3807 95.4089 44.5625 95.532 44.8068C95.6551 45.0492 95.7166 45.3561 95.7166 45.7273V48.5H95.0462V45.7727C95.0462 45.4299 94.9571 45.1629 94.7791 44.9716C94.6011 44.7784 94.3568 44.6818 94.0462 44.6818C93.8321 44.6818 93.6409 44.7282 93.4723 44.821C93.3056 44.9138 93.174 45.0492 93.0774 45.2273C92.9808 45.4053 92.9325 45.6212 92.9325 45.875Z" fill="black"/>
<defs>
<filter id="filter0_dd_7613_32618" x="0" y="0" width="248" height="124" filterUnits="userSpaceOnUse" color-interpolation-filters="sRGB">
<feFlood flood-opacity="0" result="BackgroundImageFix"/>
<feColorMatrix in="SourceAlpha" type="matrix" values="0 0 0 0 0 0 0 0 0 0 0 0 0 0 0 0 0 0 127 0" result="hardAlpha"/>
<feOffset dy="1"/>
<feGaussianBlur stdDeviation="2"/>
<feComposite in2="hardAlpha" operator="out"/>
<feColorMatrix type="matrix" values="0 0 0 0 0.0470588 0 0 0 0 0.0470588 0 0 0 0 0.0509804 0 0 0 0.05 0"/>
<feBlend mode="normal" in2="BackgroundImageFix" result="effect1_dropShadow_7613_32618"/>
<feColorMatrix in="SourceAlpha" type="matrix" values="0 0 0 0 0 0 0 0 0 0 0 0 0 0 0 0 0 0 127 0" result="hardAlpha"/>
<feOffset dy="1"/>
<feGaussianBlur stdDeviation="2"/>
<feComposite in2="hardAlpha" operator="out"/>
<feColorMatrix type="matrix" values="0 0 0 0 0.0470588 0 0 0 0 0.0470588 0 0 0 0 0.0509804 0 0 0 0.1 0"/>
<feBlend mode="normal" in2="effect1_dropShadow_7613_32618" result="effect2_dropShadow_7613_32618"/>
<feBlend mode="normal" in="SourceGraphic" in2="effect2_dropShadow_7613_32618" result="shape"/>
</filter>
<filter id="filter1_d_7613_32618" x="118.049" y="49" width="61.1602" height="52.8984" filterUnits="userSpaceOnUse" color-interpolation-filters="sRGB">
<feFlood flood-opacity="0" result="BackgroundImageFix"/>
<feColorMatrix in="SourceAlpha" type="matrix" values="0 0 0 0 0 0 0 0 0 0 0 0 0 0 0 0 0 0 127 0" result="hardAlpha"/>
<feOffset dy="2"/>
<feGaussianBlur stdDeviation="8"/>
<feColorMatrix type="matrix" values="0 0 0 0 0.293333 0 0 0 0 0.333211 0 0 0 0 0.431373 0 0 0 0.2 0"/>
<feBlend mode="normal" in2="BackgroundImageFix" result="effect1_dropShadow_7613_32618"/>
<feBlend mode="normal" in="SourceGraphic" in2="effect1_dropShadow_7613_32618" result="shape"/>
</filter>
<linearGradient id="paint0_linear_7613_32618" x1="243.341" y1="149.138" x2="243.341" y2="62.3984" gradientUnits="userSpaceOnUse">
<stop stop-color="white" stop-opacity="0.1"/>
<stop offset="1" stop-color="#0595FD"/>
</linearGradient>
<clipPath id="clip0_7613_32618">
<rect width="12" height="12" fill="white" transform="translate(163.623 17)"/>
</clipPath>
<clipPath id="clip1_7613_32618">
<rect width="12" height="11" fill="white" transform="translate(20.7852 40.5)"/>
</clipPath>
</defs>
</svg>
