<svg width="16" height="16" viewBox="0 0 16 16" fill="none" xmlns="http://www.w3.org/2000/svg">
<path d="M10.998 0.0996094C12.3643 0.0996094 13.5205 0.575211 14.4717 1.52637C15.4226 2.47743 15.8974 3.63295 15.8975 4.99902C15.8975 5.65263 15.7741 6.27707 15.5273 6.87207C15.2807 7.4669 14.9248 7.99611 14.46 8.46094L8.46094 14.46C7.99611 14.9248 7.4669 15.2807 6.87207 15.5273C6.27707 15.7741 5.65263 15.8975 4.99902 15.8975C3.63295 15.8974 2.47743 15.4226 1.52637 14.4717C0.575211 13.5205 0.0996094 12.3643 0.0996094 10.998C0.0996389 10.3446 0.223134 9.72081 0.469727 9.12598C0.716414 8.53102 1.0722 8.00104 1.53711 7.53613L7.53613 1.53711C8.00104 1.0722 8.53102 0.716414 9.12598 0.469727C9.72081 0.223134 10.3446 0.0996389 10.998 0.0996094ZM5.01758 6.2832L2.64062 8.63867H2.63965C2.33382 8.9445 2.09748 9.30416 1.92969 9.71582C1.76193 10.1276 1.67776 10.5556 1.67773 10.998C1.67773 11.9134 2.00312 12.6984 2.65137 13.3467C3.29952 13.9947 4.08391 14.3203 4.99902 14.3203C5.44159 14.3203 5.8694 14.2361 6.28125 14.0684C6.64171 13.9215 6.96178 13.7214 7.24121 13.4688L7.3584 13.3574L9.71387 10.9795L9.78418 10.9092L5.08887 6.21387L5.01758 6.2832ZM10.998 1.67773C10.5556 1.67776 10.1276 1.76193 9.71582 1.92969C9.30416 2.09748 8.9445 2.33382 8.63867 2.63965V2.64062L6.2832 5.01758L6.21387 5.08887L10.9092 9.78418L10.9795 9.71387L13.3574 7.3584C13.6634 7.05243 13.9006 6.69314 14.0684 6.28125C14.2361 5.8694 14.3203 5.44159 14.3203 4.99902C14.3203 4.08391 13.9947 3.29952 13.3467 2.65137C12.6984 2.00312 11.9134 1.67773 10.998 1.67773Z" fill="white" stroke="white" stroke-width="0.2"/>
</svg>
